<?xml version="1.0" encoding="utf-8"?>
<!-- Generator: Adobe Illustrator 17.0.2, SVG Export Plug-In . SVG Version: 6.00 Build 0)  -->
<!DOCTYPE svg PUBLIC "-//W3C//DTD SVG 1.1//EN" "http://www.w3.org/Graphics/SVG/1.1/DTD/svg11.dtd">
<svg version="1.1" id="Calque_1" xmlns:sketch="http://www.bohemiancoding.com/sketch/ns"
	 xmlns="http://www.w3.org/2000/svg" xmlns:xlink="http://www.w3.org/1999/xlink" x="0px" y="0px" width="178px" height="199px"
	 viewBox="0 0 178 199" enable-background="new 0 0 178 199" xml:space="preserve">
<title>Imported Layers</title>
<desc>Created with Sketch.</desc>
<g id="Welcome" sketch:type="MSPage">
	<g id="Pricing" transform="translate(-905.000000, -220.000000)" sketch:type="MSArtboardGroup">
		<g id="Imported-Layers" transform="translate(906.000000, 221.000000)" sketch:type="MSLayerGroup">
			<path id="Fill-1" sketch:type="MSShapeGroup" fill="#7FD2DB" d="M98.119,26.305c-0.463,0-0.884-0.253-1.102-0.66
				c-0.046-0.084-4.795-8.699-11.221-8.699c-1.121,0-2.251,0.268-3.358,0.796c-3.09,1.476-6.476,2.257-9.793,2.257
				c-3.175,0-6.165-0.706-8.419-1.988c-2.341-1.331-3.734-3.218-3.925-5.312c-0.03-0.332,0.071-0.657,0.284-0.914
				c0.214-0.257,0.515-0.415,0.849-0.446l0.108-0.004c0.645,0,1.194,0.5,1.25,1.139c0.114,1.254,1.063,2.448,2.671,3.364
				c1.828,1.039,4.45,1.636,7.194,1.636c2.973,0,5.983-0.687,8.704-1.987c1.46-0.696,2.956-1.049,4.449-1.049
				c7.996,0,13.36,9.929,13.412,10.03c0.157,0.289,0.191,0.628,0.095,0.948c-0.098,0.32-0.312,0.584-0.607,0.741
				C98.53,26.253,98.325,26.305,98.119,26.305"/>
			<path id="Fill-2" sketch:type="MSShapeGroup" fill="#5398AD" d="M61.541,12.169c0.199,0,0.401,0.161,0.42,0.378
				c0.139,1.535,1.236,2.961,3.089,4.015c1.831,1.042,4.531,1.745,7.606,1.745c2.83,0,5.979-0.594,9.064-2.068
				c1.422-0.679,2.791-0.968,4.09-0.968c7.439-0.001,12.617,9.475,12.676,9.586c0.109,0.203,0.033,0.456-0.17,0.564
				c-0.063,0.034-0.13,0.05-0.197,0.05c-0.148,0-0.293-0.08-0.367-0.22c-0.058-0.107-5.008-9.139-11.956-9.139
				c-1.185,0-2.429,0.263-3.716,0.878c-3.232,1.543-6.494,2.175-9.435,2.175c-3.198,0-6.017-0.746-8.007-1.879
				c-2.096-1.192-3.342-2.848-3.507-4.663c-0.021-0.229,0.148-0.432,0.378-0.453C61.52,12.17,61.531,12.169,61.541,12.169
				 M61.541,10.502h-0.076l-0.109,0.008c-0.553,0.05-1.055,0.313-1.412,0.742c-0.356,0.428-0.524,0.97-0.473,1.525
				c0.216,2.372,1.759,4.489,4.343,5.959c2.377,1.352,5.514,2.096,8.832,2.096c3.44,0,6.951-0.809,10.153-2.337
				c0.993-0.475,2.001-0.715,2.998-0.715c5.912,0,10.445,8.183,10.49,8.267c0.359,0.67,1.063,1.092,1.833,1.092
				c0.343,0,0.685-0.087,0.988-0.249c0.488-0.262,0.847-0.701,1.008-1.235c0.161-0.533,0.103-1.097-0.16-1.587
				c-0.052-0.097-5.653-10.464-14.144-10.464c-1.619,0-3.237,0.38-4.808,1.13c-2.611,1.247-5.497,1.906-8.346,1.906
				c-2.604,0-5.076-0.556-6.781-1.526c-1.365-0.776-2.165-1.741-2.253-2.716C63.528,11.336,62.614,10.502,61.541,10.502"/>
			<path id="Fill-3" sketch:type="MSShapeGroup" fill="#7BCED6" d="M99.317,31.851l-3.262-3.603c0,0-0.168-1.721,2.064-3.194
				c2.051-1.355,3.619-0.348,3.619-0.348l3.138,4.622"/>
			<path fill="#5398AD" d="M98.576,32.522l-3.483-3.848l-0.032-0.329c-0.085-0.862,0.349-2.701,2.508-4.126
				c2.565-1.695,4.623-0.411,4.711-0.355l0.173,0.111l3.251,4.792l-1.654,1.123l-2.993-4.411c-0.34-0.136-1.225-0.357-2.386,0.409
				c-1.18,0.779-1.5,1.589-1.586,2.005l2.975,3.287L98.576,32.522z"/>
			<path id="Fill-5" sketch:type="MSShapeGroup" fill="#71C1CE" d="M99.169,50.108c-3.363,0.705-2.264,3.254-1.361,4.295
				c0.904,1.042,2.64,0.348,2.64,0.348l3.479,0.597"/>
			<path fill="#5398AD" d="M103.757,56.333l-3.225-0.553c-0.945,0.293-2.504,0.404-3.48-0.722c-0.76-0.877-1.481-2.391-1.018-3.768
				c0.256-0.76,0.973-1.751,2.93-2.162l0.41,1.957c-0.569,0.12-1.282,0.363-1.444,0.844c-0.172,0.508,0.198,1.316,0.634,1.818
				c0.358,0.415,1.299,0.16,1.513,0.074l0.262-0.104l3.757,0.644L103.757,56.333z"/>
			<path id="Fill-7" sketch:type="MSShapeGroup" fill="#71C1CE" d="M113.143,54.039c0,0,3.143-0.834,2.83-1.876
				c-0.313-1.042-0.7-1.894-0.7-1.894l-2.13,1.06L113.143,54.039L113.143,54.039z"/>
			<path fill="#5398AD" d="M112.144,55.339v-4.628l3.612-1.799l0.428,0.944c0.018,0.037,0.419,0.925,0.748,2.019
				c0.119,0.4,0.068,0.83-0.145,1.209c-0.605,1.083-2.57,1.704-3.387,1.921L112.144,55.339z M114.144,51.949v0.684
				c0.346-0.15,0.635-0.304,0.796-0.429c-0.063-0.197-0.129-0.385-0.19-0.556L114.144,51.949z"/>
			<path id="Fill-9" sketch:type="MSShapeGroup" fill="#71C1CE" d="M61.304,52.404c0,0,15.386-9.046,19.138-6.962
				c3.751,2.084-0.827,14.555-1.324,14.307"/>
			<path fill="#5398AD" d="M79.144,60.761c-0.186,0-0.35-0.056-0.474-0.118l0.895-1.789c-0.499-0.249-0.963,0.001-1.104,0.19
				c0.571-0.771,3.076-7.761,2.304-11.331c-0.154-0.714-0.427-1.185-0.81-1.397c-2.24-1.247-11.96,3.314-18.145,6.95l-1.014-1.724
				c2.652-1.559,16.082-9.226,20.13-6.974c4.502,2.501,0.052,14.008-0.596,15.235C79.934,60.558,79.498,60.761,79.144,60.761z"/>
			<path id="Fill-11" sketch:type="MSShapeGroup" fill="#71C1CE" d="M142.354,112.369c20.347-15.857,36.67-37.823,32.122-44.244
				c-5.037-7.111-38.348,1.421-63.7,11.754"/>
			<path fill="#5398AD" d="M142.968,113.158l-1.229-1.578c21.616-16.845,35.619-37.657,31.92-42.877
				c-3.552-5.013-29.517-1.345-62.507,12.103l-0.754-1.853c13.194-5.378,28.013-10.04,39.641-12.472
				c14.158-2.961,22.654-2.601,25.253,1.065c3.304,4.664-2.802,14.377-6.734,19.752C162.156,96.048,152.829,105.474,142.968,113.158
				z"/>
			<path id="Fill-13" sketch:type="MSShapeGroup" fill="#71C1CE" d="M60.685,138.25c24.986,36.148,60.18,53.415,81.756,34.119
				c21.576-19.295,10.803-57.407-22.969-85.56C85.631,58.597,49.769,43.5,37.717,52.69C25.664,61.88,34.921,100.978,60.685,138.25
				L60.685,138.25z"/>
			<path fill="#5398AD" d="M121.373,181.367c-0.001,0-0.003,0-0.004,0c-19.799-0.002-43.367-16.306-61.506-42.549
				C34.719,102.443,24.086,61.825,37.11,51.894C39.628,49.974,43.121,49,47.489,49c17.125,0,45.632,14.539,72.624,37.04
				c21.257,17.72,34.15,39.961,34.489,59.496c0.193,11.145-3.781,20.681-11.494,27.578
				C136.984,178.591,129.672,181.367,121.373,181.367z M47.489,51c-3.92,0-7.004,0.836-9.166,2.484
				c-5.522,4.21-6.374,15.584-2.335,31.204c4.28,16.558,13.343,35.377,25.521,52.993c17.771,25.71,40.708,41.684,59.861,41.686
				c0.001,0,0.003,0,0.004,0c7.793,0,14.656-2.605,20.401-7.743c7.268-6.499,11.012-15.508,10.828-26.054
				c-0.329-18.961-12.953-40.641-33.771-57.994C92.589,65.699,63.918,51,47.489,51z"/>
			<path id="Fill-15" sketch:type="MSShapeGroup" fill="#71C1CE" d="M92.553,148.526c-32.031,16.954-73.877,24.204-79.87,15.744
				c-5.722-8.077,25.416-40.479,46.676-59.229c2.071-1.826,3.707-0.176,3.707-0.176c3.717,3.124,11.598,10.662,16.132,16.329
				c5.576,6.97,11.829,16.343,14.734,21.551C93.932,142.745,96.238,146.575,92.553,148.526L92.553,148.526z"/>
			<path fill="#5398AD" d="M25.47,168.813c-7.162,0-11.739-1.334-13.603-3.966c-2.913-4.111,1.429-12.89,13.273-26.837
				c8.736-10.287,21.28-22.893,33.557-33.72c0.835-0.736,1.728-1.11,2.655-1.11c1.412,0,2.325,0.881,2.424,0.98
				c3.892,3.266,11.748,10.84,16.203,16.408c5.647,7.06,11.973,16.571,14.826,21.688c0.036,0.06,1.271,2.146,0.676,4.288
				c-0.338,1.215-1.166,2.178-2.461,2.863C68.954,162.148,40.822,168.813,25.47,168.813z M61.352,105.181
				c-0.425,0-0.873,0.205-1.332,0.61c-25.911,22.852-51.065,51.486-46.521,57.9c1.426,2.014,5.678,3.122,11.971,3.122
				c15.104,0,42.836-6.585,66.615-19.172c0.798-0.422,1.277-0.953,1.467-1.622c0.369-1.305-0.47-2.748-0.479-2.763
				c-2.828-5.071-9.074-14.46-14.655-21.438c-4.375-5.469-12.101-12.915-15.996-16.188
				C62.361,105.575,61.939,105.181,61.352,105.181z"/>
			<path id="Fill-17" sketch:type="MSShapeGroup" fill="#7BCED6" d="M110.885,91.078h-6.009l-1.794-35.666l7.802,0.45
				L110.885,91.078L110.885,91.078z"/>
			<path fill="#5398AD" d="M111.885,92.078h-7.96l-1.896-37.729l9.856,0.569V92.078z M105.827,90.078h4.058V56.806l-5.747-0.332
				L105.827,90.078z"/>
			<path id="Fill-19" sketch:type="MSShapeGroup" fill="#71C1CE" d="M34.579,65.361c-6.127,3.403-26.647,15.087-19.26,17.493
				c7.136,2.325,24.117-1.142,29.854-2.375c2.155-0.463,1.504-2.356,1.504-2.356c-1.808-6.6-6.763-10.99-9.127-12.772
				C37.55,65.351,36.313,64.398,34.579,65.361L34.579,65.361z"/>
			<path fill="#5398AD" d="M21.896,84.638L21.896,84.638c-2.873,0-5.189-0.281-6.886-0.833c-1.737-0.565-2.189-1.589-2.262-2.348
				c-0.116-1.201-0.468-4.854,21.347-16.97c0.665-0.369,1.349-0.557,2.035-0.557c1.181,0,1.948,0.564,2.031,0.629
				c2.742,2.067,7.633,6.553,9.481,13.3c0.024,0.063,0.381,1.182-0.208,2.227c-0.273,0.483-0.85,1.114-2.05,1.371
				C35.699,83.538,27.576,84.638,21.896,84.638z M36.129,65.93c-0.342,0-0.7,0.103-1.064,0.305
				c-15.256,8.473-20.484,13.392-20.327,15.03c0.03,0.313,0.571,0.534,0.891,0.639c1.497,0.487,3.605,0.735,6.267,0.735
				c3.864,0,11.003-0.544,23.067-3.137c0.258-0.056,0.593-0.168,0.725-0.393c0.132-0.226,0.071-0.571,0.039-0.674
				c-1.769-6.452-6.728-10.739-8.779-12.285C36.943,66.146,36.629,65.93,36.129,65.93z"/>
			<path id="Fill-21" sketch:type="MSShapeGroup" fill="#71C1CE" d="M58.25,36.865c-5.332,2.427-8.542,12.554-10.392,16.511
				c-0.928,1.985,0.316,2.673,0.316,2.673s6.921,4.302,9.343,5.96c2.343,1.604,8.193,5.971,8.193,5.971
				c2.324,1.902,2.541-1.068,2.541-1.068c2.138-17.031-4.503-25.57-6.411-28.362C61.841,38.55,59.657,36.225,58.25,36.865
				L58.25,36.865z"/>
			<path fill="#5398AD" d="M67.057,69.616L67.057,69.616c-0.623,0-1.271-0.282-1.979-0.862c-0.023-0.016-5.825-4.346-8.125-5.919
				c-2.375-1.627-9.237-5.894-9.306-5.937c-0.669-0.369-1.741-1.707-0.694-3.946c0.328-0.703,0.703-1.611,1.137-2.663
				c2.002-4.854,5.029-12.188,9.746-14.334c0.293-0.133,0.614-0.201,0.953-0.201c1.709,0,3.449,1.759,3.78,2.112l0.097,0.121
				l0.298,0.431c2.288,3.287,8.363,12.019,6.279,28.619C69.154,68.294,68.439,69.616,67.057,69.616z M67.057,67.616L67.057,67.616v1
				V67.616L67.057,67.616z M58.79,37.753c-0.052,0-0.093,0.007-0.125,0.021c-3.998,1.819-6.843,8.714-8.726,13.277
				c-0.443,1.074-0.826,2.002-1.174,2.747c-0.374,0.8-0.269,1.254-0.065,1.399c0.287,0.177,6.971,4.334,9.383,5.986
				c2.333,1.597,7.987,5.816,8.227,5.995c0.406,0.331,0.627,0.412,0.71,0.431c0.099-0.128,0.212-0.491,0.236-0.776
				c1.994-15.885-3.764-24.159-5.932-27.274l-0.259-0.375C60.485,38.589,59.401,37.753,58.79,37.753z"/>
			<path id="Fill-23" sketch:type="MSShapeGroup" fill="#71C1CE" d="M110.775,126.286c2.221,2.048,5.123,4.045,8.576,4.045
				c6.139,0,11.115-4.977,11.115-11.115c0-3.526-1.642-6.669-4.204-8.705L100.07,88.684l-17.089,12.135L110.775,126.286
				L110.775,126.286z"/>
			<path fill="#5398AD" d="M119.351,131.33c-3.083,0-6.109-1.41-9.253-4.31l-28.704-26.3l18.726-13.297l26.783,22.318
				c2.894,2.3,4.563,5.758,4.563,9.474C131.466,125.896,126.031,131.33,119.351,131.33z M84.569,100.917l26.882,24.631
				c2.759,2.546,5.343,3.782,7.899,3.782c5.577,0,10.115-4.538,10.115-10.115c0-3.103-1.395-5.99-3.826-7.922l-25.618-21.348
				L84.569,100.917z"/>
			<path id="Fill-25" sketch:type="MSShapeGroup" fill="#7BCED6" d="M99.81,105.586l5.813,5.629l0.25,10.683l-18.439-16.999
				l7.211-0.719L99.81,105.586L99.81,105.586z"/>
			<path fill="#5398AD" d="M106.928,124.231L85.12,104.125l9.609-0.958l5.592,1.521l6.293,6.093L106.928,124.231z M89.75,105.674
				l15.068,13.892l-0.186-7.917l-5.334-5.165l-4.738-1.289L89.75,105.674z"/>
			<path id="Fill-27" sketch:type="MSShapeGroup" fill="#71C1CE" d="M111.7,85.017c0,8.762,1.08,19.819-14.532,18.747
				c-8.742-0.599-15.262-10.103-15.262-18.865c0-8.763,5.167-15.748,13.929-15.748S111.7,76.254,111.7,85.017L111.7,85.017z"/>
			<path fill="#5398AD" d="M99.192,104.837c-0.667,0-1.371-0.025-2.093-0.074c-9.543-0.655-16.193-10.994-16.193-19.863
				c0-9.861,6.139-16.748,14.929-16.748c9.3,0,16.865,7.566,16.865,16.866c0,0.524,0.004,1.057,0.008,1.595
				c0.038,5.265,0.082,11.233-3.555,14.896C106.93,103.748,103.672,104.837,99.192,104.837z M95.835,70.151
				c-7.733,0-12.929,5.927-12.929,14.748c0,7.986,5.885,17.288,14.33,17.867c4.933,0.342,8.379-0.533,10.498-2.667
				c3.05-3.073,3.011-8.36,2.974-13.473c-0.004-0.543-0.008-1.081-0.008-1.61C110.7,76.82,104.031,70.151,95.835,70.151z"/>
			<path id="Fill-29" sketch:type="MSShapeGroup" fill="#71C1CE" d="M105.914,121.612v-11.5c0-1.269,0.322-6.05,0.905-6.895
				c1.751-2.534,4.195-5.406,9.039-5.468c10.638-0.134,14.606,16.147,14.606,21.223"/>
			<path fill="#5398AD" d="M106.914,121.612h-2v-11.5c0-0.059,0.148-6.11,1.082-7.463c1.992-2.881,4.72-5.834,9.851-5.899
				c3.051-0.029,5.831,1.148,8.239,3.525c5.215,5.149,7.379,14.719,7.379,18.698h-2c0-3.572-2.049-12.599-6.784-17.275
				c-2.014-1.988-4.304-2.973-6.809-2.948c-4.42,0.056-6.565,2.629-8.23,5.036c-0.356,0.644-0.728,4.749-0.728,6.326V121.612z"/>
			<path id="Fill-31" sketch:type="MSShapeGroup" fill="#7BCED6" d="M112.721,82.35c-3.097,4.919-13.237,7.84-19.35,8.257
				c-1.667,4.307-0.678,9.655-0.678,9.655s-0.574,6.84-8.077,5.677c-7.502-1.164-5.558-4.921-11.253-5.057
				c-5.697-0.136-4.614-3.749-4.669-4.443s0.779-3.474,5.086-3.474c4.306,0,3.751,1.667,6.807,2.64
				c3.057,0.972,2.098-3.4,1.57-5.203c-0.528-1.802-7.753-17.72,7.981-23.139C105.873,61.845,112.345,73.541,112.721,82.35
				L112.721,82.35z"/>
			<path fill="#5398AD" d="M86.256,107.072c-0.569,0-1.172-0.049-1.793-0.146c-4.175-0.647-5.711-2.106-6.945-3.277
				c-1.047-0.993-1.803-1.711-4.179-1.768c-2.192-0.053-3.78-0.607-4.719-1.65c-1.12-1.242-0.998-2.767-0.939-3.5
				c0.007-0.095,0.016-0.174,0.015-0.232c-0.053-0.664,0.277-1.77,1.139-2.702c0.772-0.836,2.256-1.832,4.945-1.832
				c2.96,0,3.986,0.775,4.978,1.525c0.567,0.429,1.103,0.834,2.133,1.162c0.59,0.187,0.621,0.083,0.653,0.041
				c0.296-0.395,0.272-1.899-0.346-4.011c-0.037-0.126-0.111-0.329-0.208-0.598c-0.879-2.437-3.557-9.85-0.55-16.132
				c1.675-3.5,4.829-6.069,9.375-7.634c2.763-0.952,5.391-1.434,7.809-1.434c7.396,0,15.588,5.452,16.099,17.424l0.014,0.312
				l-0.166,0.264c-3.222,5.118-13.08,8.084-19.472,8.669c-1.254,3.889-0.429,8.479-0.42,8.528l0.024,0.132l-0.012,0.134
				C93.493,102.672,91.688,107.071,86.256,107.072z M73.779,93.965c-1.502,0-2.68,0.385-3.404,1.114
				c-0.565,0.568-0.685,1.173-0.684,1.292c0.009,0.109,0.001,0.292-0.017,0.52c-0.044,0.557-0.112,1.399,0.431,2.001
				c0.549,0.609,1.684,0.951,3.282,0.989c3.146,0.075,4.346,1.215,5.507,2.316c1.14,1.082,2.318,2.2,5.875,2.752
				c0.52,0.081,1.02,0.122,1.487,0.122c4.565-0.001,5.324-4.023,5.426-4.782c-0.155-0.946-0.854-5.888,0.755-10.044l0.229-0.594
				l0.635-0.043c5.653-0.385,15.281-3.04,18.403-7.537c-0.434-7.377-4.982-15.189-14.084-15.189c-2.196,0-4.604,0.446-7.158,1.325
				c-4.02,1.385-6.786,3.607-8.221,6.607c-2.645,5.527-0.182,12.348,0.628,14.589c0.116,0.322,0.203,0.565,0.247,0.716
				c0.558,1.905,1.015,4.453,0.027,5.771c-0.418,0.558-1.03,0.852-1.77,0.852l0,0c-0.334,0-0.702-0.062-1.09-0.186
				c-1.357-0.432-2.12-1.009-2.733-1.473C76.69,94.436,76.068,93.965,73.779,93.965z"/>
			<path id="Fill-33" sketch:type="MSShapeGroup" fill="none" stroke="#5398AD" stroke-width="2" d="M0,0"/>
			<path id="Stroke-34" sketch:type="MSShapeGroup" fill="none" stroke="#5398AD" stroke-width="2" d="M0,0"/>
			<path id="Fill-35" sketch:type="MSShapeGroup" fill="#71C1CE" d="M102.537,93.28c0,1.936-1.221,3.504-2.728,3.504
				c-1.506,0-2.727-1.568-2.727-3.504c0-1.935,1.22-3.503,2.727-3.503C101.316,89.778,102.537,91.346,102.537,93.28L102.537,93.28z"
				/>
			<path fill="#5398AD" d="M99.81,97.784c-2.055,0-3.727-2.021-3.727-4.504c0-2.482,1.672-4.502,3.727-4.502
				c2.056,0,3.728,2.02,3.728,4.502C103.537,95.764,101.865,97.784,99.81,97.784z M99.81,90.778c-0.936,0-1.727,1.146-1.727,2.502
				c0,1.357,0.791,2.504,1.727,2.504c0.937,0,1.728-1.146,1.728-2.504C101.537,91.924,100.746,90.778,99.81,90.778z"/>
			<path id="Fill-37" sketch:type="MSShapeGroup" fill="#71C1CE" d="M110.614,89.671c0,1.756-1.109,3.181-2.477,3.181
				s-2.477-1.425-2.477-3.181c0-1.758,1.109-3.183,2.477-3.183S110.614,87.913,110.614,89.671L110.614,89.671z"/>
			<path fill="#5398AD" d="M108.138,93.852c-1.917,0-3.477-1.875-3.477-4.181s1.56-4.183,3.477-4.183s3.477,1.876,3.477,4.183
				C111.614,91.977,110.055,93.852,108.138,93.852z M108.138,87.488c-0.801,0-1.477,1-1.477,2.183c0,1.182,0.676,2.181,1.477,2.181
				s1.477-0.999,1.477-2.181C109.614,88.488,108.938,87.488,108.138,87.488z"/>
			<path id="Fill-39" sketch:type="MSShapeGroup" fill="#7BCED6" d="M106.422,96.926c-1.139,0.449-2.327,0-2.327,0
				s-2.703-0.554-5.263,1.344c-2.603,1.93-1.144,4.065-5.573,4.571c-4.53,0.517-5.783-3.527-5.783-3.527s-0.87,6.564,5.501,7.31
				c6.372,0.746,12.275-3.616,12.854-6.83c0.578-3.214,3.285-1.944,3.907-1.885c0.367,0.035,4.151-1.905,5.923-5.012
				c1.231-2.16,0.789-4.381-0.192-6.383c-0.85,3.118-2.175,3.534-4.185,5.056c-1.554,1.175-2.251,3.467-3.499,3.403
				C107.786,94.971,107.655,96.439,106.422,96.926L106.422,96.926z"/>
			<path fill="#5398AD" d="M94.431,107.707c-0.525,0-1.054-0.03-1.57-0.091c-2.12-0.248-3.762-1.103-4.879-2.538
				c-1.925-2.474-1.516-5.758-1.497-5.896l1.946-0.164c0.039,0.119,1.115,3.235,4.714,2.829c2.21-0.252,2.505-0.816,3.04-1.84
				c0.389-0.743,0.872-1.667,2.051-2.541c1.802-1.335,3.659-1.616,4.9-1.616c0.674,0,1.112,0.086,1.159,0.096l0.153,0.044l0,0
				c0,0,1.006,0.242,1.606,0.005c0.633-0.25,0.735-1.115,0.736-1.124l0.104-0.937l0.942,0.038c0.21-0.042,0.711-0.737,1.011-1.153
				c0.493-0.684,1.053-1.458,1.832-2.048c0.352-0.266,0.684-0.5,0.995-0.72c1.43-1.007,2.217-1.562,2.828-3.802l0.697-2.556
				l1.166,2.379c1.328,2.713,1.383,5.175,0.162,7.317c-1.875,3.29-5.875,5.518-6.781,5.518l-0.104-0.005
				c-0.127-0.012-0.317-0.054-0.55-0.113c-0.312-0.08-0.701-0.179-1.071-0.179c-0.36,0-0.964,0-1.208,1.358
				C106.171,103.548,100.621,107.707,94.431,107.707z M88.96,102.827c0.154,0.357,0.354,0.708,0.607,1.033
				c0.776,0.991,1.962,1.587,3.525,1.77c0.439,0.052,0.89,0.077,1.338,0.077c5.406,0,9.974-3.639,10.415-6.092
				c0.11-0.61,0.288-1.099,0.509-1.49c-0.75,0.02-1.276-0.152-1.508-0.227c-0.101-0.015-0.355-0.047-0.711-0.047
				c-0.939,0-2.346,0.212-3.709,1.223c-0.811,0.601-1.131,1.212-1.47,1.86c-0.774,1.48-1.557,2.555-4.586,2.899
				c-0.312,0.036-0.609,0.053-0.895,0.053l0,0C91.027,103.886,89.864,103.448,88.96,102.827z M108.246,96.617
				c0.533,0.028,1.012,0.151,1.343,0.235c0.042,0.01,0.081,0.021,0.117,0.03c0.78-0.315,3.663-1.987,5.085-4.483
				c0.544-0.954,0.732-1.964,0.564-3.088c-0.712,1.095-1.579,1.706-2.528,2.375c-0.294,0.208-0.607,0.428-0.939,0.679
				c-0.541,0.409-0.986,1.026-1.417,1.624c-0.536,0.743-1.087,1.506-1.852,1.826C108.533,96.075,108.412,96.351,108.246,96.617z"/>
			<path id="Fill-41" sketch:type="MSShapeGroup" fill="#71C1CE" d="M104.295,88.12l1.849,4.359c0,0,1.827,0.318,1.734,2.284
				c-0.093,1.966-3.269,3.412-4.512,0.564"/>
			<path fill="#5398AD" d="M105.498,97.923c-1.094,0-2.339-0.568-3.05-2.196l1.834-0.8c0.228,0.523,0.658,1.117,1.421,0.978
				c0.612-0.113,1.15-0.657,1.175-1.188c0.051-1.054-0.808-1.234-0.906-1.251l-0.536-0.094l-2.062-4.86l1.842-0.781l1.665,3.927
				c0.932,0.368,2.083,1.307,1.995,3.154c-0.068,1.461-1.276,2.777-2.81,3.06C105.884,97.905,105.693,97.923,105.498,97.923z"/>
			<path id="Fill-43" sketch:type="MSShapeGroup" fill="#7BCED6" d="M102.285,94.359c0,1.195-0.692,2.165-1.546,2.165
				s-1.545-0.969-1.545-2.165s0.692-2.166,1.545-2.166C101.593,92.193,102.285,93.163,102.285,94.359L102.285,94.359z"/>
			<path fill="#5398AD" d="M100.738,97.524c-1.427,0-2.545-1.39-2.545-3.165s1.118-3.166,2.545-3.166
				c1.428,0,2.547,1.391,2.547,3.166S102.166,97.524,100.738,97.524z M100.738,93.193c-0.188,0-0.545,0.454-0.545,1.166
				s0.357,1.165,0.545,1.165s0.547-0.454,0.547-1.165S100.926,93.193,100.738,93.193z"/>
			<path id="Fill-45" sketch:type="MSShapeGroup" fill="#7BCED6" d="M110.429,91.078c0,1.205-0.698,2.182-1.558,2.182
				c-0.861,0-1.558-0.977-1.558-2.182s0.697-2.182,1.558-2.182C109.731,88.896,110.429,89.873,110.429,91.078L110.429,91.078z"/>
			<path fill="#5398AD" d="M108.871,94.26c-1.435,0-2.558-1.398-2.558-3.182c0-1.785,1.123-3.183,2.558-3.183
				s2.558,1.398,2.558,3.183C111.429,92.862,110.306,94.26,108.871,94.26z M108.871,89.896c-0.191,0-0.558,0.46-0.558,1.183
				c0,0.722,0.366,1.182,0.558,1.182s0.558-0.46,0.558-1.182C109.429,90.356,109.062,89.896,108.871,89.896z"/>
			<path id="Fill-47" sketch:type="MSShapeGroup" fill="#71C1CE" d="M102.537,91.915c-0.001,0,1.396-1.663,3.086-1.25"/>
			<path fill="#5398AD" d="M103.303,92.559l-0.756-0.648l-0.01,0.004l-0.775-0.632c0.018-0.021,1.781-2.155,4.099-1.59l-0.475,1.943
				C104.348,91.378,103.312,92.547,103.303,92.559z"/>
			<path id="Fill-49" sketch:type="MSShapeGroup" fill="#71C1CE" d="M114.028,95.005c0,0,3.489,2.406,5.403,3.372"/>
			<path fill="#5398AD" d="M118.981,99.27c-1.954-0.985-5.376-3.342-5.521-3.441l1.135-1.646c0.035,0.024,3.455,2.378,5.286,3.303
				L118.981,99.27z"/>
			<path id="Fill-51" sketch:type="MSShapeGroup" fill="#7BCED6" d="M119.403,41.174c0,6.676-5.412,12.09-12.09,12.09
				s-12.09-5.413-12.09-12.09s5.413-12.09,12.09-12.09S119.403,34.496,119.403,41.174L119.403,41.174z"/>
			<path fill="#5398AD" d="M107.313,54.263c-7.219,0-13.091-5.872-13.091-13.09s5.872-13.09,13.091-13.09
				c7.217,0,13.089,5.872,13.089,13.09S114.53,54.263,107.313,54.263z M107.313,30.083c-6.115,0-11.091,4.975-11.091,11.09
				s4.976,11.09,11.091,11.09c6.114,0,11.089-4.975,11.089-11.09S113.428,30.083,107.313,30.083z"/>
			<path id="Fill-53" sketch:type="MSShapeGroup" fill="#7BCED6" d="M102.894,55.17l7.991,0.692c0,0,4.299-2.26,1.836-4.337
				c-2.27-1.915-4.771-0.526-6.369-0.04c-2.426-1.485-4.653,0.446-4.653,0.446s-0.348,0.301-0.453,0.797"/>
			<path fill="#5398AD" d="M111.091,56.884l-8.282-0.717l0.172-1.992l7.683,0.665c0.771-0.461,1.752-1.275,1.816-1.875
				c0.008-0.076,0.033-0.307-0.403-0.675c-1.378-1.16-2.774-0.787-4.597-0.133c-0.299,0.107-0.579,0.208-0.837,0.286l-0.43,0.13
				l-0.383-0.234c-1.779-1.09-3.459,0.333-3.476,0.349c-0.015,0.016-0.104,0.124-0.13,0.248l-1.957-0.412
				c0.166-0.787,0.678-1.261,0.778-1.348c0.903-0.783,3.13-1.881,5.404-0.774c0.114-0.04,0.231-0.083,0.354-0.126
				c1.67-0.6,4.197-1.507,6.562,0.487c1.034,0.873,1.17,1.798,1.103,2.421c-0.212,1.945-2.634,3.312-3.118,3.566L111.091,56.884z"/>
			<path id="Fill-55" sketch:type="MSShapeGroup" fill="none" stroke="#5398AD" stroke-width="2" d="M0,0"/>
			<path id="Stroke-56" sketch:type="MSShapeGroup" fill="none" stroke="#5398AD" stroke-width="2" d="M0,0"/>
			<path id="Fill-57" sketch:type="MSShapeGroup" fill="#71C1CE" d="M100.882,54.825l3.708,0.523"/>
			
				<rect x="100.863" y="54.083" transform="matrix(-0.9902 -0.1395 0.1395 -0.9902 196.783 123.9588)" fill="#5398AD" width="3.745" height="2"/>
			<path id="Fill-59" sketch:type="MSShapeGroup" fill="#7FD2DB" d="M61.507,7.035c0,1.018-0.825,1.843-1.844,1.843
				c-1.018,0-1.843-0.825-1.843-1.843c0-1.019,0.825-1.844,1.843-1.844C60.682,5.191,61.507,6.016,61.507,7.035L61.507,7.035z"/>
			<path fill="#5398AD" d="M59.664,9.878c-1.568,0-2.843-1.275-2.843-2.843s1.275-2.844,2.843-2.844s2.844,1.276,2.844,2.844
				S61.231,9.878,59.664,9.878z M59.664,6.191c-0.465,0-0.843,0.378-0.843,0.844c0,0.465,0.378,0.843,0.843,0.843
				s0.844-0.378,0.844-0.843C60.507,6.569,60.129,6.191,59.664,6.191z"/>
			<path id="Fill-61" sketch:type="MSShapeGroup" fill="#71C1CE" d="M58.43,3.139l-0.559-2.682"/>
			<path fill="#5398AD" d="M58.43,4.139c-0.464,0-0.88-0.324-0.978-0.796l-0.559-2.682c-0.113-0.541,0.234-1.07,0.775-1.183
				s1.07,0.235,1.183,0.775l0.559,2.682c0.113,0.541-0.234,1.07-0.775,1.183C58.566,4.132,58.497,4.139,58.43,4.139z"/>
			<path id="Fill-63" sketch:type="MSShapeGroup" fill="#71C1CE" d="M55.297,5.668L52.695,4.81"/>
			<path fill="#5398AD" d="M55.297,6.668c-0.104,0-0.209-0.017-0.313-0.051l-2.602-0.858c-0.525-0.173-0.81-0.738-0.637-1.263
				s0.735-0.81,1.263-0.637l2.602,0.858c0.525,0.173,0.81,0.738,0.637,1.263C56.108,6.401,55.717,6.668,55.297,6.668z"/>
			<path id="Fill-65" sketch:type="MSShapeGroup" fill="#71C1CE" d="M56.23,10.146l-2.043,1.825"/>
			<path fill="#5398AD" d="M54.187,12.97c-0.275,0-0.549-0.113-0.747-0.334c-0.368-0.412-0.332-1.044,0.08-1.412l2.043-1.825
				c0.413-0.367,1.044-0.332,1.412,0.08s0.332,1.044-0.08,1.412l-2.043,1.825C54.662,12.886,54.424,12.97,54.187,12.97z"/>
			<path id="Fill-67" sketch:type="MSShapeGroup" fill="#71C1CE" d="M63.987,8.53l2.602,0.857"/>
			<path fill="#5398AD" d="M66.589,10.388c-0.104,0-0.209-0.017-0.313-0.051L63.674,9.48c-0.524-0.173-0.81-0.738-0.637-1.263
				c0.173-0.524,0.737-0.81,1.263-0.637l2.602,0.857c0.524,0.173,0.81,0.738,0.637,1.263C67.4,10.121,67.009,10.388,66.589,10.388z"
				/>
			<path id="Fill-69" sketch:type="MSShapeGroup" fill="#71C1CE" d="M63.054,4.051l2.043-1.824"/>
			<path fill="#5398AD" d="M63.055,5.051c-0.275,0-0.549-0.113-0.747-0.334c-0.368-0.412-0.332-1.044,0.08-1.412l2.043-1.824
				c0.412-0.369,1.043-0.332,1.412,0.08c0.368,0.412,0.332,1.044-0.08,1.412L63.72,4.797C63.529,4.967,63.292,5.051,63.055,5.051z"
				/>
			<path id="Fill-71" sketch:type="MSShapeGroup" fill="#71C1CE" d="M146.434,166.379c1.597,2.242,0.448,5.8-2.568,7.949
				c-3.015,2.148-6.755,2.073-8.352-0.168c-1.597-2.242-0.447-5.8,2.568-7.949C141.098,164.062,144.837,164.137,146.434,166.379
				L146.434,166.379z"/>
			<path fill="#5398AD" d="M139.284,176.891c-1.939,0-3.61-0.784-4.584-2.151c-1.914-2.686-0.658-6.877,2.802-9.344
				c1.584-1.128,3.417-1.748,5.162-1.748c1.939,0,3.61,0.784,4.585,2.151c1.914,2.687,0.657,6.878-2.803,9.344
				C142.863,176.271,141.03,176.891,139.284,176.891z M142.664,165.647c-1.333,0-2.754,0.489-4.002,1.377
				c-2.561,1.826-3.607,4.767-2.333,6.555c0.603,0.846,1.652,1.312,2.955,1.312c1.333,0,2.755-0.489,4.002-1.377
				c2.562-1.825,3.608-4.766,2.334-6.555C145.018,166.113,143.968,165.647,142.664,165.647z"/>
			<path fill="#5398AD" d="M114.028,37.818c-0.407,0-0.791-0.251-0.939-0.657c-1.184-3.233-4.891-3.64-5.048-3.656
				c-0.548-0.055-0.95-0.543-0.896-1.091c0.053-0.548,0.546-0.95,1.086-0.899c0.208,0.02,5.113,0.527,6.737,4.959
				c0.189,0.519-0.077,1.093-0.596,1.283C114.259,37.798,114.143,37.818,114.028,37.818z"/>
			<path id="Fill-74" sketch:type="MSShapeGroup" fill="#5398AD" d="M115.299,39.022c0-0.403-0.327-0.729-0.729-0.729
				c-0.403,0-0.73,0.327-0.73,0.729c0,0.403,0.327,0.729,0.73,0.729C114.972,39.751,115.299,39.425,115.299,39.022"/>
			<path fill="#5398AD" d="M98.337,89.244c-0.004-0.106-0.48-10.64-6.185-14.975c-2.369-1.8-5.378-2.287-8.941-1.445l-0.46-1.946
				c4.175-0.988,7.747-0.38,10.617,1.803c6.455,4.911,6.949,16.016,6.967,16.486L98.337,89.244z M107.744,86.022
				c-0.36-7.976-2.424-13.769-5.969-16.753c-3.115-2.621-6.288-2.253-6.422-2.236l-0.267-1.982c0.166-0.022,4.121-0.524,7.928,2.647
				c4.071,3.392,6.335,9.526,6.728,18.234L107.744,86.022z"/>
			<path id="Fill-76" sketch:type="MSShapeGroup" fill="#71C1CE" d="M74.095,97.118c0,0.694-0.562,1.255-1.255,1.255
				c-0.694,0-1.256-0.562-1.256-1.255c0-0.694,0.562-1.256,1.256-1.256C73.533,95.862,74.095,96.424,74.095,97.118L74.095,97.118z"
				/>
			<path fill="#5398AD" d="M72.84,99.374c-1.244,0-2.256-1.012-2.256-2.256c0-1.244,1.012-2.256,2.256-2.256
				c1.244,0,2.255,1.012,2.255,2.256C75.095,98.362,74.083,99.374,72.84,99.374z M72.84,96.862c-0.141,0-0.256,0.115-0.256,0.256
				c0,0.281,0.512,0.282,0.512,0C73.095,96.977,72.98,96.862,72.84,96.862z"/>
			<path id="Fill-78" sketch:type="MSShapeGroup" fill="#71C1CE" d="M82.602,94.719l2.355,1.971"/>
			<path fill="#5398AD" d="M84.957,97.69c-0.227,0-0.454-0.077-0.642-0.233l-2.355-1.971c-0.423-0.354-0.479-0.985-0.125-1.409
				c0.354-0.423,0.984-0.479,1.409-0.125l2.355,1.971c0.423,0.354,0.479,0.985,0.125,1.409C85.526,97.568,85.242,97.69,84.957,97.69
				z"/>
			<path fill="#5398AD" d="M128.353,197.473c-6.244,0-11.686-1.634-15.619-4.743c-0.434-0.342-0.507-0.971-0.164-1.404
				c0.342-0.433,0.97-0.507,1.404-0.164c4.424,3.496,11.03,4.939,18.594,4.062c0.552-0.067,1.045,0.329,1.108,0.878
				s-0.329,1.045-0.878,1.108C131.279,197.385,129.795,197.473,128.353,197.473z M142.874,194.783c-0.41,0-0.795-0.254-0.941-0.662
				c-0.187-0.52,0.084-1.093,0.604-1.279c3.468-1.244,6.878-2.902,10.137-4.928c4.945-3.073,9.36-6.911,12.767-11.1
				c0.348-0.428,0.978-0.494,1.406-0.145c0.429,0.348,0.493,0.978,0.145,1.406c-3.544,4.358-8.13,8.348-13.262,11.537
				c-3.378,2.1-6.917,3.819-10.517,5.111C143.101,194.765,142.986,194.783,142.874,194.783z M109.648,188.814
				c-0.335,0-0.661-0.168-0.851-0.473c-0.535-0.862-0.995-1.778-1.367-2.724c-2.475-6.293-1.162-14.319,3.602-22.023
				c0.291-0.469,0.906-0.614,1.377-0.324c0.47,0.29,0.614,0.907,0.324,1.377c-4.429,7.162-5.683,14.538-3.441,20.238
				c0.328,0.834,0.733,1.642,1.205,2.401c0.291,0.469,0.147,1.086-0.322,1.377C110.011,188.766,109.828,188.814,109.648,188.814z
				 M168.813,174.901c-0.188,0-0.379-0.053-0.548-0.164c-0.462-0.303-0.59-0.923-0.287-1.385c4.204-6.404,5.899-12.988,4.772-18.54
				c-0.109-0.542,0.24-1.069,0.781-1.18c0.549-0.103,1.069,0.241,1.18,0.781c1.231,6.073-0.565,13.188-5.062,20.036
				C169.458,174.742,169.139,174.901,168.813,174.901z M113.357,162.902c-0.2,0-0.401-0.06-0.577-0.185
				c-0.451-0.319-0.557-0.943-0.237-1.394c0.151-0.214,0.306-0.425,0.462-0.637c0.326-0.442,0.954-0.539,1.398-0.209
				c0.444,0.328,0.538,0.954,0.209,1.398c-0.148,0.2-0.295,0.401-0.438,0.604C113.979,162.756,113.671,162.902,113.357,162.902z
				 M118.854,156.528c-0.261,0-0.521-0.102-0.717-0.303c-0.385-0.396-0.376-1.029,0.02-1.414c2.792-2.716,5.953-5.178,9.395-7.318
				c2.623-1.63,5.361-3.04,8.139-4.191c0.508-0.211,1.096,0.03,1.307,0.541c0.212,0.51-0.03,1.095-0.541,1.307
				c-2.677,1.109-5.317,2.47-7.848,4.043c-3.32,2.064-6.367,4.438-9.057,7.053C119.357,156.435,119.105,156.528,118.854,156.528z
				 M171.635,150.293c-0.334,0-0.661-0.167-0.851-0.472c-0.502-0.809-1.086-1.572-1.733-2.27c-0.376-0.404-0.353-1.037,0.052-1.413
				s1.037-0.353,1.413,0.052c0.735,0.791,1.397,1.657,1.968,2.574c0.291,0.469,0.147,1.086-0.321,1.378
				C171.997,150.244,171.815,150.293,171.635,150.293z M167.928,146.162c-0.217,0-0.436-0.07-0.62-0.216l-0.139-0.108l0.548-0.841
				l0.614-0.789l0.219,0.17c0.433,0.343,0.506,0.972,0.163,1.405C168.516,146.032,168.223,146.162,167.928,146.162z
				 M164.485,144.024c-0.146,0-0.293-0.031-0.434-0.1c-5.279-2.543-12.357-2.985-19.931-1.243c-0.542,0.126-1.075-0.212-1.199-0.75
				s0.212-1.075,0.75-1.199c8.014-1.844,15.56-1.351,21.249,1.392c0.497,0.239,0.706,0.837,0.466,1.335
				C165.215,143.816,164.857,144.024,164.485,144.024z"/>
			<path fill="#5398AD" d="M142.593,194.783c-0.291,0-0.578-0.126-0.776-0.368l-3.001-3.683c-0.349-0.429-0.284-1.059,0.144-1.407
				c0.43-0.35,1.059-0.282,1.407,0.144l3.001,3.683c0.349,0.429,0.284,1.059-0.144,1.407
				C143.038,194.71,142.814,194.783,142.593,194.783z M12.825,165.578c-0.29,0-0.578-0.126-0.776-0.368l-6.002-7.364
				c-0.349-0.428-0.285-1.058,0.144-1.407s1.058-0.283,1.407,0.144l6.002,7.364c0.349,0.428,0.285,1.058-0.144,1.407
				C13.271,165.505,13.047,165.578,12.825,165.578z M12.409,159.866c-0.29,0-0.578-0.126-0.775-0.368l-12.235-15.011
				c-0.349-0.428-0.285-1.058,0.144-1.407c0.428-0.349,1.059-0.284,1.407,0.144l12.235,15.011c0.349,0.428,0.285,1.058-0.144,1.407
				C12.855,159.793,12.631,159.866,12.409,159.866z M118.725,156.459c-0.291,0-0.578-0.126-0.776-0.368l-6.003-7.364
				c-0.349-0.428-0.284-1.058,0.144-1.407c0.43-0.349,1.059-0.282,1.407,0.144l6.003,7.364c0.349,0.428,0.284,1.058-0.144,1.407
				C119.17,156.386,118.946,156.459,118.725,156.459z M22.653,143.385c-0.29,0-0.578-0.126-0.775-0.368l-5.082-6.234
				c-0.349-0.428-0.285-1.058,0.143-1.407c0.429-0.349,1.059-0.284,1.407,0.144l5.082,6.234c0.349,0.428,0.285,1.058-0.143,1.407
				C23.099,143.312,22.875,143.385,22.653,143.385z M143.977,142.829c-0.291,0-0.578-0.126-0.776-0.368l-7.902-9.694
				c-0.349-0.428-0.284-1.058,0.144-1.407c0.43-0.35,1.059-0.282,1.407,0.144l7.902,9.694c0.349,0.428,0.284,1.058-0.144,1.407
				C144.422,142.756,144.198,142.829,143.977,142.829z M15.706,135.189c-0.29,0-0.578-0.126-0.776-0.368l-1.059-1.3
				c-0.349-0.429-0.284-1.059,0.144-1.407c0.429-0.349,1.058-0.284,1.407,0.144l1.059,1.3c0.349,0.429,0.284,1.059-0.144,1.407
				C16.151,135.116,15.928,135.189,15.706,135.189z M36.699,128.02c-0.29,0-0.578-0.126-0.775-0.368l-4.135-5.073
				c-0.349-0.428-0.285-1.058,0.143-1.407c0.429-0.348,1.059-0.284,1.407,0.144l4.135,5.073c0.349,0.428,0.285,1.058-0.143,1.407
				C37.145,127.946,36.921,128.02,36.699,128.02z M38.607,126.038c-0.29,0-0.578-0.126-0.775-0.368l-14.155-17.366
				c-0.349-0.428-0.285-1.058,0.143-1.407c0.429-0.348,1.059-0.284,1.407,0.144l14.155,17.366c0.349,0.428,0.285,1.058-0.143,1.407
				C39.053,125.965,38.83,126.038,38.607,126.038z M131.106,72.958c-0.218,0-0.438-0.071-0.622-0.218l-3.523-2.807
				c-0.432-0.344-0.503-0.973-0.159-1.405c0.343-0.432,0.972-0.503,1.405-0.159l3.523,2.807c0.432,0.344,0.503,0.973,0.159,1.405
				C131.692,72.829,131.4,72.958,131.106,72.958z M25.464,70.954c-0.263,0-0.526-0.104-0.723-0.309l-5.599-5.85
				c-0.382-0.399-0.368-1.032,0.031-1.414c0.399-0.381,1.031-0.367,1.414,0.031l5.599,5.85c0.382,0.399,0.368,1.032-0.031,1.414
				C25.961,70.862,25.712,70.954,25.464,70.954z M140.945,70.355c-0.218,0-0.438-0.071-0.622-0.218l-6.884-5.481
				c-0.432-0.344-0.503-0.973-0.159-1.405c0.343-0.432,0.972-0.504,1.405-0.159l6.884,5.481c0.432,0.344,0.503,0.973,0.159,1.405
				C141.531,70.227,141.239,70.355,140.945,70.355z M145.171,69.384c-0.22,0-0.44-0.072-0.625-0.22l-19.853-15.942
				c-0.431-0.346-0.5-0.975-0.153-1.406c0.346-0.43,0.975-0.5,1.405-0.154l19.853,15.942c0.431,0.346,0.5,0.975,0.153,1.406
				C145.754,69.256,145.464,69.384,145.171,69.384z M173.011,67.86c-0.218,0-0.438-0.071-0.622-0.218l-18.468-14.706
				c-0.432-0.344-0.503-0.973-0.159-1.405c0.343-0.431,0.971-0.504,1.405-0.159l18.468,14.706c0.432,0.344,0.503,0.973,0.159,1.405
				C173.597,67.731,173.306,67.86,173.011,67.86z M154.888,66.782c-0.218,0-0.438-0.071-0.622-0.218l-4.793-3.817
				c-0.432-0.344-0.503-0.973-0.159-1.405c0.343-0.432,0.972-0.504,1.405-0.159L155.512,65c0.432,0.344,0.503,0.973,0.159,1.405
				C155.474,66.653,155.182,66.782,154.888,66.782z M38.28,52.396c-0.263,0-0.526-0.104-0.723-0.309l-2.712-2.833
				c-0.382-0.399-0.368-1.032,0.031-1.414c0.399-0.381,1.031-0.367,1.414,0.031l2.712,2.833c0.382,0.399,0.368,1.032-0.031,1.414
				C38.778,52.304,38.529,52.396,38.28,52.396z M41.407,51.564c-0.263,0-0.526-0.104-0.722-0.309L29.53,39.604
				c-0.382-0.399-0.368-1.032,0.031-1.414s1.032-0.368,1.414,0.031l11.154,11.652c0.382,0.399,0.368,1.032-0.031,1.414
				C41.904,51.472,41.655,51.564,41.407,51.564z M152.491,51.542c-0.218,0-0.438-0.071-0.622-0.218l-2.238-1.782
				c-0.432-0.344-0.503-0.973-0.159-1.405c0.343-0.432,0.97-0.504,1.405-0.159l2.238,1.782c0.432,0.344,0.503,0.973,0.159,1.405
				C153.077,51.413,152.786,51.542,152.491,51.542z M75.769,46.541c-0.245,0-0.49-0.089-0.683-0.269l-5.442-5.082
				c-0.403-0.377-0.425-1.01-0.048-1.414c0.377-0.404,1.01-0.425,1.414-0.048l5.442,5.082c0.403,0.377,0.425,1.01,0.048,1.414
				C76.303,46.434,76.036,46.541,75.769,46.541z"/>
			<path id="Fill-83" sketch:type="MSShapeGroup" fill="#71C1CE" d="M106.612,103.992c0,0,6.999,5.694,6.791,23.872"/>
			<path fill="#5398AD" d="M113.403,128.864c-0.004,0-0.008,0-0.012,0c-0.552-0.007-0.994-0.459-0.988-1.012
				c0.198-17.364-6.36-23.033-6.427-23.089c-0.423-0.352-0.483-0.98-0.134-1.405c0.352-0.425,0.977-0.487,1.4-0.142
				c0.302,0.245,7.37,6.211,7.16,24.659C114.397,128.424,113.95,128.864,113.403,128.864z"/>
		</g>
	</g>
</g>
</svg>
