<?xml version="1.0" encoding="utf-8"?>
<!-- Generator: Adobe Illustrator 17.0.2, SVG Export Plug-In . SVG Version: 6.00 Build 0)  -->
<!DOCTYPE svg PUBLIC "-//W3C//DTD SVG 1.1//EN" "http://www.w3.org/Graphics/SVG/1.1/DTD/svg11.dtd">
<svg version="1.1" id="Calque_1" xmlns="http://www.w3.org/2000/svg" xmlns:xlink="http://www.w3.org/1999/xlink" x="0px" y="0px"
	 width="256px" height="256px" viewBox="0 0 256 256" enable-background="new 0 0 256 256" xml:space="preserve">
<g>
	<path fill="#FFFFFF" d="M128.001,3.16C57.317,3.16,0,60.466,0,131.161c0,56.554,36.676,104.534,87.535,121.46
		c6.397,1.185,8.746-2.777,8.746-6.158c0-3.052-0.119-13.135-0.174-23.831c-35.61,7.743-43.124-15.102-43.124-15.102
		C47.16,192.734,38.77,188.8,38.77,188.8c-11.614-7.944,0.875-7.781,0.875-7.781c12.854,0.903,19.622,13.191,19.622,13.191
		c11.416,19.569,29.944,13.911,37.249,10.641c1.149-8.273,4.466-13.92,8.127-17.116c-28.431-3.237-58.318-14.212-58.318-63.259
		c0-13.975,5-25.393,13.188-34.357c-1.329-3.224-5.71-16.243,1.24-33.874c0,0,10.749-3.44,35.209,13.121
		c10.21-2.836,21.16-4.258,32.038-4.307c10.878,0.049,21.837,1.471,32.066,4.307c24.431-16.561,35.165-13.121,35.165-13.121
		c6.967,17.631,2.584,30.65,1.255,33.874c8.207,8.964,13.174,20.382,13.174,34.357c0,49.163-29.944,59.988-58.447,63.157
		c4.591,3.972,8.682,11.762,8.682,23.704c0,17.127-0.148,30.911-0.148,35.127c0,3.406,2.304,7.398,8.792,6.141
		C219.37,235.659,256,187.696,256,131.161C256,60.466,198.691,3.16,128.001,3.16z M47.941,185.5
		c-0.282,0.636-1.282,0.827-2.194,0.39c-0.928-0.418-1.45-1.285-1.149-1.923c0.276-0.655,1.278-0.837,2.204-0.398
		C47.733,183.986,48.263,184.862,47.941,185.5z M54.237,191.118c-0.61,0.566-1.804,0.303-2.614-0.591
		c-0.837-0.892-0.994-2.086-0.375-2.66c0.63-0.566,1.787-0.301,2.626,0.591C54.712,189.361,54.875,190.546,54.237,191.118z
		 M58.556,198.306c-0.784,0.545-2.067,0.034-2.859-1.104c-0.784-1.138-0.784-2.503,0.017-3.05c0.795-0.547,2.058-0.055,2.862,1.075
		C59.358,196.383,59.358,197.748,58.556,198.306z M65.861,206.631c-0.702,0.774-2.196,0.566-3.29-0.49
		c-1.119-1.032-1.431-2.497-0.727-3.271c0.71-0.776,2.213-0.557,3.315,0.49C66.271,204.39,66.61,205.866,65.861,206.631z
		 M75.303,209.441c-0.309,1.003-1.749,1.458-3.199,1.032c-1.448-0.439-2.395-1.613-2.103-2.626c0.301-1.009,1.747-1.484,3.207-1.028
		C74.654,207.256,75.604,208.422,75.303,209.441z M86.047,210.633c0.036,1.056-1.193,1.931-2.715,1.95
		c-1.53,0.034-2.768-0.82-2.785-1.859c0-1.066,1.202-1.933,2.732-1.959C84.801,208.736,86.047,209.584,86.047,210.633z
		 M96.602,210.229c0.182,1.03-0.875,2.088-2.387,2.37c-1.486,0.271-2.862-0.365-3.05-1.386c-0.184-1.056,0.892-2.113,2.376-2.387
		C95.055,208.563,96.409,209.181,96.602,210.229z"/>
</g>
</svg>
