<?xml version="1.0" encoding="utf-8"?>
<!-- Generator: Adobe Illustrator 17.0.2, SVG Export Plug-In . SVG Version: 6.00 Build 0)  -->
<!DOCTYPE svg PUBLIC "-//W3C//DTD SVG 1.1//EN" "http://www.w3.org/Graphics/SVG/1.1/DTD/svg11.dtd">
<svg version="1.1" id="Calque_1" xmlns="http://www.w3.org/2000/svg" xmlns:xlink="http://www.w3.org/1999/xlink" x="0px" y="0px"
	 width="256px" height="256px" viewBox="0 0 256 256" enable-background="new 0 0 256 256" xml:space="preserve">
<g>
	<path fill="#FFFFFF" d="M247.776,66.865c-1.054-2.741-4.217-4.007-6.748-2.952c-1.898,0.843-3.163,2.741-3.163,4.639
		c0,0.633,0,1.265,0.422,1.687c4.85,12.863,7.591,26.781,7.591,41.542c0,59.677-44.494,109.232-102.273,116.613v-55.038
		c3.585-0.633,6.959-1.687,10.333-2.741v46.181c47.025-11.387,82.241-53.984,82.241-105.015c0-40.699-22.563-76.336-55.881-94.682
		c-2.53-1.476-5.694-0.422-6.959,2.32c-0.422,0.633-0.422,1.476-0.422,2.32c0,1.898,1.054,3.585,2.53,4.428
		c30.155,16.659,50.61,48.923,50.61,85.825c0,41.542-25.727,76.969-62.208,91.308V162.39c6.326-1.898,10.965-7.802,10.965-14.972
		c0-5.904-2.952-10.755-7.802-13.496c3.585-35.427,19.822-25.937,19.822-37.325v-6.537c0-16.87-39.012-71.908-57.357-73.173h-3.374
		c-18.346,1.265-57.357,56.303-57.357,73.173v6.537c0,11.176,16.026,1.898,19.822,37.325c-4.639,2.741-7.591,7.802-7.591,13.496
		c0,6.959,4.639,12.863,10.965,14.972V203.3c-36.27-14.339-62.208-49.766-62.208-91.308c0-36.903,20.455-69.166,50.61-85.825
		c2.32-1.265,3.374-4.217,2.109-6.748c-0.633-1.898-2.53-2.952-4.428-2.952c-0.843,0-1.687,0.211-2.53,0.633
		c-33.318,18.346-55.881,53.984-55.881,94.682c0,51.031,35.216,93.628,82.662,105.226v-46.181c3.374,1.054,6.748,2.109,10.333,2.741
		v55.038c-57.779-7.591-102.273-56.936-102.273-116.824c0-14.55,2.741-28.468,7.591-41.542c1.054-2.53-0.211-5.483-2.741-6.537
		c-0.633-0.211-1.265-0.422-1.898-0.422c-2.109,0-4.007,1.265-4.85,3.374C2.952,80.782,0,95.965,0,111.781
		c0,68.956,54.405,125.048,122.728,127.789v-64.738c1.898,0.211,5.272,0.211,5.272,0.211s3.374,0,5.272-0.211v64.738
		C201.595,236.828,256,180.736,256,111.781C255.789,95.965,253.048,80.782,247.776,66.865L247.776,66.865z M151.618,139.827
		c1.898-1.898,4.428-3.163,7.381-3.163s5.483,1.265,7.381,3.163s3.163,4.428,3.163,7.381s-1.265,5.483-3.163,7.381
		s-4.428,3.163-7.381,3.163s-5.483-1.265-7.381-3.163s-3.163-4.428-3.163-7.381S149.72,141.725,151.618,139.827L151.618,139.827z
		 M104.382,154.588c-1.898,1.898-4.428,3.163-7.381,3.163s-5.483-1.265-7.381-3.163c-2.109-1.898-3.163-4.428-3.163-7.381
		s1.265-5.483,3.163-7.381s4.428-3.163,7.381-3.163s5.483,1.265,7.381,3.163s3.163,4.428,3.163,7.381
		C107.334,150.16,106.28,152.69,104.382,154.588L104.382,154.588z"/>
</g>
</svg>
