<?xml version="1.0" encoding="utf-8"?>
<!-- Generator: Adobe Illustrator 17.0.2, SVG Export Plug-In . SVG Version: 6.00 Build 0)  -->
<!DOCTYPE svg PUBLIC "-//W3C//DTD SVG 1.1//EN" "http://www.w3.org/Graphics/SVG/1.1/DTD/svg11.dtd">
<svg version="1.1" id="Calque_1" xmlns="http://www.w3.org/2000/svg" xmlns:xlink="http://www.w3.org/1999/xlink" x="0px" y="0px"
	 width="256px" height="256px" viewBox="0 0 256 256" enable-background="new 0 0 256 256" xml:space="preserve">
<path fill="#FFFFFF" d="M255.433,144.912l-14.314-44.055v0v0v0h0l-28.369-87.314c-1.459-4.492-7.815-4.493-9.275,0l-28.371,87.314h0
	H80.896l0,0L52.525,13.543c-1.459-4.493-7.815-4.492-9.275,0l-28.369,87.314h0l0,0v0v0L0.567,144.912
	c-1.306,4.018,0.124,8.42,3.542,10.903L128,245.827l0,0l0,0l0,0l0,0l123.891-90.012C255.309,153.332,256.739,148.93,255.433,144.912
	z"/>
</svg>
