<?xml version="1.0" encoding="utf-8"?>
<!-- Generator: Adobe Illustrator 17.0.2, SVG Export Plug-In . SVG Version: 6.00 Build 0)  -->
<!DOCTYPE svg PUBLIC "-//W3C//DTD SVG 1.1//EN" "http://www.w3.org/Graphics/SVG/1.1/DTD/svg11.dtd">
<svg version="1.1" id="Calque_1" xmlns="http://www.w3.org/2000/svg" xmlns:xlink="http://www.w3.org/1999/xlink" x="0px" y="0px"
	 width="256px" height="256px" viewBox="0 0 256 256" enable-background="new 0 0 256 256" xml:space="preserve">
<path fill="#FFFFFF" d="M232.793,0H23.207C10.39,0,0,10.39,0,23.207v209.586C0,245.61,10.39,256,23.207,256h209.586
	C245.61,256,256,245.61,256,232.793V23.207C256,10.39,245.61,0,232.793,0z M85.555,49.728c8.51,0,15.638,6.669,15.638,15.405
	c0,8.742-7.128,15.412-15.638,15.412s-15.637-6.671-15.637-15.412C69.918,56.397,77.045,49.728,85.555,49.728z M190.18,197.138
	c-15.869,0-23.456-9.424-23.456-22.307c0-3.676,0.458-7.589,1.608-11.499l7.591-27.137c0.919-2.991,1.15-5.747,1.15-8.279
	c0-8.736-5.29-14.028-13.799-14.028c-10.81,0-17.939,7.759-21.618,22.707l-14.72,59.039H101.18l4.623-18.553
	c-7.57,12.436-18.085,20.14-31.056,20.14c-15.639,0-22.998-9.009-22.998-22.58c0-3.444,0.462-7.666,1.38-11.576l11.729-47.915H46.69
	l5.521-20.364h43.695l-17.25,68.424c-1.15,4.373-1.61,8-1.61,10.525c0,4.376,2.154,5.655,5.521,6.415
	c2.051,0.46,18.394,0.139,27.292-19.639l11.329-45.36h-18.399l5.52-20.364h39.325l-5.058,23.12
	c6.897-12.88,20.697-25.119,34.265-25.119c14.488,0,26.448,10.321,26.448,30.099c0,5.058-0.691,10.563-2.53,16.771l-7.361,26.439
	c-0.688,2.766-1.15,5.063-1.15,7.132c0,4.597,1.841,6.896,5.291,6.896c3.449,0,7.819-2.535,12.879-16.557l10.118,3.907
	C214.557,188.403,203.749,197.138,190.18,197.138z"/>
</svg>
