<?xml version="1.0" encoding="utf-8"?>
<!-- Generator: Adobe Illustrator 17.0.2, SVG Export Plug-In . SVG Version: 6.00 Build 0)  -->
<!DOCTYPE svg PUBLIC "-//W3C//DTD SVG 1.1//EN" "http://www.w3.org/Graphics/SVG/1.1/DTD/svg11.dtd">
<svg version="1.1" id="Calque_1" xmlns="http://www.w3.org/2000/svg" xmlns:xlink="http://www.w3.org/1999/xlink" x="0px" y="0px"
	 width="256px" height="256px" viewBox="0 0 256 256" enable-background="new 0 0 256 256" xml:space="preserve">
<g>
	<path fill="#FFFFFF" d="M127.999,0.208C57.42,0.208,0.207,57.43,0.207,127.999S57.42,255.792,127.999,255.792
		c70.578,0,127.793-57.215,127.793-127.793S198.577,0.208,127.999,0.208 M127.999,234.496c-58.817,0-106.496-47.679-106.496-106.498
		c0-58.816,47.679-106.495,106.496-106.495c58.816,0,106.493,47.709,106.493,106.495c0.001,58.786-47.709,106.495-106.493,106.495"
		/>
	<path fill="#FFFFFF" d="M159.056,128c0-30.135-11.825-57.487-31.055-77.736C108.768,70.494,96.903,97.898,96.903,128
		c0,13.773,2.556,26.978,7.1,39.215c-6.583,9.601-11.443,23.052-13.576,38.521c6.791-8.038,15.138-13.928,24.393-16.833
		c3.874,5.964,8.235,11.643,13.205,16.833c4.911-5.173,9.327-10.81,13.199-16.833c9.258,2.84,17.607,8.803,24.422,16.897
		c-2.134-15.469-6.993-28.919-13.576-38.521c4.481-12.301,7.024-25.506,7.024-39.279 M128.001,128.284
		c-7.744,0-14.022-6.277-14.022-14.02c0-7.741,6.277-14.017,14.022-14.017c7.743,0,14.057,6.248,14.057,14.057
		c-0.038,7.591-6.249,13.98-14.059,13.98"/>
</g>
</svg>
