<?xml version="1.0" encoding="utf-8"?>
<!-- Generator: Adobe Illustrator 17.0.2, SVG Export Plug-In . SVG Version: 6.00 Build 0)  -->
<!DOCTYPE svg PUBLIC "-//W3C//DTD SVG 1.1//EN" "http://www.w3.org/Graphics/SVG/1.1/DTD/svg11.dtd">
<svg version="1.1" id="Calque_1" xmlns="http://www.w3.org/2000/svg" xmlns:xlink="http://www.w3.org/1999/xlink" x="0px" y="0px"
	 width="256px" height="256px" viewBox="0 0 256 256" enable-background="new 0 0 256 256" xml:space="preserve">
<g id="Layer_2">
	<g>
		
			<rect x="109.987" y="110.8" transform="matrix(-0.9482 0.3176 -0.3176 -0.9482 290.0813 209.1014)" fill="#FFFFFF" width="36.019" height="34.791"/>
		<g>
			
				<rect x="109.987" y="110.8" transform="matrix(-0.9482 0.3176 -0.3176 -0.9482 290.0813 209.1014)" fill="#FFFFFF" width="36.019" height="34.791"/>
			<path fill="#FFFFFF" d="M245.269,92.799C218.868,4.795,180.802-15.67,92.799,10.731S-15.67,75.198,10.731,163.201
				s64.467,108.469,152.471,82.068S271.67,180.802,245.269,92.799z M200.858,149.898l-16.577,5.526l5.73,17.191
				c2.251,6.958-1.433,14.531-8.391,16.782c-1.433,0.409-3.07,0.819-4.502,0.614c-5.321-0.205-10.438-3.684-12.28-9.005
				l-5.73-17.191l-34.178,11.461l5.73,17.191c2.251,6.958-1.433,14.531-8.391,16.782c-1.433,0.409-3.07,0.819-4.502,0.614
				c-5.321-0.205-10.438-3.684-12.28-9.005l-5.73-17.191l-16.577,5.526c-1.433,0.409-3.07,0.819-4.502,0.614
				c-5.321-0.205-10.438-3.684-12.28-9.005c-2.251-6.958,1.433-14.531,8.391-16.782l16.577-5.526l-11.052-32.95l-16.577,5.526
				c-1.433,0.409-3.07,0.819-4.502,0.614c-5.321-0.205-10.438-3.684-12.28-9.005c-2.251-6.958,1.433-14.531,8.391-16.782
				l16.577-5.526l-5.73-17.191c-2.251-6.958,1.433-14.531,8.391-16.782s14.531,1.433,16.782,8.391l5.73,17.191l34.178-11.461
				l-5.73-17.191c-2.251-6.958,1.433-14.531,8.391-16.782c6.958-2.251,14.531,1.433,16.782,8.391l5.73,17.191l16.577-5.526
				c6.958-2.251,14.531,1.433,16.782,8.391c2.251,6.958-1.433,14.531-8.391,16.782l-16.577,5.526l11.052,32.95l16.577-5.526
				c6.958-2.251,14.531,1.433,16.782,8.391C211.501,140.075,207.817,147.647,200.858,149.898z"/>
		</g>
	</g>
</g>
</svg>
