<?xml version="1.0" encoding="utf-8"?>
<!-- Generator: Adobe Illustrator 17.0.2, SVG Export Plug-In . SVG Version: 6.00 Build 0)  -->
<!DOCTYPE svg PUBLIC "-//W3C//DTD SVG 1.1//EN" "http://www.w3.org/Graphics/SVG/1.1/DTD/svg11.dtd">
<svg version="1.1" id="Calque_1" xmlns="http://www.w3.org/2000/svg" xmlns:xlink="http://www.w3.org/1999/xlink" x="0px" y="0px"
	 width="256px" height="256px" viewBox="0 0 256 256" enable-background="new 0 0 256 256" xml:space="preserve">
<path fill="#FFFFFF" d="M231,0H25C11.193,0,0,11.193,0,25v206c0,13.807,11.193,25,25,25h206c13.807,0,25-11.193,25-25V25
	C256,11.193,244.807,0,231,0z M111.36,197.28c0,6.627-5.373,12-12,12H45.28c-6.627,0-12-5.373-12-12v-152c0-6.627,5.373-12,12-12
	h54.08c6.627,0,12,5.373,12,12V197.28z M222.72,133.28c0,6.627-5.373,12-12,12h-54.08c-6.627,0-12-5.373-12-12v-88
	c0-6.627,5.373-12,12-12h54.08c6.627,0,12,5.373,12,12V133.28z"/>
</svg>
