<?xml version="1.0" encoding="utf-8"?>
<!-- Generator: Adobe Illustrator 17.0.2, SVG Export Plug-In . SVG Version: 6.00 Build 0)  -->
<!DOCTYPE svg PUBLIC "-//W3C//DTD SVG 1.1//EN" "http://www.w3.org/Graphics/SVG/1.1/DTD/svg11.dtd">
<svg version="1.1" id="Calque_1" xmlns="http://www.w3.org/2000/svg" xmlns:xlink="http://www.w3.org/1999/xlink" x="0px" y="0px"
	 width="50px" height="50px" viewBox="0 0 50 50" enable-background="new 0 0 50 50" xml:space="preserve">
<g>
	<path fill="#703030" d="M50,37.312c-4.178,3.138-9.872,5.188-15.5,5.188c-13.807,0-25-11.193-25-25c0-6.565,3.031-13.039,7.17-17.5
		H50V37.312z"/>
	<path fill="#C57968" d="M50,50h-1V38.479C44.731,41.44,39.739,43,34.5,43C20.439,43,9,31.561,9,17.5
		C9,11.423,11.144,5.606,15.058,1H0V0h17.315l-0.779,0.84C12.321,5.384,10,11.3,10,17.5C10,31.01,20.99,42,34.5,42
		c5.352,0,10.435-1.693,14.699-4.897L50,36.501V50z"/>
</g>
</svg>
