<?xml version="1.0" encoding="utf-8"?>
<!-- Generator: Adobe Illustrator 17.0.2, SVG Export Plug-In . SVG Version: 6.00 Build 0)  -->
<!DOCTYPE svg PUBLIC "-//W3C//DTD SVG 1.1//EN" "http://www.w3.org/Graphics/SVG/1.1/DTD/svg11.dtd">
<svg version="1.1" id="Calque_1" xmlns="http://www.w3.org/2000/svg" xmlns:xlink="http://www.w3.org/1999/xlink" x="0px" y="0px"
	 width="50px" height="50px" viewBox="0 0 50 50" enable-background="new 0 0 50 50" xml:space="preserve">
<g>
	<path fill="#703030" d="M0,37.312C4.178,40.451,9.872,42.5,15.5,42.5c13.807,0,25-11.193,25-25c0-6.565-3.031-13.039-7.17-17.5L0,0
		L0,37.312z"/>
	<path fill="#C57968" d="M0,50h1V38.479C5.269,41.44,10.261,43,15.5,43C29.561,43,41,31.561,41,17.5
		c0-6.077-2.144-11.894-6.058-16.5H50V0L32.685,0l0.779,0.84C37.679,5.384,40,11.3,40,17.5C40,31.01,29.01,42,15.5,42
		c-5.352,0-10.435-1.693-14.699-4.897L0,36.501L0,50z"/>
</g>
</svg>
