<?xml version="1.0" encoding="utf-8"?>
<!-- Generator: Adobe Illustrator 17.0.2, SVG Export Plug-In . SVG Version: 6.00 Build 0)  -->
<!DOCTYPE svg PUBLIC "-//W3C//DTD SVG 1.1//EN" "http://www.w3.org/Graphics/SVG/1.1/DTD/svg11.dtd">
<svg version="1.1" id="Calque_1" xmlns="http://www.w3.org/2000/svg" xmlns:xlink="http://www.w3.org/1999/xlink" x="0px" y="0px"
	 width="50px" height="50px" viewBox="0 0 50 50" enable-background="new 0 0 50 50" xml:space="preserve">
<g>
	<path fill="#703030" d="M50,12.688C45.822,9.549,40.128,7.5,34.5,7.5c-13.807,0-25,11.193-25,25c0,6.565,3.031,13.039,7.17,17.5H50
		V12.688z"/>
	<path fill="#C57968" d="M50,0h-1v11.521C44.731,8.56,39.739,7,34.5,7C20.439,7,9,18.439,9,32.5c0,6.077,2.144,11.894,6.058,16.5H0
		v1h17.315l-0.779-0.84C12.321,44.616,10,38.7,10,32.5C10,18.99,20.99,8,34.5,8c5.352,0,10.435,1.693,14.699,4.897L50,13.499V0z"/>
</g>
</svg>
