<?xml version="1.0" encoding="utf-8"?>
<!-- Generator: Adobe Illustrator 17.0.2, SVG Export Plug-In . SVG Version: 6.00 Build 0)  -->
<!DOCTYPE svg PUBLIC "-//W3C//DTD SVG 1.1//EN" "http://www.w3.org/Graphics/SVG/1.1/DTD/svg11.dtd">
<svg version="1.1" id="Calque_1" xmlns="http://www.w3.org/2000/svg" xmlns:xlink="http://www.w3.org/1999/xlink" x="0px" y="0px"
	 width="50px" height="50px" viewBox="0 0 50 50" enable-background="new 0 0 50 50" xml:space="preserve">
<g>
	<path fill="#703030" d="M0,12.688C4.178,9.549,9.872,7.5,15.5,7.5c13.807,0,25,11.193,25,25c0,6.565-3.031,13.039-7.17,17.5H0
		L0,12.688z"/>
	<path fill="#C57968" d="M0,0l1,0v11.521C5.269,8.56,10.261,7,15.5,7C29.561,7,41,18.439,41,32.5c0,6.077-2.144,11.894-6.058,16.5
		H50v1H32.685l0.779-0.84C37.679,44.616,40,38.7,40,32.5C40,18.99,29.01,8,15.5,8C10.148,8,5.065,9.693,0.801,12.897L0,13.499L0,0z"
		/>
</g>
</svg>
