<?xml version="1.0" encoding="utf-8"?>
<!-- Generator: Adobe Illustrator 17.0.2, SVG Export Plug-In . SVG Version: 6.00 Build 0)  -->
<!DOCTYPE svg PUBLIC "-//W3C//DTD SVG 1.1//EN" "http://www.w3.org/Graphics/SVG/1.1/DTD/svg11.dtd">
<svg version="1.1" id="Calque_1" xmlns="http://www.w3.org/2000/svg" xmlns:xlink="http://www.w3.org/1999/xlink" x="0px" y="0px"
	 width="60px" height="60px" viewBox="0 0 60 60" enable-background="new 0 0 60 60" xml:space="preserve">
<g>
	<g>
		<path fill="#E2CDA3" d="M54.908,18.946c2.035,0.653,2.171,3.573,0.946,5.507s-3.05,2.317-6.184,1.155l-3.322-1.422L43.84,20.52"/>
		<path fill="#8C6C42" d="M52.709,27.016c-0.948,0-2.039-0.237-3.3-0.704l-3.558-1.522l-2.631-3.846l1.238-0.847l2.385,3.486
			l3.121,1.336c3.158,1.17,4.388,0.501,5.255-0.867c0.649-1.025,0.85-2.364,0.499-3.332c-0.197-0.545-0.547-0.902-1.04-1.06
			l0.459-1.429c0.931,0.299,1.638,1.001,1.991,1.977c0.509,1.403,0.257,3.227-0.642,4.646
			C55.569,26.305,54.355,27.016,52.709,27.016z"/>
	</g>
	<path fill="#E2CDA3" stroke="#8C6C42" stroke-width="1.5" stroke-miterlimit="10" d="M35.807,45.215"/>
	<g>
		<path fill="#E2CDA3" d="M32.513,51.54L9.803,41.805c0,0,4.304-3.35,7.533-8.732c2.977-4.961,4.214-11.052,6.952-15.798
			c1.701-2.948,2.948-4.12,5.7-4.12c9.182,0.69,22.489,5.138,24.921,5.791c-4.707-1.597-8.227,3.431-9.814,6.605
			c-2.233,4.036-2.919,11.389-4.011,16.109C38.164,54.282,32.513,51.54,32.513,51.54z"/>
		<path fill="#8C6C42" d="M33.835,52.542c-0.949,0-1.581-0.294-1.65-0.327L8.341,41.994l1.001-0.781
			c0.042-0.032,4.237-3.336,7.351-8.526c1.509-2.516,2.583-5.389,3.623-8.168c0.971-2.597,1.975-5.282,3.323-7.619
			c1.72-2.981,3.174-4.495,6.35-4.495c7.787,0.583,18.504,3.828,23.08,5.214c0.576,0.175,1.065,0.323,1.45,0.436
			c0.209,0.049,0.419,0.109,0.632,0.181l-0.436,1.435c-0.152-0.041-0.345-0.096-0.575-0.164c-0.343-0.077-0.688-0.116-1.025-0.116
			c-3.702,0-6.372,4.543-7.349,6.496c-1.539,2.784-2.34,7.295-3.047,11.276c-0.3,1.686-0.583,3.278-0.904,4.667
			C39.659,51.15,35.89,52.542,33.835,52.542z M11.213,41.594l21.596,9.257c0.029,0.013,0.424,0.191,1.027,0.191
			c1.296,0,4.524-0.931,6.518-9.55c0.312-1.352,0.592-2.925,0.888-4.592c0.728-4.096,1.553-8.737,3.197-11.711
			c0.87-1.742,2.999-5.374,6.144-6.751c-5.181-1.544-14.066-4.04-20.65-4.534c-2.212,0.002-3.298,0.807-4.995,3.747
			c-1.286,2.229-2.224,4.737-3.217,7.394c-1.062,2.842-2.161,5.781-3.741,8.414C15.601,37.421,12.689,40.279,11.213,41.594z"/>
	</g>
	<g>
		<path fill="#E2CDA3" d="M8.678,42.114c-1.646-0.801-2.171-3.572-0.946-5.507c1.225-1.934,2.949-2.381,5.383-1.498l23.835,9.427
			c-1.608-0.558-4.158-0.436-5.383,1.498s-0.802,4.4,0.946,5.507L8.678,42.114z"/>
		<path fill="#8C6C42" d="M32.237,52.237L8.402,42.811c-0.928-0.449-1.584-1.294-1.899-2.402c-0.4-1.41-0.178-2.981,0.596-4.203
			c1.401-2.211,3.454-2.823,6.272-1.802l23.855,9.435l-0.521,1.406c-0.461-0.16-1.006-0.249-1.532-0.249
			c-0.77,0-2.178,0.188-2.971,1.439c-0.493,0.778-0.684,1.679-0.537,2.536c0.143,0.828,0.586,1.516,1.25,1.936L32.237,52.237z
			 M10.956,35.425c-1.083,0-1.905,0.503-2.59,1.583c-0.541,0.854-0.701,1.999-0.42,2.99c0.194,0.683,0.581,1.207,1.061,1.44
			l21.34,8.438c-0.068-0.21-0.122-0.429-0.16-0.653c-0.21-1.224,0.056-2.499,0.748-3.592c0.522-0.823,1.295-1.434,2.232-1.787
			l-20.327-8.039C12.148,35.556,11.507,35.425,10.956,35.425z"/>
	</g>
	<g>
		<path fill="#E2CDA3" d="M18.979,14.148c-0.267-0.244-0.54-0.486-0.818-0.728c-0.96-0.834-1.67-1.352-2.655-1.935
			c0,0-7.054-4.674-12.143-2.859c0.039,0.432,1.298,3.298,1.298,3.298l2.159,0.432L5.9,14.16l1.857,2.826l3.709,0.6l-1.138,2
			c0,0,0.895,0.846,1.381,1.267c0.84,0.729,1.051,0.926,1.889,1.552c0.573,0.428,4.391,0.907,4.391,0.907s-0.713,1.642-0.066,2.011
			c3.829,2.184,7.043,2.896,8.219,1.541c1.445-1.664-0.631-5.937-4.768-10.358L18.979,14.148z"/>
		<path fill="#8C6C42" d="M24.255,28.304C24.255,28.304,24.255,28.304,24.255,28.304c-1.717,0-4.035-0.805-6.705-2.329
			c-0.74-0.422-0.723-1.317-0.557-2.039c-1.476-0.21-3.324-0.54-3.845-0.93c-0.765-0.571-1.03-0.801-1.669-1.357l-0.263-0.229
			c-0.494-0.428-1.404-1.289-1.404-1.289l-0.428-0.404l0.896-1.573L7.31,17.673l-2.277-3.466l0.668-1.31l-1.571-0.314l-0.157-0.357
			c-0.597-1.358-1.317-3.074-1.359-3.532L2.563,8.116L3.11,7.92c0.86-0.307,1.82-0.462,2.852-0.462c4.768,0,9.748,3.264,9.958,3.403
			c0.984,0.581,1.733,1.126,2.732,1.993c0.283,0.246,0.56,0.492,0.831,0.739l2.416,2.379c3.696,3.948,6.883,8.995,4.809,11.384
			C26.162,27.985,25.337,28.304,24.255,28.304z M18.399,24.732c2.365,1.337,4.441,2.072,5.855,2.072h0
			c0.627,0,1.071-0.145,1.319-0.431c0.934-1.076-0.413-4.72-4.75-9.354l-2.373-2.337c-0.241-0.219-0.509-0.458-0.783-0.695
			c-0.936-0.812-1.602-1.297-2.545-1.855c-0.08-0.052-4.85-3.173-9.161-3.173c-0.586,0-1.14,0.059-1.654,0.175
			c0.208,0.541,0.549,1.362,0.883,2.133l2.747,0.549l-1.172,2.298l1.437,2.186l4.45,0.72l-1.38,2.425
			c0.291,0.271,0.669,0.619,0.928,0.844l0.265,0.23c0.627,0.545,0.861,0.75,1.582,1.287c0.337,0.192,2.365,0.554,4.036,0.764
			l0.99,0.125l-0.395,0.917C18.507,24.005,18.385,24.51,18.399,24.732z"/>
	</g>
	<path fill="#8C6C42" d="M36.169,35.496l-0.436-1.529l-2.607,0.651l-0.904-2.368l-2.065,0.241l-0.258-0.272
		c-0.105-0.11-10.612-11.174-20.383-19.271l0.957-1.155c8.981,7.442,18.567,17.359,20.255,19.122l2.479-0.29l0.846,2.216
		l2.726-0.683l0.482,1.695l1.322-0.16l0.18,1.488L36.169,35.496z"/>
	<polygon fill="#8C6C42" points="38.023,26.044 37.134,23.743 34.689,24.409 33.802,22.596 31.339,23.557 30.297,21.385 
		28.672,21.752 28.341,20.29 31.132,19.657 32.09,21.653 34.544,20.696 35.492,22.636 38.046,21.94 38.929,24.228 40.687,23.728 
		42.296,24.605 41.579,25.922 40.507,25.338 	"/>
</g>
</svg>
