<?xml version="1.0" encoding="utf-8"?>
<!-- Generator: Adobe Illustrator 17.0.2, SVG Export Plug-In . SVG Version: 6.00 Build 0)  -->
<!DOCTYPE svg PUBLIC "-//W3C//DTD SVG 1.1//EN" "http://www.w3.org/Graphics/SVG/1.1/DTD/svg11.dtd">
<svg version="1.1" id="Calque_1" xmlns="http://www.w3.org/2000/svg" xmlns:xlink="http://www.w3.org/1999/xlink" x="0px" y="0px"
	 width="164px" height="115px" viewBox="0 0 164 115" enable-background="new 0 0 164 115" xml:space="preserve">
<rect x="-1264.917" y="-66.729" fill-rule="evenodd" clip-rule="evenodd" fill="none" width="1440" height="5000"/>
<g>
	<path fill="#502F2D" d="M82,114.5c-27.846,0-50.5-22.654-50.5-50.5v-0.5h-31v-11H19V41.167h17.96l0.14-0.271
		c7.968-15.451,23.654-25.884,40.939-27.227l0.461-0.036V0.5h7v13.134l0.461,0.036c17.285,1.343,32.972,11.775,40.938,27.227
		l0.14,0.271H145V52.5h18.5v11h-31V64C132.5,91.846,109.846,114.5,82,114.5z"/>
	<path fill="#C77966" d="M85,1v12.171v0.925l0.923,0.072c17.113,1.329,32.645,11.659,40.533,26.957l0.279,0.542h0.609H144.5V52v1h1
		H163v10h-30h-1v1c0,27.57-22.43,50-50,50S32,91.57,32,64v-1h-1H1V53h17.5h1v-1V41.667h17.155h0.609l0.279-0.542
		c7.889-15.298,23.42-25.628,40.533-26.957L79,14.096v-0.925V1H85 M86,0h-8v13.171c-18.048,1.402-33.452,12.19-41.345,27.496H18.5
		V52H0v12h31c0,28.167,22.833,51,51,51c28.167,0,51-22.834,51-51h31V52h-18.5V40.667h-18.155
		C119.452,25.361,104.048,14.573,86,13.171V0L86,0z"/>
</g>
</svg>
