<?xml version="1.0" encoding="utf-8"?>
<!-- Generator: Adobe Illustrator 17.0.2, SVG Export Plug-In . SVG Version: 6.00 Build 0)  -->
<!DOCTYPE svg PUBLIC "-//W3C//DTD SVG 1.1//EN" "http://www.w3.org/Graphics/SVG/1.1/DTD/svg11.dtd">
<svg version="1.1" id="Calque_1" xmlns="http://www.w3.org/2000/svg" xmlns:xlink="http://www.w3.org/1999/xlink" x="0px" y="0px"
	 width="600px" height="230px" viewBox="0 0 600 230" enable-background="new 0 0 600 230" xml:space="preserve">
<polygon fill="#808080" points="356.326,188.333 283.749,188.333 283.749,185.333 353.326,185.333 353.326,104.667 253.421,104.667 
	253.421,131.917 250.421,131.917 250.421,101.667 356.326,101.667 "/>
<path fill="#808080" d="M492.232,215.667H386.326V69.666h105.906V215.667z M389.326,212.667h99.906V72.666h-99.906V212.667z"/>
<path fill="#808080" d="M492.232,72.666H386.326V53.667h105.906V72.666z M389.326,69.666h99.906V56.667h-99.906V69.666z"/>
<path fill="#808080" d="M492.232,188.5H386.326V172h105.906V188.5z M389.326,185.5h99.906V175h-99.906V185.5z"/>
<path fill="#808080" d="M404.027,188.5h-17.701V172h17.701V188.5z M389.326,185.5h11.701V175h-11.701V185.5z"/>
<path fill="#808080" d="M418.728,188.5h-17.701V172h17.701V188.5z M404.027,185.5h11.701V175h-11.701V185.5z"/>
<path fill="#808080" d="M433.429,188.5h-17.701V172h17.701V188.5z M418.728,185.5h11.701V175h-11.701V185.5z"/>
<path fill="#808080" d="M448.13,188.5h-17.701V172h17.701V188.5z M433.429,185.5h11.701V175h-11.701V185.5z"/>
<path fill="#808080" d="M462.831,188.5H445.13V172h17.701V188.5z M448.13,185.5h11.701V175H448.13V185.5z"/>
<path fill="#808080" d="M477.531,188.5h-17.7V172h17.7V188.5z M462.831,185.5h11.7V175h-11.7V185.5z"/>
<path fill="#808080" d="M492.232,188.5h-17.701V172h17.701V188.5z M477.531,185.5h11.701V175h-11.701V185.5z"/>
<path fill="#808080" d="M492.232,202H386.326v-16.5h105.906V202z M389.326,199h99.906v-10.5h-99.906V199z"/>
<path fill="#808080" d="M404.027,202h-17.701v-16.5h17.701V202z M389.326,199h11.701v-10.5h-11.701V199z"/>
<path fill="#808080" d="M418.728,202h-17.701v-16.5h17.701V202z M404.027,199h11.701v-10.5h-11.701V199z"/>
<path fill="#808080" d="M433.429,202h-17.701v-16.5h17.701V202z M418.728,199h11.701v-10.5h-11.701V199z"/>
<path fill="#808080" d="M448.13,202h-17.701v-16.5h17.701V202z M433.429,199h11.701v-10.5h-11.701V199z"/>
<path fill="#808080" d="M462.831,202H445.13v-16.5h17.701V202z M448.13,199h11.701v-10.5H448.13V199z"/>
<path fill="#808080" d="M477.531,202h-17.7v-16.5h17.7V202z M462.831,199h11.7v-10.5h-11.7V199z"/>
<path fill="#808080" d="M492.232,202h-17.701v-16.5h17.701V202z M477.531,199h11.701v-10.5h-11.701V199z"/>
<path fill="#808080" d="M492.232,215.5H386.326V199h105.906V215.5z M389.326,212.5h99.906V202h-99.906V212.5z"/>
<path fill="#808080" d="M404.027,215.5h-17.701V199h17.701V215.5z M389.326,212.5h11.701V202h-11.701V212.5z"/>
<path fill="#808080" d="M418.728,215.5h-17.701V199h17.701V215.5z M404.027,212.5h11.701V202h-11.701V212.5z"/>
<path fill="#808080" d="M433.429,215.5h-17.701V199h17.701V215.5z M418.728,212.5h11.701V202h-11.701V212.5z"/>
<path fill="#808080" d="M448.13,215.5h-17.701V199h17.701V215.5z M433.429,212.5h11.701V202h-11.701V212.5z"/>
<path fill="#808080" d="M462.831,215.5H445.13V199h17.701V215.5z M448.13,212.5h11.701V202H448.13V212.5z"/>
<path fill="#808080" d="M477.531,215.5h-17.7V199h17.7V215.5z M462.831,212.5h11.7V202h-11.7V212.5z"/>
<path fill="#808080" d="M492.232,215.5h-17.701V199h17.701V215.5z M477.531,212.5h11.701V202h-11.701V212.5z"/>
<path fill="#808080" d="M356.326,206.667H282.25v-21.333h74.076V206.667z M285.25,203.667h68.076v-15.333H285.25V203.667z"/>
<path fill="#808080" d="M195.788,217.556H73.625v-30.424h122.163V217.556z M76.625,214.556h116.163v-24.424H76.625V214.556z"/>
<path fill="#808080" d="M206.269,214.667h-13v-23h13V214.667z M196.269,211.667h7v-17h-7V211.667z"/>
<path fill="#808080" d="M366.326,166.5h-13v-23h13V166.5z M356.326,163.5h7v-17h-7V163.5z"/>
<path fill="#808080" d="M389.326,166.5h-13v-23h13V166.5z M379.326,163.5h7v-17h-7V163.5z"/>
<path fill="#808080" d="M315.062,104.667h-23v-13h23V104.667z M295.062,101.667h17v-7h-17V101.667z"/>
<rect x="243.999" y="50.167" fill="#CFCFCF" width="16.25" height="3"/>
<path fill="#808080" d="M379.326,163h-16v-16h16V163z M366.326,160h10v-10h-10V160z"/>
<path fill="#808080" d="M502.232,139.124h-13v-23h13V139.124z M492.232,136.124h7v-17h-7V136.124z"/>
<path fill="#808080" d="M502.232,163h-13v-11.334h13V163z M492.232,160h7v-5.334h-7V160z"/>
<polygon fill="#808080" points="576.75,135.624 499.232,135.624 499.232,119.624 576.75,119.624 576.75,122.624 502.232,122.624 
	502.232,132.624 576.75,132.624 "/>
<path fill="#808080" d="M389.326,89.833h-13v-23h13V89.833z M379.326,86.833h7v-17h-7V86.833z"/>
<path fill="#808080" d="M366.326,89.833h-30.743v-23h30.743V89.833z M338.583,86.833h24.743v-17h-24.743V86.833z"/>
<path fill="#808080" d="M362.875,69.833h-23.84v-10.04h23.84V69.833z M342.035,66.833h17.84v-4.04h-17.84V66.833z"/>
<path fill="#808080" d="M379.326,86.333h-16v-16h16V86.333z M366.326,83.333h10v-10h-10V83.333z"/>
<path fill="#808080" d="M311.562,94.667h-16v-8.834h-29.646v-16h45.646V94.667z M298.562,91.667h10V72.833h-39.646v10h29.646V91.667
	z"/>
<polygon fill="#808080" points="227.211,211.167 203.75,211.167 203.75,195.167 211.211,195.167 211.211,155 214.211,155 
	214.211,198.167 206.75,198.167 206.75,208.167 224.211,208.167 224.211,154.5 227.211,154.5 "/>
<polygon fill="#808080" points="227.211,104.667 224.211,104.667 224.211,82.666 235.916,82.666 235.916,72.666 214.211,72.666 
	214.211,104.667 211.211,104.667 211.211,69.666 238.916,69.666 238.916,85.666 227.211,85.666 "/>
<polygon fill="#CFCFCF" points="258.479,62.978 257.485,61.372 259.486,58.139 257.486,54.904 259.973,50.878 263.013,51.667 
	261.012,54.904 263.013,58.141 261.013,61.372 262.001,62.968 "/>
<polygon fill="#CFCFCF" points="242.229,62.978 241.235,61.372 243.236,58.139 241.236,54.904 243.723,50.878 246.275,52.455 
	244.762,54.904 246.763,58.141 244.763,61.372 245.751,62.968 "/>
<path fill="#CFCFCF" d="M243.457,52.977c-7.692-3.424-12.662-11.075-12.662-19.493c0-11.761,9.568-21.329,21.329-21.329
	c11.761,0,21.329,9.568,21.329,21.329c0,8.302-4.875,15.91-12.419,19.384l-1.255-2.725c6.484-2.985,10.674-9.524,10.674-16.659
	c0-10.106-8.222-18.329-18.329-18.329s-18.329,8.223-18.329,18.329c0,7.234,4.271,13.81,10.881,16.753L243.457,52.977z"/>
<rect x="280.058" y="2.173" transform="matrix(-0.7071 -0.7071 0.7071 -0.7071 474.1574 214.7662)" fill="#CFCFCF" width="3" height="14.018"/>
<rect x="274.55" y="54.313" transform="matrix(-0.7071 -0.7071 0.7071 -0.7071 441.1843 294.3714)" fill="#CFCFCF" width="14.018" height="3"/>
<rect x="281.372" y="31" fill="#CFCFCF" width="14.377" height="3"/>
<g>
	
		<rect x="213.023" y="7.683" transform="matrix(-0.7071 -0.7071 0.7071 -0.7071 369.1256 171.2625)" fill="#CFCFCF" width="14.018" height="3"/>
	
		<rect x="218.533" y="48.806" transform="matrix(-0.7071 -0.7071 0.7071 -0.7071 336.1524 250.8679)" fill="#CFCFCF" width="3" height="14.018"/>
	<rect x="205.844" y="31" fill="#CFCFCF" width="14.377" height="3"/>
</g>
<g>
	<path fill="#CFCFCF" d="M285.25,224.667h-46.667V166h46.667V224.667z M241.583,221.667h40.667V169h-40.667L241.583,221.667
		L241.583,221.667z"/>
	<path fill="#CFCFCF" d="M263.417,169h-20.334v-38.584h20.334V169z M246.082,166h14.334v-32.584h-14.334L246.082,166L246.082,166z"
		/>
	<path fill="#CFCFCF" d="M279.5,169h-12.25v-14.41l6.125-10.373l6.125,10.373V169z M270.25,166h6.25v-10.59l-3.125-5.293
		l-3.125,5.293V166z"/>
	<rect x="244.582" y="136.667" fill="#CFCFCF" width="6.834" height="3"/>
	<rect x="244.582" y="143.5" fill="#CFCFCF" width="6.834" height="3"/>
	<rect x="244.582" y="150.333" fill="#CFCFCF" width="6.834" height="3"/>
	<rect x="244.582" y="157.167" fill="#CFCFCF" width="6.834" height="3"/>
</g>
<path fill="#CFCFCF" d="M339.917,153.382h-49.074v-3h46.056c-0.476-19.977-10.592-29.296-31.729-29.296
	c-14.758,0-24.11,4.547-28.591,13.899l-2.705-1.297c4.96-10.353,15.49-15.603,31.296-15.603c23.056,0,34.746,11.37,34.746,33.796
	v1.501H339.917z"/>
<polygon fill="#CFCFCF" points="324.471,174.914 296.542,174.914 296.542,171.914 321.471,171.914 321.471,151.882 324.471,151.882 
	"/>
<rect x="412.728" y="81.917" fill="#CFCFCF" width="49.021" height="3"/>
<rect x="399.168" y="81.917" fill="#CFCFCF" width="7.082" height="3"/>
<rect x="399.168" y="89" fill="#CFCFCF" width="7.082" height="3"/>
<rect x="399.168" y="96.083" fill="#CFCFCF" width="7.082" height="3"/>
<rect x="399.168" y="103.167" fill="#CFCFCF" width="7.082" height="3"/>
<rect x="399.168" y="110.25" fill="#CFCFCF" width="7.082" height="3"/>
<rect x="399.168" y="117.333" fill="#CFCFCF" width="7.082" height="3"/>
<rect x="399.168" y="124.417" fill="#CFCFCF" width="7.082" height="3"/>
<rect x="399.168" y="131.5" fill="#CFCFCF" width="7.082" height="3"/>
<rect x="399.168" y="138.583" fill="#CFCFCF" width="7.082" height="3"/>
<rect x="399.168" y="145.667" fill="#CFCFCF" width="7.082" height="3"/>
<rect x="399.168" y="152.75" fill="#CFCFCF" width="7.082" height="3"/>
<rect x="399.168" y="159.833" fill="#CFCFCF" width="7.082" height="3"/>
<rect x="416.728" y="89" fill="#CFCFCF" width="53.021" height="3"/>
<rect x="412.728" y="96.083" fill="#CFCFCF" width="49.021" height="3"/>
<rect x="412.728" y="110.25" fill="#CFCFCF" width="65.521" height="3"/>
<rect x="416.728" y="117.333" fill="#CFCFCF" width="43.855" height="3"/>
<rect x="420.729" y="124.417" fill="#CFCFCF" width="34.188" height="3"/>
<rect x="416.728" y="131.5" fill="#CFCFCF" width="43.855" height="3"/>
<rect x="412.728" y="138.583" fill="#CFCFCF" width="65.521" height="3"/>
<rect x="412.728" y="152.75" fill="#CFCFCF" width="65.521" height="3"/>
<rect x="412.728" y="159.833" fill="#CFCFCF" width="65.521" height="3"/>
<path fill="#808080" d="M439.28,67.803c-2.557,0-4.637-2.08-4.637-4.637c0-2.558,2.08-4.638,4.637-4.638s4.637,2.08,4.637,4.638
	C443.916,65.723,441.836,67.803,439.28,67.803z M439.28,61.529c-0.903,0-1.637,0.734-1.637,1.638c0,0.902,0.734,1.637,1.637,1.637
	c0.902,0,1.637-0.734,1.637-1.637C440.916,62.263,440.182,61.529,439.28,61.529z"/>
<path fill="#808080" d="M346.954,15.333c-2.557,0-4.637-2.08-4.637-4.637s2.08-4.637,4.637-4.637s4.637,2.08,4.637,4.637
	S349.511,15.333,346.954,15.333z M346.954,9.059c-0.902,0-1.637,0.734-1.637,1.637s0.734,1.637,1.637,1.637
	c0.903,0,1.637-0.734,1.637-1.637S347.857,9.059,346.954,9.059z"/>
<rect x="345.454" y="13.833" fill="#808080" width="3" height="47.46"/>
<path fill="#808080" d="M355.826,38.334c-2.557,0-4.637-2.08-4.637-4.638c0-2.557,2.08-4.637,4.637-4.637s4.637,2.08,4.637,4.637
	C360.464,36.254,358.384,38.334,355.826,38.334z M355.826,32.06c-0.903,0-1.637,0.734-1.637,1.637s0.734,1.638,1.637,1.638
	s1.637-0.734,1.637-1.638C357.464,32.794,356.729,32.06,355.826,32.06z"/>
<rect x="354.326" y="36.834" fill="#808080" width="3" height="24.458"/>
<g>
	<path fill="#CFCFCF" d="M123.717,150.151c-2.322,1.681-5.093,1.959-7.996,1.471c-2.362-0.397-4.077-1.678-5.065-3.883
		c-0.173-0.386-0.326-0.782-0.431-1.034c-1.515-0.156-2.959-0.191-4.353-0.474c-2.169-0.44-3.985-1.651-5.595-3.115
		c-2.395-2.177-4.763-4.389-7.057-6.673c-1.33-1.324-2.288-2.889-1.754-4.898c-4.235-2.672-5.841-7.48-3.819-11.533
		c-2.503-1.57-2.851-4.111-2.885-6.765c-0.015-1.177,0.046-2.355,0.098-3.532c0.056-1.265,0.63-2.3,1.42-3.265
		c0.209-0.256,0.314-0.768,0.214-1.081c-0.962-2.991-1.027-5.979-0.058-8.969c1.097-3.385,2.169-6.781,3.383-10.124
		c0.473-1.304,1.244-2.516,1.987-3.703c0.759-1.211,1.812-2.133,3.175-2.678c0.229-0.092,0.415-0.416,0.519-0.674
		c0.581-1.441,0.942-3.006,1.729-4.319c1.597-2.667,3.835-4.79,6.394-6.559c1.861-1.286,3.861-2.07,6.159-1.589
		c1.621-3.733,5.02-5.226,9.359-4.163c1.793,0.439,3.332,1.317,4.678,2.687c0.256-0.279,0.488-0.53,0.719-0.783
		c2.67-2.93,6.925-3.77,10.07-1.857c1.118,0.68,2.128,1.205,3.508,1.411c2.572,0.383,4.354,2.225,5.845,4.301
		c0.26,0.363,0.653,0.713,1.062,0.872c2.073,0.808,3.646,2.135,4.638,4.145c0.131,0.266,0.368,0.575,0.626,0.667
		c1.884,0.668,3.239,1.963,4.257,3.612c2.287,3.703,4.504,7.455,5.412,11.784c0.245,1.17,0.318,2.396,0.299,3.593
		c-0.009,0.593,0.081,1,0.525,1.354c1.548,1.234,2.221,2.938,2.232,4.824c0.013,2.281-0.214,4.562-0.319,6.845
		c-0.013,0.273,0.075,0.555,0.145,0.826c0.241,0.94,0.664,1.868,0.71,2.816c0.146,2.955-0.229,5.883-0.938,8.748
		c-0.246,0.995-0.814,1.908-1.219,2.866c-0.093,0.219-0.221,0.491-0.167,0.694c1.001,3.738-0.796,6.455-3.269,8.894
		c-0.486,0.48-0.753,0.94-0.923,1.61c-0.847,3.354-3.01,5.644-6.046,7.189c-0.351,0.179-0.738,0.441-0.922,0.77
		c-2.02,3.608-5.137,5.472-9.197,5.825c-0.589,0.051-0.889,0.198-1.161,0.761c-0.288,0.596-0.754,1.18-1.288,1.57
		c-3.422,2.502-7.233,3.621-11.454,2.836C125.907,151.254,124.926,150.648,123.717,150.151z M136.364,145.893
		c-0.631-1.319-1.245-2.544-1.805-3.792c-0.413-0.92-0.09-1.827,0.735-2.266c0.857-0.456,1.825-0.16,2.344,0.755
		c0.322,0.568,0.567,1.179,0.891,1.746c0.112,0.196,0.347,0.43,0.546,0.451c2.895,0.31,5.943-0.562,7.418-3.323
		c0.838-1.568,1.749-2.804,3.546-3.245c0.421-0.103,0.818-0.421,1.159-0.718c1.352-1.177,2.39-2.541,2.534-4.474
		c-4.53,0-8.958,0-13.468,0c0.312,0.951,0.61,1.812,0.876,2.683c0.331,1.087-0.075,1.989-1.02,2.326
		c-0.927,0.331-1.832-0.15-2.228-1.201c-0.173-0.458-0.379-0.917-0.461-1.394c-0.374-2.159-1.483-3.619-3.628-4.355
		c-1.124-0.386-1.443-1.473-0.974-2.39c0.459-0.898,1.516-1.254,2.517-0.62c2.002,1.267,4.15,1.626,6.455,1.418
		c0.552-0.05,1.112-0.007,1.668-0.007c1.025,0,2.049,0,3.255,0c-0.591-0.887-1.151-1.545-1.507-2.3
		c-0.833-1.764-0.513-3.621-0.218-5.447c0.039-0.24,0.342-0.571,0.573-0.621c0.544-0.116,1.163-0.235,1.67-0.081
		c0.777,0.236,1.087,0.99,0.978,1.743c-0.301,2.072,0.45,3.758,1.727,5.297c0.229,0.275,0.357,0.645,0.615,0.881
		c0.257,0.235,0.613,0.492,0.934,0.504c1.471,0.053,2.945,0.037,4.417,0.011c0.262-0.005,0.624-0.096,0.766-0.281
		c1.347-1.756,1.834-3.194,0.843-5.048c-0.755-1.411-1.468-2.847-2.152-4.294c-0.443-0.939-0.077-1.909,0.793-2.323
		c0.846-0.403,1.744-0.106,2.264,0.772c0.256,0.433,0.476,0.887,0.713,1.332c0.124-0.013,0.247-0.026,0.371-0.038
		c0.194-2.27,0.366-4.543,0.591-6.81c0.124-1.254-0.172-2.297-1.105-3.192c-0.22-0.211-0.317-0.782-0.199-1.079
		c1.019-2.547,0.977-5.181,0.651-7.818c-0.082-0.666-0.591-1.28-0.934-1.979c-1.456,0.966-2.677,1.785-3.906,2.589
		c-1.019,0.667-1.995,0.542-2.59-0.312c-0.619-0.888-0.366-1.854,0.694-2.58c0.918-0.628,1.826-1.273,2.776-1.849
		c1.274-0.773,1.733-1.97,1.329-3.27c-0.801-2.578-1.805-5.093-2.743-7.628c-0.102-0.274-0.323-0.504-0.548-0.843
		c-0.34,0.707-0.66,1.247-0.866,1.828c-0.5,1.414-1.429,2.425-2.639,3.294c-2.189,1.57-4.302,3.246-6.484,4.906
		c0.976,0.464,1.282,1.218,1.237,2.196c-0.04,0.882-0.001,1.767-0.01,2.65c-0.013,1.258-0.701,2.061-1.747,2.056
		c-1.037-0.005-1.724-0.811-1.739-2.076c-0.015-1.23-0.003-2.461-0.003-3.761c-0.312,0.144-0.577,0.259-0.834,0.387
		c-1.112,0.553-2.229,1.097-3.329,1.672c-0.734,0.384-1.523,0.519-2.086-0.114c-0.912-1.027-2.572-1.623-2.319-3.374
		c0.068-0.472,0.608-1.019,1.072-1.257c0.691-0.354,1.443-0.118,1.936,0.509c0.507,0.644,0.951,0.598,1.663,0.262
		c2.938-1.387,5.643-3.101,8.271-5.024c2.348-1.718,4.146-3.673,5.143-6.425c0.571-1.577,0.502-2.131-1.01-2.931
		c-0.429-0.227-0.899-0.441-1.372-0.506c-0.958-0.131-1.461-0.585-1.686-1.552c-0.421-1.814-1.686-2.871-3.469-3.178
		c-1.019-0.175-1.575-0.61-1.956-1.569c-0.615-1.547-1.867-2.51-3.467-3.316c0,1.027,0.036,1.876-0.009,2.722
		c-0.059,1.121-0.801,1.81-1.817,1.765c-0.975-0.043-1.612-0.742-1.643-1.831c-0.018-0.621-0.004-1.244-0.004-1.865
		c-0.001-1.448-0.882-2.624-2.275-3.037c-2.081-0.617-4.585,0.528-5.665,2.503c-0.389,0.711-0.373,1.29-0.158,2.069
		c0.423,1.53,0.823,3.123,0.828,4.692c0.004,1.222,0.289,1.975,1.363,2.457c0.059,0.026,0.117,0.063,0.165,0.106
		c1.777,1.607,3.843,2.111,6.223,1.926c1.362-0.106,2.588-0.062,3.557-1.293c0.605-0.769,1.702-0.65,2.367,0.002
		c0.675,0.662,0.686,1.703-0.007,2.467c-0.439,0.484-0.947,0.907-1.376,1.399c-0.54,0.619-1.191,0.84-1.999,0.828
		c-2.029-0.029-4.059,0.029-6.086-0.034c-0.585-0.018-1.223-0.221-1.728-0.523c-1.279-0.764-2.497-1.632-3.72-2.445
		c-1.084,1.009-1.277,2.193-1.018,3.484c0.516,2.564,1.18,5.117,0.301,7.737c-0.068,0.202-0.014,0.459,0.03,0.681
		c0.543,2.774,1.356,5.508,1.084,8.452c1.522,0,2.924-0.009,4.326,0.002c1.309,0.01,2.043,0.643,2.037,1.728
		c-0.006,1.075-0.749,1.694-2.066,1.7c-1.636,0.008-3.274-0.029-4.908,0.032c-0.311,0.012-0.786,0.327-0.885,0.608
		c-0.961,2.733-1.208,5.503,0.018,8.222c0.691,1.532,1.348,3.045,1.196,4.777c-0.004,0.045,0.072,0.098,0.184,0.241
		c2.181,0,4.435,0.024,6.688-0.012c0.922-0.015,1.592-0.577,1.757-1.451c0.335-1.776,0.541-3.575,0.803-5.387
		c-0.309-0.03-0.437-0.048-0.566-0.054c-1.447-0.067-2.247-0.719-2.211-1.805c0.036-1.085,0.852-1.682,2.311-1.683
		c2.716-0.002,5.432,0,8.149,0c0.543,0,1.087,0,1.688,0c0-0.589-0.007-1.043,0.001-1.498c0.022-1.192,0.699-1.965,1.717-1.972
		c0.997-0.007,1.876,0.806,1.708,1.961c-0.261,1.799,0.508,2.728,2.096,3.225c0.062,0.019,0.121,0.051,0.179,0.081
		c1.101,0.576,1.48,1.452,1.038,2.396c-0.452,0.966-1.513,1.333-2.583,0.659c-1.918-1.207-3.965-1.559-6.173-1.38
		c-0.813,0.066-1.635,0.012-2.453,0.013c-1.239,0.002-1.458,0.174-1.613,1.428c-0.156,1.265-0.249,2.539-0.396,3.805
		c-0.409,3.518-2.144,5.096-5.695,5.155c-1.799,0.03-3.6,0.006-5.4,0.007c-0.346,0-0.691,0-1.087,0
		c-0.055,3.836-0.157,7.531-3.575,10.101c1.839,1.31,2.736,3.138,3.381,5.172c0.876-0.436,1.624-0.835,2.394-1.186
		c0.97-0.443,1.91-0.151,2.362,0.696c0.477,0.892,0.156,1.846-0.844,2.386c-0.862,0.466-1.735,0.916-2.628,1.318
		c-0.467,0.21-0.526,0.495-0.568,0.976c-0.179,2.073-0.476,4.136-0.657,6.21c-0.035,0.406,0.143,0.945,0.42,1.233
		c0.315,0.326,0.833,0.548,1.295,0.627C130.902,148.648,133.731,147.681,136.364,145.893z M94.786,132.666
		c0.149,0.325,0.178,0.46,0.258,0.552c2.839,3.32,5.971,6.333,9.585,8.799c1.288,0.879,2.806,1.222,4.394,1.119
		c1.747-0.113,3.199-0.774,4.257-2.217c0.21-0.287,0.493-0.525,0.762-0.763c0.783-0.692,1.797-0.697,2.469-0.024
		c0.693,0.693,0.701,1.672-0.029,2.459c-0.645,0.695-1.334,1.35-2.005,2.021c-1.026,1.027-1.057,1.7,0.013,2.725
		c0.382,0.366,0.928,0.725,1.428,0.769c1.288,0.114,2.599,0.14,3.887,0.032c1.406-0.117,2.238-0.976,2.681-2.352
		c0.676-2.099,0.924-4.236,0.61-6.39c-0.205-1.407-0.563-2.842-1.149-4.13c-0.751-1.652-1.999-2.743-4.071-2.571
		c-1.557,0.129-3.136-0.02-4.703,0.01c-0.252,0.005-0.576,0.246-0.733,0.471c-0.861,1.233-1.669,2.503-2.519,3.744
		c-0.687,1.003-1.66,1.24-2.52,0.656c-0.853-0.579-0.999-1.58-0.342-2.59c0.874-1.343,1.778-2.667,2.656-4.007
		c0.156-0.238,0.382-0.541,0.345-0.777c-0.379-2.436,0.664-4.545,1.461-6.718c0.332-0.905,0.593-1.836,0.92-2.862
		c-0.501-0.028-0.822-0.061-1.142-0.061c-2.552-0.003-5.115,0.139-7.654-0.041c-2.051-0.145-3.499,0.231-4.133,2.416
		c-0.126,0.435-0.826,0.928-1.303,0.974c-0.52,0.051-1.333-0.242-1.572-0.647c-0.291-0.494-0.367-1.401-0.099-1.887
		c1.037-1.878,1.735-3.788,1.44-5.966c-0.004-0.032,0.001-0.065,0.003-0.098c0.084-0.979,0.793-1.692,1.694-1.703
		c0.942-0.011,1.685,0.73,1.73,1.759c0.024,0.544,0.004,1.09,0.004,1.716c0.441,0,0.761,0,1.082,0
		c3.207,0.001,6.414-0.023,9.621,0.01c2.659,0.027,3.895,1.432,3.626,4.076c-0.062,0.613-0.195,1.231-0.392,1.814
		c-0.47,1.392-1.013,2.759-1.498,4.146c-0.75,2.144-0.722,2.178,1.506,2.149c1.078-0.014,2.331,0.295,3.196-0.147
		c1.888-0.965,3.727-2.244,3.841-4.705c0.109-2.347,0.084-4.702,0.091-7.053c0.002-0.748,0.122-1.589-0.166-2.227
		c-0.964-2.129-1.761-4.283-1.86-6.804c-4.739,0.385-9.341,0.131-13.816-2.044c0,0.876,0.027,1.461-0.006,2.042
		c-0.061,1.094-0.826,1.845-1.802,1.812c-0.94-0.032-1.64-0.775-1.671-1.833c-0.028-0.948-0.009-1.898-0.007-2.847
		c0.004-2.054,0.819-2.888,2.833-2.552c1.729,0.288,3.411,0.862,5.113,1.314c0.85,0.226,1.69,0.625,2.547,0.663
		c2.188,0.097,4.384,0.052,6.576,0.012c0.252-0.005,0.632-0.292,0.724-0.534c0.528-1.404,1.034-2.821,1.45-4.261
		c0.231-0.799,0.447-1.671,0.363-2.478c-0.173-1.651-0.595-3.275-0.834-4.922c-0.143-0.987-0.391-2.068-0.138-2.981
		c0.536-1.938,0.173-3.724-0.285-5.603c-1.652,0-3.22,0.004-4.788-0.001c-1.341-0.004-2.828-0.386-3.982,0.074
		c-1.15,0.459-1.965,1.756-2.927,2.686c-0.047,0.045-0.092,0.093-0.141,0.137c-0.85,0.762-1.825,0.784-2.535,0.058
		c-0.688-0.703-0.663-1.737,0.129-2.532c0.69-0.692,1.44-1.323,2.338-2.139c-0.916-0.835-1.692-1.487-2.401-2.205
		c-0.733-0.743-0.731-1.784-0.073-2.462c0.674-0.693,1.687-0.719,2.466-0.015c0.582,0.526,1.144,1.079,1.666,1.665
		c0.848,0.95,1.894,1.323,3.147,1.304c1.898-0.03,3.797-0.046,5.693,0.011c0.82,0.025,1.309-0.106,1.527-1.024
		c0.152-0.639,0.672-1.182,0.96-1.799c0.396-0.848,0.899-1.696,1.053-2.596c0.355-2.08-0.363-4.002-1.235-5.854
		c-1.475-3.132-4.715-4.451-7.957-3.261c-1.174,0.431-1.395,1.059-0.716,2.088c0.973,1.474,1.972,2.93,2.93,4.414
		c0.6,0.928,0.408,1.963-0.405,2.507c-0.822,0.55-1.824,0.328-2.471-0.592c-0.639-0.909-1.237-1.848-1.853-2.773
		c-0.987-1.482-3.151-2.258-4.754-1.464c-3.567,1.767-6.234,4.492-7.937,8.104c-0.15,0.317-0.052,0.889,0.145,1.211
		c2.233,3.642,3.169,7.489,2.014,11.71c-0.115,0.418-0.138,0.862-0.223,1.419c0.498,0,0.852,0,1.205,0
		c2.978-0.001,5.956,0.01,8.934-0.01c0.839-0.006,1.527,0.233,2.09,0.872c0.41,0.466,0.886,0.873,1.308,1.328
		c0.77,0.831,0.779,1.826,0.047,2.533c-0.705,0.681-1.656,0.659-2.464-0.065c-0.219-0.196-0.389-0.471-0.637-0.606
		c-0.428-0.234-0.892-0.524-1.354-0.548c-1.371-0.072-2.766,0.116-4.118-0.055c-2.812-0.357-5.122,0.314-6.76,2.747
		c-0.036,0.053-0.09,0.094-0.139,0.139c-0.851,0.782-1.81,0.823-2.535,0.107c-0.701-0.692-0.685-1.729,0.077-2.537
		c0.651-0.69,1.353-1.333,1.998-2.027c0.175-0.188,0.342-0.501,0.317-0.737c-0.27-2.63-0.52-5.264-0.902-7.879
		c-0.159-1.085-0.621-2.126-0.933-3.147c-1.372,0.152-2.174,0.763-2.718,1.655c-0.611,1-1.252,2.019-1.634,3.115
		c-1.224,3.515-2.434,7.042-3.436,10.623c-0.365,1.306-0.197,2.782-0.144,4.176c0.027,0.709,0.34,1.406,0.538,2.165
		c1.462-0.483,2.724-0.926,4.002-1.314c1.144-0.347,2.205,0.289,2.286,1.452c0.089,1.269,0.072,2.554-0.012,3.824
		c-0.062,0.929-0.867,1.553-1.744,1.535c-0.877-0.017-1.577-0.678-1.683-1.612c-0.04-0.348-0.037-0.701-0.057-1.119
		c-1.008,0.314-1.927,0.649-2.872,0.882c-1.016,0.25-1.485,0.897-1.546,1.877c-0.053,0.848-0.016,1.703-0.072,2.551
		c-0.154,2.321,0.337,4.247,2.702,5.344c0.985,0.457,1.112,1.473,0.571,2.447c-0.174,0.314-0.375,0.614-0.563,0.921
		c-1.727,2.811,0.482,7.444,3.777,7.765c1.455,0.142,2.963,0.133,4.403-0.087c1.013-0.155,1.953-0.783,2.926-1.198
		c0.325-0.139,0.641-0.357,0.978-0.397c0.805-0.094,1.383,0.297,1.718,1.029c0.368,0.803,0.102,1.478-0.5,2.032
		c-1.684,1.552-3.741,2.067-5.965,2.087C97.163,132.674,96.061,132.666,94.786,132.666z"/>
</g>
<path fill="#808080" d="M235.833,145.333H193.25v-32.165h42.583L235.833,145.333L235.833,145.333z M196.25,142.333h36.583v-26.165
	H196.25V142.333z"/>
<path fill="#808080" d="M228.562,136.75H200.52v-1.5c0-7.73,6.29-14.021,14.021-14.021s14.021,6.29,14.021,14.021L228.562,136.75
	L228.562,136.75z M203.622,133.75h21.838c-0.734-5.369-5.352-9.521-10.919-9.521S204.357,128.381,203.622,133.75z"/>
<g>
	<line fill="#808080" x1="214.541" y1="135.25" x2="219.416" y2="128"/>
	
		<rect x="215.471" y="127.252" transform="matrix(-0.8298 -0.558 0.558 -0.8298 323.5722 361.9157)" fill="#808080" width="3" height="8.737"/>
</g>
<path fill="#808080" d="M230.916,116.167h-23v-13h23V116.167z M210.916,113.167h17v-7h-17V113.167z"/>
<path fill="#808080" d="M230.916,156h-23v-13h23V156z M210.916,153h17v-7h-17V153z"/>
<path fill="#808080" d="M528.64,181.085c-0.154-0.201-3.752-4.993-2.381-9.595c0.775-2.599,2.902-4.529,6.323-5.738
	c6.691-2.365,8.437-6.934,7.839-10.422c-0.582-3.391-3.647-7.041-9.005-7.041c-4.841,0-5.701,2.775-6.893,6.617
	c-1.152,3.717-2.586,8.343-8.631,9.622c-6.069,1.28-8.68-1.263-10.776-3.309c-1.421-1.386-2.447-2.387-4.385-2.387v-3
	c3.158,0,4.923,1.721,6.479,3.239c1.911,1.863,3.558,3.474,8.061,2.521c4.321-0.914,5.278-4.001,6.387-7.574
	c1.205-3.89,2.706-8.729,9.758-8.729c6.08,0,10.999,3.921,11.962,9.534c1.229,7.165-4.509,11.889-9.796,13.757
	c-2.462,0.87-3.957,2.135-4.445,3.759c-0.941,3.132,1.861,6.893,1.89,6.93L528.64,181.085z"/>
<g>
	<polygon fill="#808080" points="140.865,37.359 137.865,37.359 137.865,29 110.475,29 110.475,37.352 107.475,37.352 107.475,26 
		140.865,26 	"/>
	<path fill="#808080" d="M183.5,168.878H73.625v-11.712h-8.809l0.005-64.769c0.341-26.403,18.239-49.566,43.761-56.493l1.893-0.514
		v0.672h27.39v-0.666l1.894,0.515c25.755,7.002,43.742,30.546,43.742,57.255c0,0.102-0.002,0.203-0.005,0.304l0.005,0.428
		L183.5,168.878L183.5,168.878z M76.625,165.878H180.5v-70.48h-0.018V93.88l0.01-0.362c0.004-0.117,0.009-0.233,0.009-0.352
		c0-25.041-16.654-47.152-40.616-54.104H108.43c-23.963,6.951-40.614,29.059-40.614,54.104c0,0.119,0.004,0.236,0.008,0.354
		l0.028,1.877h-0.036v58.769h8.809V165.878z"/>
</g>
<path fill="#808080" d="M189.815,190.132H73.625V166h116.19V190.132z M76.625,187.132h110.19V169H76.625V187.132z"/>
<polygon fill="#CFCFCF" points="76.625,226.833 21.916,226.833 21.916,154.167 76.625,154.167 76.625,193.833 73.625,193.833 
	73.625,157.167 24.916,157.167 24.916,223.833 73.625,223.833 73.625,188.632 76.625,188.632 "/>
<path fill="#CFCFCF" d="M24.916,211.667H1.25v-45.5h23.666v11.5H12.751v22.5h12.166L24.916,211.667L24.916,211.667z M4.25,208.667
	h17.666v-5.5H9.751v-28.5h12.166v-5.5H4.25V208.667z"/>
<path fill="#CFCFCF" d="M38.75,149.167h-3c0-1.775,0.768-2.735,1.329-3.437c0.447-0.558,0.671-0.838,0.671-1.562
	c0-0.723-0.224-1.003-0.671-1.561c-0.561-0.7-1.329-1.66-1.329-3.436s0.768-2.736,1.329-3.438c0.447-0.559,0.671-0.839,0.671-1.562
	c0-0.725-0.225-1.005-0.671-1.564c-0.561-0.701-1.329-1.661-1.329-3.438c0-1.776,0.768-2.737,1.328-3.438
	c0.447-0.56,0.672-0.84,0.672-1.565h3c0,1.776-0.768,2.737-1.328,3.438c-0.447,0.56-0.672,0.84-0.672,1.565s0.225,1.006,0.672,1.565
	c0.561,0.701,1.328,1.661,1.328,3.438s-0.768,2.736-1.329,3.438c-0.447,0.559-0.671,0.839-0.671,1.562
	c0,0.723,0.224,1.003,0.671,1.561c0.561,0.7,1.329,1.66,1.329,3.436s-0.768,2.735-1.329,3.437
	C38.974,148.164,38.75,148.444,38.75,149.167z"/>
<path fill="#CFCFCF" d="M48.25,149.167h-3c0-1.775,0.768-2.735,1.329-3.437c0.447-0.558,0.671-0.838,0.671-1.562
	c0-0.723-0.224-1.003-0.671-1.561c-0.561-0.7-1.329-1.66-1.329-3.436s0.768-2.736,1.329-3.438c0.447-0.559,0.671-0.839,0.671-1.562
	c0-0.725-0.225-1.005-0.671-1.564c-0.561-0.701-1.329-1.661-1.329-3.438c0-1.776,0.768-2.737,1.328-3.438
	c0.447-0.56,0.672-0.84,0.672-1.565h3c0,1.776-0.768,2.737-1.328,3.438c-0.447,0.56-0.672,0.84-0.672,1.565s0.225,1.006,0.672,1.565
	c0.561,0.701,1.328,1.661,1.328,3.438s-0.768,2.736-1.329,3.438c-0.447,0.559-0.671,0.839-0.671,1.562
	c0,0.723,0.224,1.003,0.671,1.561c0.561,0.7,1.329,1.66,1.329,3.436s-0.768,2.735-1.329,3.437
	C48.474,148.164,48.25,148.444,48.25,149.167z"/>
<path fill="#CFCFCF" d="M57.75,149.167h-3c0-1.775,0.768-2.735,1.329-3.437c0.447-0.558,0.671-0.838,0.671-1.562
	c0-0.723-0.224-1.003-0.671-1.561c-0.561-0.7-1.329-1.66-1.329-3.436s0.768-2.736,1.329-3.438c0.447-0.559,0.671-0.839,0.671-1.562
	c0-0.725-0.225-1.005-0.671-1.564c-0.561-0.701-1.329-1.661-1.329-3.438c0-1.776,0.768-2.737,1.328-3.438
	c0.447-0.56,0.672-0.84,0.672-1.565h3c0,1.776-0.768,2.737-1.328,3.438c-0.447,0.56-0.672,0.84-0.672,1.565s0.225,1.006,0.672,1.565
	c0.561,0.701,1.328,1.661,1.328,3.438s-0.768,2.736-1.329,3.438c-0.447,0.559-0.671,0.839-0.671,1.562
	c0,0.723,0.224,1.003,0.671,1.561c0.561,0.7,1.329,1.66,1.329,3.436s-0.768,2.735-1.329,3.437
	C57.974,148.164,57.75,148.444,57.75,149.167z"/>
<rect x="580.417" y="119.624" fill="#808080" width="5.166" height="3"/>
<rect x="588.917" y="119.624" fill="#808080" width="4" height="3"/>
<rect x="596.25" y="119.624" fill="#808080" width="2.5" height="3"/>
<rect x="580.417" y="132.624" fill="#808080" width="5.166" height="3"/>
<rect x="588.917" y="132.624" fill="#808080" width="4" height="3"/>
<rect x="596.25" y="132.624" fill="#808080" width="2.5" height="3"/>
<polygon fill="#CFCFCF" points="258.67,46.683 255.718,46.15 257.9,34.06 245.794,34.06 247.976,46.15 245.024,46.683 
	242.204,31.06 261.49,31.06 "/>
<path fill="#808080" d="M268.916,89.333h-33v-28h33V89.333z M238.916,86.333h27v-22h-27L238.916,86.333L238.916,86.333z"/>
<path fill="#CFCFCF" d="M545.583,226.667h-31.5v-34.034h31.5V226.667z M517.083,223.667h25.5v-28.034h-25.5V223.667z"/>
<path fill="#CFCFCF" d="M531.333,195.36h-17.25v-16.684h17.25V195.36z M517.083,192.36h11.25v-10.684h-11.25V192.36z"/>
<path fill="#CFCFCF" d="M545.583,195.36h-17.25v-16.684h17.25V195.36z M531.333,192.36h11.25v-10.684h-11.25V192.36z"/>
</svg>
