<?xml version="1.0" encoding="utf-8"?>
<!-- Generator: Adobe Illustrator 17.0.2, SVG Export Plug-In . SVG Version: 6.00 Build 0)  -->
<!DOCTYPE svg PUBLIC "-//W3C//DTD SVG 1.1//EN" "http://www.w3.org/Graphics/SVG/1.1/DTD/svg11.dtd">
<svg version="1.1" xmlns="http://www.w3.org/2000/svg" xmlns:xlink="http://www.w3.org/1999/xlink" x="0px" y="0px" width="800px"
	 height="300px" viewBox="0 0 800 300" enable-background="new 0 0 800 300" xml:space="preserve">
<g id="Calque_2" display="none">
	<rect x="0" display="inline" fill="#242930" width="800" height="300"/>
</g>
<g id="Calque_1">
	<path fill="#B7B7B7" d="M279.987,235.156H79.566l-67.155-67.155l67.155-67.155h200.421l67.155,67.155L279.987,235.156z
		 M80.809,232.156h197.936l64.155-64.155l-64.155-64.155H80.809l-64.155,64.155L80.809,232.156z"/>
	<path fill="#B7B7B7" d="M721.045,235.156H520.624l-67.155-67.155l67.155-67.155h200.421l67.155,67.155L721.045,235.156z
		 M521.866,232.156h197.937l64.155-64.155l-64.155-64.155H521.866l-64.155,64.155L521.866,232.156z"/>
	<g>
		
			<rect x="655.681" y="128.219" transform="matrix(0.7071 0.7071 -0.7071 0.7071 322.7088 -442.6503)" fill="#171C21" width="80" height="80"/>
		<path fill="#B7B7B7" d="M695.68,226.908l-58.689-58.689l58.689-58.689l58.689,58.689L695.68,226.908z M641.233,168.219
			l54.447,54.447l54.447-54.447l-54.447-54.447L641.233,168.219z"/>
	</g>
	<path fill="#B7B7B7" d="M400.177,280.987l-21.501-18.636l0-0.685l-0.074-181.666h43.152l-0.075,182.351L400.177,280.987z
		 M381.675,260.98l18.502,16.036l18.501-16.036l0.073-177.979h-37.149L381.675,260.98z"/>
	<path fill="#B7B7B7" d="M469.677,237.501h-139v-139h139V237.501z M333.677,234.501h133v-133h-133V234.501z"/>
	<g>
		<circle fill="#171C21" cx="400.177" cy="168.001" r="68"/>
		<path fill="#B7B7B7" d="M400.177,237.501c-38.322,0-69.5-31.178-69.5-69.5s31.178-69.5,69.5-69.5s69.5,31.178,69.5,69.5
			S438.5,237.501,400.177,237.501z M400.177,101.501c-36.668,0-66.5,29.832-66.5,66.5c0,36.668,29.832,66.5,66.5,66.5
			c36.668,0,66.5-29.832,66.5-66.5C466.677,131.333,436.845,101.501,400.177,101.501z"/>
	</g>
	<g>
		<circle fill="#171C21" cx="400.6" cy="168.001" r="56.901"/>
		<path fill="#B7B7B7" d="M400.6,226.402c-32.202,0-58.401-26.199-58.401-58.401s26.199-58.4,58.401-58.4s58.4,26.198,58.4,58.4
			S432.802,226.402,400.6,226.402z M400.6,112.601c-30.548,0-55.401,24.853-55.401,55.4c0,30.549,24.853,55.401,55.401,55.401
			c30.548,0,55.4-24.853,55.4-55.401C456.001,137.453,431.148,112.601,400.6,112.601z"/>
	</g>
	<g>
		
			<rect x="50.654" y="114.467" transform="matrix(0.7071 0.7071 -0.7071 0.7071 149.311 -24.4662)" fill="#171C21" width="107.069" height="107.069"/>
		<path fill="#B7B7B7" d="M104.189,245.832l-77.831-77.831l77.831-77.83l77.831,77.83L104.189,245.832z M30.6,168.001l73.588,73.589
			l73.588-73.589l-73.588-73.588L30.6,168.001z"/>
	</g>
	<g>
		
			<rect x="202.444" y="114.091" transform="matrix(0.7071 0.7071 -0.7071 0.7071 193.5034 -131.9077)" fill="#171C21" width="107.069" height="107.069"/>
		<path fill="#B7B7B7" d="M255.978,245.456l-77.831-77.831l77.831-77.83l77.831,77.83L255.978,245.456z M182.39,167.625
			l73.588,73.589l73.588-73.589l-73.588-73.588L182.39,167.625z"/>
	</g>
	<polyline fill="#23363F" points="199.039,168.001 255.608,224.57 312.176,168.001 	"/>
	<g>
		
			<rect x="491.213" y="114.467" transform="matrix(0.7071 0.7071 -0.7071 0.7071 278.3476 -335.9881)" fill="#171C21" width="107.069" height="107.069"/>
		<path fill="#B7B7B7" d="M544.747,245.832l-77.83-77.831l77.83-77.83l77.831,77.83L544.747,245.832z M471.159,168.001
			l73.588,73.589l73.589-73.589l-73.589-73.588L471.159,168.001z"/>
	</g>
	<g>
		
			<rect x="642.631" y="114.467" transform="matrix(0.7071 0.7071 -0.7071 0.7071 322.6971 -443.0573)" fill="#171C21" width="107.069" height="107.069"/>
		<path fill="#B7B7B7" d="M696.166,245.832l-77.83-77.831l77.83-77.83l77.831,77.83L696.166,245.832z M622.578,168.001
			l73.588,73.589l73.589-73.589l-73.589-73.588L622.578,168.001z"/>
	</g>
	<g>
		
			<rect x="504.747" y="128.001" transform="matrix(0.7071 0.7071 -0.7071 0.7071 278.3476 -335.9881)" fill="#171C21" width="80" height="80"/>
		<path fill="#B7B7B7" d="M544.747,226.69l-58.689-58.689l58.689-58.689l58.69,58.689L544.747,226.69z M490.299,168.001
			l54.447,54.447l54.448-54.447l-54.448-54.447L490.299,168.001z"/>
	</g>
	<path fill="#B7B7B7" d="M255.608,226.69l-58.689-58.689l58.689-58.689l58.689,58.689L255.608,226.69z M201.16,168.001
		l54.447,54.447l54.447-54.447l-54.447-54.447L201.16,168.001z"/>
	<polyline fill="#23363F" points="639.233,168.001 695.802,224.57 752.37,168.001 	"/>
	<polyline fill="#23363F" points="488.179,168.001 544.747,224.57 601.316,168.001 	"/>
	<polyline fill="#23363F" points="47.62,168.001 104.189,224.57 160.757,168.001 	"/>
	
		<rect x="671.295" y="157.175" transform="matrix(0.9931 -0.1177 0.1177 0.9931 -14.8832 80.976)" fill="#FFFFFF" width="14.255" height="18.746"/>
	<polygon fill="#CECECE" points="670.242,158.079 676.018,146.25 684.398,156.402 	"/>
	<polygon fill="#FFFFFF" points="677.876,148.283 674.686,148.661 675.719,143.726 675.719,143.726 	"/>
	<path fill="#FFFFFF" d="M712.255,194.739l-6.276-0.597c0,0-1.486-10.185-1-16.898c0.486-6.713,2.421-11.7,2.421-11.7l8.851,0.842
		c0,0,0.802,5.43,0.258,11.042S712.255,194.739,712.255,194.739z"/>
	<path fill="#FFFFFF" d="M719.393,155.687c0.825-8.673-5.061-12.83-7.045-14.401c0.586,2.488,0.584,4.761-1.535,6.876
		c-2.87,2.864-4.039,3.596-4.296,6.301c-0.429,4.508,2.106,8.436,5.662,8.775C715.734,163.575,718.964,160.195,719.393,155.687z"/>
	
		<rect x="707.065" y="161.32" transform="matrix(0.9955 0.0947 -0.0947 0.9955 18.7217 -66.6852)" fill="#CECECE" width="10.003" height="5.241"/>
	<path fill="#FFFFFF" d="M701.083,184.001h-10.805c0,0-2.29-8.78-2.29-14.661c0-5.881,2.29-14.661,2.29-14.661h10.805
		c0,0,2.29,9.917,2.29,14.661C703.374,174.085,701.083,184.001,701.083,184.001z"/>
	<rect x="689.149" y="149.388" fill="#CECECE" width="13.063" height="5.291"/>
	<path fill="#B7B7B7" d="M695.68,226.69l-58.689-58.689l58.689-58.689l58.689,58.689L695.68,226.69z M641.233,168.001l54.447,54.447
		l54.447-54.447l-54.447-54.447L641.233,168.001z"/>
	<path fill="#FFFFFF" d="M691.265,149.388c-0.457-3.819-1.569-4.936-4.771-7.759c2.083-1.295,6.174-7.088,6.545-12.597h4.695
		c0.371,5.509,4.461,11.302,6.545,12.597c-3.203,2.823-4.315,3.941-4.771,7.759H691.265z"/>
	<rect x="694.885" y="129.032" fill="#171C21" width="1" height="13.553"/>
	<circle fill="#171C21" cx="695.386" cy="142.585" r="1.75"/>
	<path fill="#34CE51" d="M711.611,150.142c0,0,0.411,1.773,2.31,0.117c1.898-1.656,2.748,0.1,3.273,0.866
		c0.485,0.707,2.031,0.381,1.786-0.959c-0.013-0.048-0.022-0.101-0.035-0.149c-0.003-0.013-0.008-0.026-0.011-0.039
		c-1.406-4.886-5.078-7.513-6.563-8.69c0.586,2.488,0.584,4.761-1.535,6.876c-0.575,0.574-1.065,1.048-1.51,1.483
		C710.491,148.515,711.406,149.258,711.611,150.142z"/>
	
		<rect x="665.469" y="164.857" transform="matrix(0.1261 0.992 -0.992 0.1261 753.3412 -524.421)" fill="#CECECE" width="17.685" height="1"/>
	
		<rect x="669.024" y="164.973" transform="matrix(0.1362 0.9907 -0.9907 0.1362 749.9884 -529.2164)" fill="#CECECE" width="18.899" height="1"/>
	
		<rect x="672.795" y="164.723" transform="matrix(0.1089 0.994 -0.994 0.1089 772.3632 -531.178)" fill="#CECECE" width="19.338" height="1"/>
	<path fill="#E2E2E2" d="M724.075,189.808v-10.307c0-4.28-12.659-7.75-28.273-7.75c-15.615,0-28.274,3.47-28.274,7.75v9.578
		l28.683,28.489L724.075,189.808z"/>
	<path fill="#848484" d="M696.212,217.648l27.864-27.761V179.58c0-4.28-12.659-7.75-28.273-7.75L696.212,217.648z"/>
	<circle fill="#B7B7B7" cx="696.166" cy="188.876" r="8.125"/>
	<g>
		<rect x="522.121" y="135.558" fill="#FFFFFF" width="45.555" height="45.555"/>
		<path fill="#B7B7B7" d="M569.676,183.113h-49.555v-49.555h49.555V183.113z M524.122,179.113h41.555v-41.555h-41.555V179.113z"/>
	</g>
	<rect x="520.177" y="169.341" fill="#B7B7B7" width="49.5" height="13.661"/>
	<rect x="532.177" y="140.334" fill="#CECECE" width="17.416" height="2"/>
	<rect x="532.177" y="143.668" fill="#CECECE" width="30.167" height="2"/>
	<rect x="532.177" y="147.001" fill="#D85B5B" width="27.083" height="2"/>
	<rect x="532.177" y="150.335" fill="#CECECE" width="21.583" height="2"/>
	<rect x="532.177" y="153.668" fill="#CECECE" width="29.083" height="2"/>
	<rect x="532.177" y="157.001" fill="#CECECE" width="8.708" height="2"/>
	<rect x="532.177" y="160.335" fill="#CECECE" width="24.249" height="2"/>
	<rect x="532.177" y="163.668" fill="#CECECE" width="16.083" height="2"/>
	<rect x="527.51" y="140.334" fill="#CECECE" width="2" height="2"/>
	<rect x="527.51" y="143.668" fill="#CECECE" width="2" height="2"/>
	<rect x="527.51" y="147.001" fill="#CECECE" width="2" height="2"/>
	<rect x="527.51" y="150.335" fill="#CECECE" width="2" height="2"/>
	<rect x="527.51" y="153.668" fill="#CECECE" width="2" height="2"/>
	<rect x="527.51" y="157.001" fill="#CECECE" width="2" height="2"/>
	<rect x="527.51" y="160.335" fill="#CECECE" width="2" height="2"/>
	<rect x="527.51" y="163.668" fill="#CECECE" width="2" height="2"/>
	<circle fill="#848484" cx="561.26" cy="176.171" r="3.833"/>
	<circle fill="#848484" cx="549.593" cy="176.171" r="3.833"/>
	<rect x="524.802" y="173.626" fill="#848484" width="5" height="5"/>
	<g>
		<defs>
			
				<rect id="SVGID_1_" x="504.927" y="128.001" transform="matrix(0.7071 0.7071 -0.7071 0.7071 278.4001 -336.1151)" width="80" height="80"/>
		</defs>
		<clipPath id="SVGID_2_">
			<use xlink:href="#SVGID_1_"  overflow="visible"/>
		</clipPath>
		<g clip-path="url(#SVGID_2_)">
			<polygon fill="#848484" points="569.677,200.335 544.747,224.57 520.177,200.335 520.177,185.841 569.677,185.841 			"/>
			<g>
				<g>
					<circle fill="#E2E2E2" cx="525.524" cy="191.572" r="2.722"/>
					<circle fill="#E2E2E2" cx="533.285" cy="191.572" r="2.722"/>
					<circle fill="#E2E2E2" cx="541.046" cy="191.572" r="2.722"/>
					<circle fill="#E2E2E2" cx="548.807" cy="191.572" r="2.722"/>
					<circle fill="#E2E2E2" cx="556.568" cy="191.572" r="2.722"/>
					<circle fill="#E2E2E2" cx="564.329" cy="191.572" r="2.722"/>
				</g>
				<g>
					<circle fill="#E2E2E2" cx="525.524" cy="198.751" r="2.722"/>
					<circle fill="#E2E2E2" cx="533.285" cy="198.751" r="2.722"/>
					<circle fill="#E2E2E2" cx="541.046" cy="198.751" r="2.722"/>
					<circle fill="#E2E2E2" cx="548.807" cy="198.751" r="2.722"/>
					<circle fill="#E2E2E2" cx="556.568" cy="198.751" r="2.722"/>
					<circle fill="#E2E2E2" cx="564.329" cy="198.751" r="2.722"/>
				</g>
				<g>
					<circle fill="#E2E2E2" cx="525.524" cy="205.931" r="2.722"/>
					<circle fill="#E2E2E2" cx="533.285" cy="205.931" r="2.722"/>
					<circle fill="#E2E2E2" cx="541.046" cy="205.931" r="2.722"/>
					<circle fill="#E2E2E2" cx="548.807" cy="205.931" r="2.722"/>
					<circle fill="#E2E2E2" cx="556.568" cy="205.931" r="2.722"/>
					<circle fill="#E2E2E2" cx="564.329" cy="205.931" r="2.722"/>
				</g>
				<g>
					<circle fill="#E2E2E2" cx="533.285" cy="213.11" r="2.722"/>
					<circle fill="#E2E2E2" cx="541.046" cy="213.11" r="2.722"/>
					<circle fill="#E2E2E2" cx="548.807" cy="213.11" r="2.722"/>
					<circle fill="#E2E2E2" cx="556.568" cy="213.11" r="2.722"/>
				</g>
				<g>
					<circle fill="#E2E2E2" cx="541.046" cy="220.29" r="2.722"/>
					<circle fill="#E2E2E2" cx="548.807" cy="220.29" r="2.722"/>
				</g>
			</g>
		</g>
	</g>
	<rect x="569.677" y="158.336" fill="#848484" width="5.5" height="17.835"/>
	<rect x="514.677" y="158.336" fill="#848484" width="5.5" height="17.835"/>
	<rect x="575.177" y="161.335" fill="#E2E2E2" width="20.25" height="1.917"/>
	<rect x="543.789" y="111.433" fill="#E2E2E2" width="1.917" height="16.569"/>
	<rect x="540.844" y="113.126" fill="#E2E2E2" width="1.917" height="14.875"/>
	<rect x="546.706" y="113.126" fill="#E2E2E2" width="1.917" height="14.875"/>
	<rect x="575.177" y="164.668" fill="#E2E2E2" width="23.875" height="1.917"/>
	<rect x="575.177" y="168.001" fill="#E2E2E2" width="23.875" height="1.917"/>
	<rect x="575.177" y="171.335" fill="#E2E2E2" width="20.25" height="1.917"/>
	<rect x="494.427" y="161.335" fill="#E2E2E2" width="20.25" height="1.917"/>
	<rect x="490.802" y="164.668" fill="#E2E2E2" width="23.875" height="1.917"/>
	<rect x="490.802" y="168.001" fill="#E2E2E2" width="23.875" height="1.917"/>
	<rect x="494.427" y="171.335" fill="#E2E2E2" width="20.25" height="1.917"/>
	<path fill="#B7B7B7" d="M544.747,226.69l-58.689-58.689l58.689-58.689l58.69,58.689L544.747,226.69z M490.299,168.001
		l54.447,54.447l54.448-54.447l-54.448-54.447L490.299,168.001z"/>
	<polygon fill="#B7B7B7" points="526.511,206.334 562.983,206.334 544.747,224.57 	"/>
	<path fill="#848484" d="M536.179,133.564c0-4.732,3.836-8.568,8.568-8.568s8.568,3.836,8.568,8.568H536.179z"/>
	<rect x="367.263" y="151.685" fill="#FFFFFF" width="65.829" height="43.305"/>
	<polygon fill="#E2E2E2" points="365.849,194.857 400.568,179.142 434.506,194.857 400.568,217.007 	"/>
	<polygon fill="#848484" points="400.568,217.007 434.506,194.857 400.568,179.142 	"/>
	<polygon fill="#E2E2E2" points="365.767,169.109 434.588,169.109 434.588,149.864 400.177,131.74 365.767,149.864 	"/>
	<polyline fill="#848484" points="400.177,169.109 434.588,169.109 434.588,149.864 400.177,131.74 	"/>
	<g>
		<polyline fill="#CECECE" points="423.881,169.109 416.448,175.42 409.014,169.109 		"/>
		<polyline fill="#CECECE" points="391.341,169.109 383.907,175.42 376.473,169.109 		"/>
	</g>
	<polyline fill="#B7B7B7" points="400.177,162.53 376.473,132.608 391.341,136.348 400.177,116.711 409.014,136.348 
		423.881,132.608 400.177,162.53 	"/>
	<polygon fill="#848484" points="400.177,116.711 409.014,136.348 400.177,162.53 	"/>
	<polygon fill="#E2E2E2" points="400.177,116.711 391.341,136.348 400.177,162.53 	"/>
	<g>
		<line fill="#242930" x1="441.677" y1="81.501" x2="358.677" y2="81.501"/>
		<rect x="358.677" y="80.001" fill="#B7B7B7" width="83" height="3"/>
	</g>
	<g>
		<line fill="#242930" x1="432.427" y1="74" x2="367.927" y2="74"/>
		<rect x="367.927" y="72.5" fill="#B7B7B7" width="64.5" height="3"/>
	</g>
	<g>
		<line fill="#242930" x1="414.344" y1="26" x2="386.011" y2="26"/>
		<rect x="386.011" y="24.5" fill="#B7B7B7" width="28.333" height="3"/>
	</g>
	<g>
		<line fill="#242930" x1="414.344" y1="19" x2="386.011" y2="19"/>
		<rect x="386.011" y="17.5" fill="#B7B7B7" width="28.333" height="3"/>
	</g>
	<g>
		<rect x="392.927" y="26" fill="#FFFFFF" width="14.5" height="47.501"/>
		<path fill="#B7B7B7" d="M408.927,75h-17.5V24.5h17.5V75z M394.427,72h11.5V27.5h-11.5V72z"/>
	</g>
	<g>
		<line fill="#242930" x1="407.427" y1="28.833" x2="392.927" y2="35.167"/>
		
			<rect x="398.677" y="24.088" transform="matrix(0.4004 0.9163 -0.9163 0.4004 269.2724 -347.5129)" fill="#B7B7B7" width="3" height="15.823"/>
	</g>
	<g>
		<line fill="#242930" x1="407.427" y1="38.026" x2="392.927" y2="44.359"/>
		
			<rect x="398.677" y="33.281" transform="matrix(0.4004 0.9163 -0.9163 0.4004 277.6963 -342.0007)" fill="#B7B7B7" width="3" height="15.823"/>
	</g>
	<g>
		<line fill="#242930" x1="407.427" y1="47.219" x2="392.927" y2="53.552"/>
		
			<rect x="398.677" y="42.474" transform="matrix(0.4004 0.9163 -0.9163 0.4004 286.1198 -336.4888)" fill="#B7B7B7" width="3" height="15.823"/>
	</g>
	<g>
		<line fill="#242930" x1="407.427" y1="56.411" x2="392.927" y2="62.745"/>
		
			<rect x="398.677" y="51.666" transform="matrix(0.4004 0.9163 -0.9163 0.4004 294.5435 -330.9768)" fill="#B7B7B7" width="3" height="15.823"/>
	</g>
	<g>
		<line fill="#242930" x1="407.427" y1="65.604" x2="392.927" y2="71.937"/>
		
			<rect x="398.677" y="60.859" transform="matrix(0.4004 0.9163 -0.9163 0.4004 302.9673 -325.4647)" fill="#B7B7B7" width="3" height="15.823"/>
	</g>
	<path fill="#B7B7B7" d="M344.427,124.364c-7.13,0-12.932-5.801-12.932-12.932s5.801-12.932,12.932-12.932
		s12.932,5.801,12.932,12.932S351.558,124.364,344.427,124.364z M344.427,101.501c-5.477,0-9.932,4.455-9.932,9.932
		s4.455,9.932,9.932,9.932s9.932-4.455,9.932-9.932S349.904,101.501,344.427,101.501z"/>
	<path fill="#B7B7B7" d="M456.746,124.364c-7.131,0-12.932-5.801-12.932-12.932s5.801-12.932,12.932-12.932
		s12.932,5.801,12.932,12.932S463.877,124.364,456.746,124.364z M456.746,101.501c-5.477,0-9.932,4.455-9.932,9.932
		s4.455,9.932,9.932,9.932s9.932-4.455,9.932-9.932S462.222,101.501,456.746,101.501z"/>
	<path fill="#B7B7B7" d="M344.427,237.501c-7.13,0-12.932-5.801-12.932-12.932c0-7.13,5.801-12.931,12.932-12.931
		s12.932,5.801,12.932,12.931C357.359,231.7,351.558,237.501,344.427,237.501z M344.427,214.639c-5.477,0-9.932,4.455-9.932,9.931
		c0,5.477,4.455,9.932,9.932,9.932s9.932-4.455,9.932-9.932C354.359,219.094,349.904,214.639,344.427,214.639z"/>
	<path fill="#B7B7B7" d="M456.746,237.501c-7.131,0-12.932-5.801-12.932-12.932c0-7.13,5.801-12.931,12.932-12.931
		s12.932,5.801,12.932,12.931C469.677,231.7,463.877,237.501,456.746,237.501z M456.746,214.639c-5.477,0-9.932,4.455-9.932,9.931
		c0,5.477,4.455,9.932,9.932,9.932s9.932-4.455,9.932-9.932C466.677,219.094,462.222,214.639,456.746,214.639z"/>
	<rect x="618.957" y="102.346" fill="#B7B7B7" width="3" height="131.311"/>
	<rect x="178.277" y="102.346" fill="#B7B7B7" width="3" height="131.311"/>
	<g>
		<circle fill="#171C21" cx="620.457" cy="168.001" r="11.431"/>
		<path fill="#B7B7B7" d="M620.457,180.933c-7.131,0-12.932-5.801-12.932-12.932s5.801-12.932,12.932-12.932
			s12.932,5.801,12.932,12.932S627.588,180.933,620.457,180.933z M620.457,158.069c-5.477,0-9.932,4.455-9.932,9.932
			s4.455,9.932,9.932,9.932s9.932-4.455,9.932-9.932S625.933,158.069,620.457,158.069z"/>
	</g>
	<g>
		<circle fill="#171C21" cx="179.898" cy="168.001" r="11.431"/>
		<path fill="#B7B7B7" d="M179.898,180.933c-7.13,0-12.931-5.801-12.931-12.932s5.801-12.932,12.931-12.932
			s12.932,5.801,12.932,12.932S187.028,180.933,179.898,180.933z M179.898,158.069c-5.476,0-9.931,4.455-9.931,9.932
			s4.455,9.932,9.931,9.932c5.477,0,9.932-4.455,9.932-9.932S185.375,158.069,179.898,158.069z"/>
	</g>
	<g>
		<line fill="#171C21" x1="167.322" y1="112.347" x2="192.474" y2="112.347"/>
		<rect x="167.322" y="110.847" fill="#B7B7B7" width="25.152" height="3"/>
	</g>
	<g>
		<polygon fill="#171C21" points="156.499,204.477 167.322,193.654 192.474,193.654 202.826,204.006 179.898,226.934 		"/>
		<path fill="#B7B7B7" d="M179.92,229.033l-25.564-24.534l12.345-12.345h26.395l11.853,11.852L179.92,229.033z M158.643,204.454
			l21.234,20.38l20.828-20.828l-8.852-8.852h-23.91L158.643,204.454z"/>
	</g>
	<g>
		<polygon fill="#171C21" points="597.293,204.477 608.116,193.654 633.268,193.654 643.62,204.006 620.692,226.934 		"/>
		<path fill="#B7B7B7" d="M620.714,229.033l-25.563-24.534l12.345-12.345h26.395l11.852,11.852L620.714,229.033z M599.437,204.454
			l21.233,20.38l20.828-20.828l-8.852-8.852h-23.91L599.437,204.454z"/>
	</g>
	<g>
		<line fill="#171C21" x1="607.88" y1="112.347" x2="633.033" y2="112.347"/>
		<rect x="607.881" y="110.847" fill="#B7B7B7" width="25.152" height="3"/>
	</g>
	<g>
		<path fill="#171C21" d="M114.985,155.428v-8.303H93.457v8.622c-7.507,3.977-12.624,11.865-12.624,20.952
			c0,13.088,10.61,23.699,23.699,23.699s23.699-10.61,23.699-23.699C128.231,167.363,122.83,159.291,114.985,155.428z"/>
		<path fill="#B7B7B7" d="M104.532,201.897c-13.895,0-25.198-11.305-25.198-25.199c0-9.051,4.813-17.335,12.624-21.836v-9.237
			h24.527v8.889c8.195,4.411,13.246,12.826,13.246,22.185C129.731,190.593,118.426,201.897,104.532,201.897z M94.957,148.625v8.025
			l-0.798,0.422c-7.294,3.864-11.826,11.385-11.826,19.626c0,12.24,9.958,22.199,22.198,22.199s22.199-9.959,22.199-22.199
			c0-8.521-4.755-16.156-12.409-19.925l-0.837-0.412v-7.736H94.957z"/>
	</g>
	<g>
		<rect x="98.427" y="139.709" fill="#171C21" width="12.25" height="7.375"/>
		<path fill="#B7B7B7" d="M112.177,148.584h-15.25v-10.375h15.25V148.584z M99.927,145.584h9.25v-4.375h-9.25V145.584z"/>
	</g>
	<path fill="#FFFFFF" d="M106.993,174.912c-12.079,6.891-20.355,0.378-21.805-0.909c-0.135,0.927-0.228,1.867-0.228,2.831
		c0,10.794,8.75,19.544,19.544,19.544c10.794,0,19.544-8.75,19.544-19.544c0-1.106-0.114-2.183-0.29-3.239
		C122.416,172.749,116.468,169.704,106.993,174.912z"/>
	<path fill="#B7B7B7" d="M104.189,226.69l-58.689-58.689l58.689-58.689l58.69,58.689L104.189,226.69z M49.741,168.001l54.447,54.447
		l54.448-54.447l-54.448-54.447L49.741,168.001z"/>
	<circle fill="#FFFFFF" cx="109.677" cy="165.865" r="2.228"/>
	<circle fill="#5DC6C3" cx="101.435" cy="170.865" r="3.261"/>
	<circle fill="#FFFFFF" cx="97.24" cy="164" r="1.542"/>
	<circle fill="#FFFFFF" cx="103.47" cy="159.125" r="1.034"/>
	<rect x="320.6" y="190.923" fill="#B7B7B7" width="3" height="36.979"/>
	<rect x="310.471" y="200.667" fill="#B7B7B7" width="3" height="26.903"/>
	<rect x="300.471" y="211.052" fill="#B7B7B7" width="3" height="16.519"/>
	<rect x="476.798" y="190.923" fill="#B7B7B7" width="3" height="36.979"/>
	<rect x="486.926" y="200.667" fill="#B7B7B7" width="3" height="26.903"/>
	<rect x="496.927" y="211.052" fill="#B7B7B7" width="3" height="16.519"/>
	<rect x="468.177" y="133.78" fill="#B7B7B7" width="33.247" height="3"/>
	<rect x="468.177" y="120.667" fill="#B7B7B7" width="33.247" height="3"/>
	<rect x="298.596" y="133.78" fill="#B7B7B7" width="33.582" height="3"/>
	<rect x="298.931" y="120.667" fill="#B7B7B7" width="33.247" height="3"/>
	<rect x="102.689" y="121.25" fill="#B7B7B7" width="3" height="10.75"/>
	
		<rect x="120.512" y="131.639" transform="matrix(0.7071 0.7071 -0.7071 0.7071 132.7085 -46.1083)" fill="#B7B7B7" width="3" height="11"/>
	
		<rect x="80.958" y="135.639" transform="matrix(0.7071 0.7071 -0.7071 0.7071 122.2949 -20.9677)" fill="#B7B7B7" width="11" height="3"/>
	<g>
		<path fill="#FFFFFF" d="M271.71,161.656l-31.779-0.007c-8.387-0.051-15.227,6.706-15.278,15.093
			c-0.051,8.387,6.706,15.227,15.093,15.278c4.41,0.027,8.381-1.841,11.174-4.827l9.492-0.129c2.756,3.02,6.703,4.935,11.114,4.962
			c8.387,0.051,15.227-6.706,15.278-15.093C286.854,168.547,280.097,161.707,271.71,161.656z"/>
		<polygon fill="#CECECE" points="245.707,174.929 241.052,174.901 241.08,170.245 237.199,170.222 237.17,174.877 232.514,174.849 
			232.491,178.73 237.147,178.759 237.118,183.414 241,183.438 241.028,178.782 245.684,178.811 		"/>
		<circle fill="#5DC6C3" cx="272.146" cy="171.163" r="2.37"/>
		<circle fill="#D85B5B" cx="277.728" cy="176.813" r="2.37"/>
		<circle fill="#34CE51" cx="266.287" cy="176.95" r="2.37"/>
		<circle fill="#B7B7B7" cx="271.869" cy="182.601" r="2.37"/>
	</g>
	<g>
		<path fill="#171C21" d="M255.608,161.757c0-3.473,4.477-5.187,12.934-5.187c3.676,0,6.655-2.98,6.655-6.655
			c0-3.676-2.98-6.655-6.655-6.655c-10.309,0-17.676,7.908-27.208,7.908l0,0c-6.492,0-10.667-3.5-10.667-9.333
			c0-5.46,4.425-10.333,10.917-10.333c7.26,0,11.344,6.715,19.137,6.715c4.432,0,8.024-3.592,8.024-8.024s-3.592-8.024-8.024-8.024
			c-4.168,0-8.174,0.35-8.174-7.673"/>
		<path fill="#B7B7B7" d="M257.108,161.757h-3c0-4.438,4.856-6.688,14.434-6.688c2.843,0,5.155-2.312,5.155-5.155
			s-2.312-5.155-5.155-5.155c-4.928,0-9.298,2-13.524,3.934c-4.27,1.954-8.684,3.974-13.684,3.974
			c-7.391,0-12.167-4.252-12.167-10.833c0-6.636,5.454-11.833,12.417-11.833c3.969,0,7.018,1.764,9.966,3.47
			c2.884,1.669,5.608,3.245,9.171,3.245c3.597,0,6.524-2.927,6.524-6.524c0-3.597-2.927-6.524-6.524-6.524l-0.497,0.001
			c-2.509,0.005-5.092,0.017-6.984-1.868c-1.476-1.471-2.193-3.86-2.193-7.306h3c0,2.571,0.441,4.314,1.311,5.181
			c1.009,1.006,2.792,1.005,4.856,0.993l0.507-0.001c5.251,0,9.524,4.272,9.524,9.524c0,5.252-4.272,9.524-9.524,9.524
			c-4.368,0-7.574-1.854-10.673-3.648c-2.726-1.577-5.3-3.066-8.463-3.066c-5.895,0-9.417,4.491-9.417,8.833
			c0,4.905,3.427,7.833,9.167,7.833c4.346,0,8.275-1.798,12.435-3.702c4.519-2.068,9.191-4.206,14.773-4.206
			c4.497,0,8.155,3.658,8.155,8.155s-3.658,8.155-8.155,8.155C261.275,158.069,257.108,159.413,257.108,161.757z"/>
	</g>
</g>
</svg>
