<?xml version="1.0" encoding="utf-8"?>
<!-- Generator: Adobe Illustrator 17.0.2, SVG Export Plug-In . SVG Version: 6.00 Build 0)  -->
<!DOCTYPE svg PUBLIC "-//W3C//DTD SVG 1.1//EN" "http://www.w3.org/Graphics/SVG/1.1/DTD/svg11.dtd">
<svg version="1.1" id="Calque_1" xmlns="http://www.w3.org/2000/svg" xmlns:xlink="http://www.w3.org/1999/xlink" x="0px" y="0px"
	 width="30px" height="30px" viewBox="113 113 30 30" enable-background="new 113 113 30 30" xml:space="preserve">
<g>
	<path fill="#020202" d="M128,114c-7.927,0-14.355,6.427-14.355,14.355c0,6.342,4.113,11.723,9.817,13.621
		c0.717,0.133,0.981-0.311,0.981-0.691c0-0.342-0.013-1.473-0.02-2.673c-3.993,0.868-4.836-1.694-4.836-1.694
		c-0.653-1.659-1.594-2.1-1.594-2.1c-1.302-0.891,0.098-0.873,0.098-0.873c1.441,0.101,2.2,1.479,2.2,1.479
		c1.28,2.195,3.358,1.56,4.177,1.193c0.129-0.928,0.501-1.561,0.911-1.919c-3.188-0.363-6.54-1.594-6.54-7.094
		c0-1.567,0.561-2.848,1.479-3.853c-0.149-0.362-0.64-1.822,0.139-3.799c0,0,1.205-0.386,3.948,1.471
		c1.145-0.318,2.373-0.478,3.593-0.483c1.22,0.006,2.449,0.165,3.596,0.483c2.74-1.857,3.944-1.471,3.944-1.471
		c0.781,1.977,0.29,3.437,0.141,3.799c0.92,1.005,1.477,2.286,1.477,3.853c0,5.513-3.358,6.727-6.554,7.083
		c0.515,0.445,0.974,1.319,0.974,2.658c0,1.921-0.017,3.466-0.017,3.939c0,0.382,0.258,0.83,0.986,0.689
		c5.7-1.9,9.808-7.279,9.808-13.619C142.354,120.426,135.928,114,128,114z M119.022,134.448c-0.032,0.071-0.144,0.093-0.246,0.044
		c-0.104-0.047-0.163-0.144-0.129-0.216c0.031-0.073,0.143-0.094,0.247-0.045C118.999,134.278,119.058,134.377,119.022,134.448z
		 M119.728,135.078c-0.068,0.063-0.202,0.034-0.293-0.066c-0.094-0.1-0.111-0.234-0.042-0.298c0.071-0.063,0.2-0.034,0.294,0.066
		C119.781,134.881,119.799,135.014,119.728,135.078z M120.212,135.884c-0.088,0.061-0.232,0.004-0.321-0.124
		c-0.088-0.128-0.088-0.281,0.002-0.342c0.089-0.061,0.231-0.006,0.321,0.121C120.302,135.669,120.302,135.822,120.212,135.884z
		 M121.032,136.818c-0.079,0.087-0.246,0.063-0.369-0.055c-0.125-0.116-0.16-0.28-0.082-0.367c0.08-0.087,0.248-0.062,0.372,0.055
		C121.077,136.567,121.115,136.732,121.032,136.818z M122.09,137.133c-0.035,0.112-0.196,0.164-0.359,0.116
		c-0.162-0.049-0.269-0.181-0.236-0.294c0.034-0.113,0.196-0.166,0.36-0.115C122.018,136.888,122.124,137.019,122.09,137.133z
		 M123.295,137.267c0.004,0.118-0.134,0.217-0.304,0.219c-0.172,0.004-0.31-0.092-0.312-0.208c0-0.12,0.135-0.217,0.306-0.22
		C123.156,137.054,123.295,137.149,123.295,137.267z M124.479,137.221c0.02,0.116-0.098,0.234-0.268,0.266
		c-0.167,0.03-0.321-0.041-0.342-0.155c-0.021-0.118,0.1-0.237,0.266-0.268C124.305,137.035,124.457,137.104,124.479,137.221z"/>
</g>
</svg>
