<?xml version="1.0" encoding="utf-8"?>
<!-- Generator: Adobe Illustrator 17.0.2, SVG Export Plug-In . SVG Version: 6.00 Build 0)  -->
<!DOCTYPE svg PUBLIC "-//W3C//DTD SVG 1.1//EN" "http://www.w3.org/Graphics/SVG/1.1/DTD/svg11.dtd">
<svg version="1.1" id="Calque_1" xmlns="http://www.w3.org/2000/svg" xmlns:xlink="http://www.w3.org/1999/xlink" x="0px" y="0px"
	 width="170px" height="34px" viewBox="0 0 170 34" enable-background="new 0 0 170 34" xml:space="preserve">
<g>
	<polygon fill="#502F2D" points="71,33.5 71,23.5 48.5,23.5 48.5,11.5 0.5,11.5 0.5,0.5 169.5,0.5 169.5,11.5 121.5,11.5 
		121.5,23.5 99,23.5 99,33.5 	"/>
	<path fill="#C77966" d="M169,1v10h-47h-1v1v11H99.5h-1v1v9h-27v-9v-1h-1H49V12v-1h-1H1V1H169 M170,0H0v12h48v12h22.5v10h29V24H122
		V12h48V0L170,0z"/>
</g>
</svg>
