<?xml version="1.0" encoding="utf-8"?>
<!-- Generator: Adobe Illustrator 17.0.2, SVG Export Plug-In . SVG Version: 6.00 Build 0)  -->
<!DOCTYPE svg PUBLIC "-//W3C//DTD SVG 1.1//EN" "http://www.w3.org/Graphics/SVG/1.1/DTD/svg11.dtd">
<svg version="1.1" id="Calque_1" xmlns="http://www.w3.org/2000/svg" xmlns:xlink="http://www.w3.org/1999/xlink" x="0px" y="0px"
	 width="50px" height="50px" viewBox="0 0 50 50" enable-background="new 0 0 50 50" xml:space="preserve">
<path fill="#E2CDA3" stroke="#8C6C42" stroke-width="1.5" stroke-miterlimit="10" d="M14.621,13.889
	c0,5.983,10.832,10.832,10.832,10.832s10.832-4.85,10.832-10.832V6.646H14.621V13.889z"/>
<path fill="#8C6C42" d="M25.454,24.721c0,0,6.53-2.925,9.449-7.034H16.005C18.924,21.796,25.454,24.721,25.454,24.721z"/>
<path fill="#E2CDA3" stroke="#8C6C42" stroke-width="1.5" stroke-miterlimit="10" d="M14.621,35.554
	c0-5.983,10.832-10.832,10.832-10.832s10.832,4.85,10.832,10.832v7.243H14.621V35.554z"/>
<rect x="8.408" y="3.056" fill="#E2CDA3" stroke="#8C6C42" stroke-width="1.5" stroke-miterlimit="10" width="34.092" height="5.826"/>
<rect x="36.286" y="9.117" fill="#E2CDA3" stroke="#8C6C42" stroke-width="1.5" stroke-miterlimit="10" width="3.158" height="32.106"/>
<rect x="11.464" y="9.117" fill="#E2CDA3" stroke="#8C6C42" stroke-width="1.5" stroke-miterlimit="10" width="3.158" height="32.106"/>
<rect x="8.408" y="41.053" fill="#E2CDA3" stroke="#8C6C42" stroke-width="1.5" stroke-miterlimit="10" width="34.092" height="5.826"/>
<polygon fill="#8C6C42" points="36.286,41.223 14.621,41.223 14.621,36.128 25.454,34.333 36.286,36.128 "/>
<rect x="24.908" y="23.75" fill="#8C6C42" width="1.092" height="13.667"/>
</svg>
