<?xml version="1.0" encoding="utf-8"?>
<!-- Generator: Adobe Illustrator 17.0.2, SVG Export Plug-In . SVG Version: 6.00 Build 0)  -->
<!DOCTYPE svg PUBLIC "-//W3C//DTD SVG 1.1//EN" "http://www.w3.org/Graphics/SVG/1.1/DTD/svg11.dtd">
<svg version="1.1" id="Calque_1" xmlns="http://www.w3.org/2000/svg" xmlns:xlink="http://www.w3.org/1999/xlink" x="0px" y="0px"
	 width="352px" height="118px" viewBox="0 0 352 118" enable-background="new 0 0 352 118" xml:space="preserve">
<g>
	<path fill="#502F2D" d="M176,117.5c-26.126,0-47.734-19.582-50.26-45.549l-0.044-0.451H0.5v-11h125.413l0.059-0.432
		c2.985-21.744,19.508-38.937,41.116-42.785l0.413-0.073V0.5h17v16.71l0.412,0.073c21.608,3.848,38.132,21.041,41.116,42.785
		l0.06,0.432H351.5v11H226.304l-0.044,0.451C223.734,97.918,202.127,117.5,176,117.5z"/>
	<path fill="#C77966" d="M184,1v15.792v0.838l0.825,0.147c10.413,1.854,19.817,6.884,27.195,14.546
		c7.397,7.681,12.07,17.299,13.513,27.814L225.651,61h0.872H351v10H226.758h-0.907l-0.088,0.903
		c-1.197,12.297-6.904,23.676-16.07,32.041C200.466,112.363,188.501,117,176,117s-24.466-4.637-33.693-13.056
		c-9.166-8.365-14.874-19.743-16.07-32.041L126.149,71h-0.907H1V61h124.476h0.872l0.119-0.864
		c1.443-10.515,6.116-20.133,13.513-27.814c7.378-7.662,16.782-12.692,27.195-14.546L168,17.629v-0.838V1H184 M185,0h-18v16.792
		C145.385,20.64,128.482,38.105,125.476,60H0v12h125.242c2.512,25.82,24.278,46,50.758,46s48.246-20.18,50.758-46H352V60H226.524
		C223.518,38.105,206.615,20.64,185,16.792V0L185,0z"/>
</g>
</svg>
