<?xml version="1.0" encoding="utf-8"?>
<!-- Generator: Adobe Illustrator 17.0.2, SVG Export Plug-In . SVG Version: 6.00 Build 0)  -->
<!DOCTYPE svg PUBLIC "-//W3C//DTD SVG 1.1//EN" "http://www.w3.org/Graphics/SVG/1.1/DTD/svg11.dtd">
<svg version="1.1" id="Calque_1" xmlns="http://www.w3.org/2000/svg" xmlns:xlink="http://www.w3.org/1999/xlink" x="0px" y="0px"
	 width="120px" height="120px" viewBox="0 0 120 120" enable-background="new 0 0 120 120" xml:space="preserve">
<g>
	<path fill="#79C606" d="M103.86,89.779c-4.559,0.935-5.758-2.224-6.07-4.198c1.741-1.108,3.074-2.682,3.738-4.637
		c0.913-2.692,0.389-5.585-1.193-8.082c0.171-0.171,0.344-0.338,0.502-0.526c2.744-3.256,2.653-8.106,0.173-12.22
		c2.522-4.36,0.977-10.651-3.876-14.74c-2.514-2.119-5.46-3.253-8.256-3.419c0.52-1.248,0.778-2.582,0.693-3.96
		c-0.054-0.879-0.253-1.72-0.553-2.523c0.268-1.136,0.864-2.628,2.178-4.101c2.665-2.989,4.666-4.563,4.666-4.563
		s-1.335-1.532-3.335,0c-2.237,3.262-4.554,4.347-6.464,4.531c-1.932-1.65-4.53-2.779-7.441-3.174
		c-3.941-4.685-11.291-7.585-19.514-7.082c-0.481,0.029-0.955,0.074-1.427,0.125c-1.531-1.691-2.104-4.22-3.665-4.1
		c-1.637,0.125-1.912,3.046-2.215,5.362c-7.89,2.603-13.355,8.42-13.327,14.922c-4.444-1.571-9.824-0.854-14.376,2.157
		c-0.803-0.265-1.544-0.842-1.738-2.055c-0.47-2.948-3.333-3.552-5-2.385s-2.667,2.167,0,3.719c1.436,0.836,2.461,2.494,3.104,3.848
		c-5.345,5.926-6.125,14.351-1.48,19.759c0.156,0.181,0.328,0.34,0.492,0.51c-3.469,3.187-5.561,8.228-5.221,13.776
		c0.46,7.517,5.233,13.567,11.321,15.129c1.741,6.167,6.96,10.504,12.856,10.142c3.26-0.2,6.133-1.809,8.224-4.268
		c3.458,3.435,8.704,5.478,14.464,5.126c6.967-0.427,12.767-4.235,15.354-9.403c1.334,1.283,2.967,2.316,4.854,2.956
		c4.804,1.629,9.854,0.315,13.074-2.947c3.058-0.562,6.481-0.376,8.479,1.959c2.283,2.667,3.977-1.972,3.977-1.972
		S110.36,88.445,103.86,89.779z M72.255,49.326c1.382,0.278,2.845,0.393,4.359,0.3c0.815-0.05,1.604-0.165,2.373-0.322
		c-0.425,2.577,0.179,5.432,1.729,8.002c-1.825,3.155-1.525,7.318,0.625,10.931c-1.719,1.107-3.037,2.668-3.694,4.607
		c-0.292,0.86-0.422,1.741-0.433,2.622c-1.084,0.831-2.024,1.846-2.768,3.021c-0.92-1.044-2.005-1.968-3.208-2.768
		c3.359-0.843,6.061-2.982,7.106-6.064c1.818-5.36-2.054-11.518-8.649-13.755c-6.594-2.237-13.414,0.295-15.232,5.655
		c-1.325,3.907,0.382,8.231,3.954,11.158c-4.663,0.477-8.753,2.459-11.626,5.341c-1.186-1.479-2.632-2.672-4.245-3.498
		c-0.339-4.038-1.921-7.625-4.276-10.294c0.831-0.513,1.641-1.088,2.412-1.75c4.103-3.524,6.25-8.364,6.243-12.96
		c3.892,2.058,8.812,3.145,14.098,2.822C65.199,52.119,69.043,51.017,72.255,49.326z"/>
	<circle fill="#56860C" cx="48.94" cy="43.578" r="6.08"/>
	<circle fill="#56860C" cx="29.326" cy="59.526" r="6.08"/>
	<circle fill="#56860C" cx="27.367" cy="69.776" r="6.08"/>
	<circle fill="#56860C" cx="51.44" cy="70.814" r="6.08"/>
	<circle fill="#56860C" cx="50.157" cy="75.856" r="6.08"/>
	<circle fill="#56860C" cx="56.237" cy="72.12" r="6.08"/>
	<circle fill="#56860C" cx="72.485" cy="53.445" r="6.08"/>
	<circle fill="#56860C" cx="75.526" cy="53.445" r="6.08"/>
	<circle fill="#56860C" cx="72.485" cy="58.131" r="6.08"/>
	<circle fill="#56860C" cx="87.31" cy="79.923" r="6.08"/>
	<path fill="#91E900" d="M95.668,50.313c-4.698-3.812-11.618-3.066-15.457,1.665c-1.998,2.462-2.757,5.516-2.374,8.418
		c-2.682-0.226-5.487,0.57-7.774,2.441c-2.227,1.822-3.546,4.327-3.9,6.926c-3.072-1.415-7.641-0.507-11.396,2.564
		c-3.255,2.663-5.043,6.249-4.955,9.301c-0.368-0.215-0.752-0.39-1.149-0.526c0.74-1.578,1.161-3.323,1.161-5.163
		c0-3.565-1.549-6.782-4.034-9.084c4.346,2.367,10.076,2.378,15.034-0.456c6.53-3.732,9.484-11.116,7.325-17.355
		c2.984,2.267,7.15,2.861,10.899,1.189c5.408-2.412,7.895-8.621,5.555-13.867c-2.34-5.246-8.621-7.543-14.03-5.131
		c-0.16,0.071-0.309,0.157-0.463,0.235c-0.42-1.068-1.021-2.081-1.829-2.982c-3.72-4.145-10.18-4.414-14.428-0.601
		c-3.748,3.364-4.518,8.78-2.092,12.856c-1.558,0.353-3.105,0.933-4.583,1.778c-0.886,0.506-1.703,1.082-2.454,1.711
		c-2.279-2.04-5.254-3.286-8.521-3.286c-7.155,0-12.955,5.932-12.955,13.25c0,4.692,2.391,8.805,5.989,11.16
		c-3.606,2.266-5.989,6.158-5.989,10.584c0,6.999,5.949,12.673,13.289,12.673c0.52,0,1.03-0.036,1.533-0.091
		c-0.274,2.478,0.593,4.911,2.544,6.412c3.143,2.418,7.904,1.502,10.634-2.046c1.427-1.855,2.009-4.061,1.797-6.091
		c0.148,0.071,0.301,0.134,0.455,0.194c-0.842,3.12-0.428,6.237,1.458,8.543c3.604,4.406,11.171,4.178,16.9-0.51
		c4.073-3.332,6.108-8.017,5.658-12.032c0.151,0.088,0.299,0.182,0.454,0.262c-0.488,2.135-0.039,4.44,1.433,6.24
		c2.564,3.134,7.246,3.546,10.457,0.919c3.115-2.548,3.693-7.014,1.385-10.141c2.568-3.207,3.092-7.561,1.348-11.134
		c1.751-0.672,3.361-1.791,4.63-3.355C101.061,61.05,100.366,54.125,95.668,50.313z"/>
	<path fill="#DBFF78" d="M52.526,45.445c-2.636,0-4.967,1.28-6.424,3.247c-1.549-2.356-4.212-3.913-7.243-3.913
		c-4.786,0-8.667,3.88-8.667,8.667c0,4.786,3.88,8.667,8.667,8.667c3.03,0,5.693-1.558,7.243-3.913
		c1.458,1.966,3.788,3.247,6.424,3.247c4.418,0,8-3.582,8-8S56.945,45.445,52.526,45.445z"/>
	<path fill="#DBFF78" d="M79.105,35.946c-2.265-1.259-5.169-0.511-7.092,1.623c-0.458-0.672-1.088-1.275-1.886-1.719
		c-0.953-0.529-1.972-0.74-2.921-0.69c1.01-3.056,0.058-6.291-2.458-7.689c-2.912-1.618-6.81-0.162-8.707,3.253
		c-1.897,3.414-1.074,7.494,1.838,9.112c1.813,1.007,4.007,0.822,5.864-0.284c0.311,1.244,1.202,2.441,2.554,3.192
		c1.259,0.699,2.634,0.853,3.804,0.556c0.201,1.758,1.104,3.308,2.614,4.147c2.708,1.505,6.334,0.15,8.099-3.025
		C82.578,41.245,81.813,37.45,79.105,35.946z"/>
	
		<ellipse transform="matrix(0.7177 0.6963 -0.6963 0.7177 61.3712 -3.4959)" fill="#DBFF78" cx="34.997" cy="73.947" rx="7.648" ry="7.612"/>
	
		<ellipse transform="matrix(0.7177 0.6963 -0.6963 0.7177 72.7672 -7.2775)" fill="#DBFF78" cx="45.36" cy="86.112" rx="4.816" ry="4.778"/>
	
		<ellipse transform="matrix(0.9565 0.2917 -0.2917 0.9565 24.0724 -19.8373)" fill="#DBFF78" cx="78.565" cy="70.814" rx="8.07" ry="9.198"/>
	
		<ellipse transform="matrix(0.9633 -0.2686 0.2686 0.9633 -12.1372 26.4297)" fill="#DBFF78" cx="90.529" cy="57.575" rx="5.315" ry="5.539"/>
	
		<ellipse transform="matrix(0.9633 -0.2686 0.2686 0.9633 -19.5081 25.6236)" fill="#DBFF78" cx="83.898" cy="84.112" rx="3.401" ry="3.545"/>
	<path fill="#DBFF78" d="M69.218,84.713c-0.527-0.511-1.176-0.818-1.869-0.969c1.969-3.241,1.762-7.249-0.755-9.692
		c-2.989-2.9-8.093-2.49-11.398,0.918s-3.562,8.52-0.573,11.421c1.78,1.727,4.307,2.271,6.76,1.717
		c-0.191,1.314,0.156,2.626,1.103,3.545c1.681,1.631,4.551,1.4,6.41-0.516C70.756,89.22,70.9,86.345,69.218,84.713z"/>
	
		<ellipse transform="matrix(0.7884 -0.6152 0.6152 0.7884 -17.678 17.7156)" fill="#91E900" cx="16.912" cy="34.555" rx="4.095" ry="4.797"/>
	
		<ellipse transform="matrix(0.7992 0.6011 -0.6011 0.7992 58.2623 11.0782)" fill="#91E900" cx="12.551" cy="92.739" rx="4.095" ry="4.797"/>
	
		<ellipse transform="matrix(0.6757 0.7372 -0.7372 0.6757 50.8554 -61.9739)" fill="#91E900" cx="95.861" cy="26.811" rx="3.522" ry="4.127"/>
	
		<ellipse transform="matrix(-0.3247 0.9458 -0.9458 -0.3247 229.5036 23.6076)" fill="#91E900" cx="106.324" cy="93.739" rx="4.443" ry="5.596"/>
	
		<ellipse transform="matrix(0.7884 -0.6152 0.6152 0.7884 -16.8578 17.4334)" fill="#DBFF78" cx="16.912" cy="33.221" rx="1.897" ry="2.222"/>
	
		<ellipse transform="matrix(0.4474 -0.8943 0.8943 0.4474 -25.5544 148.4169)" fill="#DBFF78" cx="107.324" cy="94.887" rx="2.534" ry="2.969"/>
</g>
</svg>
