<?xml version="1.0" encoding="utf-8"?>
<!-- Generator: Adobe Illustrator 17.0.2, SVG Export Plug-In . SVG Version: 6.00 Build 0)  -->
<!DOCTYPE svg PUBLIC "-//W3C//DTD SVG 1.1//EN" "http://www.w3.org/Graphics/SVG/1.1/DTD/svg11.dtd">
<svg version="1.1" id="Calque_1" xmlns="http://www.w3.org/2000/svg" xmlns:xlink="http://www.w3.org/1999/xlink" x="0px" y="0px"
	 width="75.772px" height="81.118px" viewBox="0 0 75.772 81.118" enable-background="new 0 0 75.772 81.118" xml:space="preserve">
<g>
	<path fill="#C1A476" d="M0,61.732c0,10.707,18.505,19.386,37.346,19.386s38.229-8.681,38.423-19.386
		c0.17-9.334-9.146-22.824-5.565-44.261C73.785-3.966,0.462-7.689,4.095,18.495S0,51.025,0,61.732z"/>
	<path fill="#A08155" d="M7.512,58.505c0-10.707,7.728-17.053,4.095-43.237C10.82,9.6,13.644,5.336,18.509,2.347
		C9.326,5.063,2.961,10.322,4.095,18.495C7.728,44.679,0,51.025,0,61.732c0,10.707,18.505,19.386,37.346,19.386
		c10.146,0,20.445-2.52,27.825-6.515c-6.162,2.076-13.275,3.288-20.314,3.288C26.017,77.891,7.512,69.212,7.512,58.505z"/>
	<path fill="#A08155" d="M70.023,35.91c-0.706-5.241-1.032-11.888,0.081-18.55C73.685-4.077,0.361-7.8,3.995,18.384
		c0.868,6.257,1.162,12.086,0.993,16.407C24.635,39.306,50.135,39.306,70.023,35.91z"/>
</g>
</svg>
