<?xml version="1.0" encoding="utf-8"?>
<!-- Generator: Adobe Illustrator 17.0.2, SVG Export Plug-In . SVG Version: 6.00 Build 0)  -->
<!DOCTYPE svg PUBLIC "-//W3C//DTD SVG 1.1//EN" "http://www.w3.org/Graphics/SVG/1.1/DTD/svg11.dtd">
<svg version="1.1" id="Calque_1" xmlns="http://www.w3.org/2000/svg" xmlns:xlink="http://www.w3.org/1999/xlink" x="0px" y="0px"
	 width="120px" height="120px" viewBox="0 0 120 120" enable-background="new 0 0 120 120" xml:space="preserve">
<g>
	<path fill="#79C606" d="M92.75,67.961c0-4.096-3.179-7.442-7.203-7.725c-0.81-1.611-2.159-2.901-3.817-3.628
		C81.89,56.105,82,55.58,82,55.024c0-2.901-2.352-5.252-5.252-5.252c-1.149,0-2.203,0.379-3.067,1.005
		c-0.323-0.911-0.885-1.698-1.618-2.299c0.517-0.971,0.812-2.078,0.812-3.255c0-3.832-3.107-6.939-6.939-6.939
		c-3.074,0-5.678,2.001-6.588,4.771c-0.138-0.008-0.274-0.021-0.414-0.021c-3.832,0-6.939,3.107-6.939,6.939
		c0,0.574,0.077,1.129,0.209,1.662c-2.203,1.163-3.707,3.473-3.707,6.137c0,1.104,0.265,2.144,0.723,3.071
		c-0.239-0.033-0.476-0.073-0.723-0.073c-2.901,0-5.252,2.352-5.252,5.252c0,2.876,2.314,5.206,5.181,5.245
		c0.268,3.641,3.3,6.514,7.01,6.514c1.815,0,3.464-0.693,4.712-1.822c0.835,0.916,1.884,1.628,3.07,2.061
		c-0.06,0.39-0.101,0.786-0.101,1.192c0,4.281,3.471,7.752,7.752,7.752c1.465,0,2.829-0.414,3.998-1.12
		c0.554,1.546,2.018,2.659,3.754,2.659c1.026,0,1.952-0.397,2.66-1.032c0.587,1.481,2.025,2.532,3.715,2.532
		c2.21,0,4.002-1.792,4.002-4.002c0-1.976-1.435-3.608-3.318-3.933c0.206-0.482,0.321-1.012,0.321-1.569
		c0-2.028-1.513-3.685-3.469-3.949c0.058-0.271,0.091-0.55,0.091-0.839c0-0.133-0.026-0.258-0.039-0.387
		c0.76,0.249,1.569,0.387,2.412,0.387C89.279,75.713,92.75,72.242,92.75,67.961z M73.531,69.601
		c-0.003-0.022-0.007-0.044-0.01-0.065c0.012,0.011,0.024,0.022,0.036,0.033C73.549,69.58,73.539,69.59,73.531,69.601z"/>
	<path fill="#DBFF78" d="M71.042,9.875c0,0-6.542,39.5-10.875,43.5S13.625,56,13.625,56s40.75,4,45,11.375
		c4.134,7.174-8.75,26-8.75,26s15.74-15.25,21.167-15.25c7.333,0,35.333,32,35.333,32s-27.75-35.25-25.75-41.75
		c2.092-6.8,20.25-15.25,20.25-15.25S80.833,59,77.167,56C73.5,53,71.042,9.875,71.042,9.875z"/>
	<path fill="#91E900" d="M68.667,50.625c0,0-3.292,6.583-5.292,8.25c-2,1.667-9.25,2.052-9.25,2.052s6.167,2.114,9,4.448
		c2.833,2.333-1,11-1,11s3.667-6.333,7-6c3.333,0.333,8.042,4.75,8.042,4.75s-4.524-7.068-3.598-8.606
		c0.76-1.264,6.057-5.144,6.057-5.144s-3.875,0.5-6-1.375C71.506,58.131,68.667,50.625,68.667,50.625z"/>
</g>
</svg>
