<?xml version="1.0" encoding="utf-8"?>
<!-- Generator: Adobe Illustrator 17.0.2, SVG Export Plug-In . SVG Version: 6.00 Build 0)  -->
<!DOCTYPE svg PUBLIC "-//W3C//DTD SVG 1.1//EN" "http://www.w3.org/Graphics/SVG/1.1/DTD/svg11.dtd">
<svg version="1.1" id="Calque_1" xmlns="http://www.w3.org/2000/svg" xmlns:xlink="http://www.w3.org/1999/xlink" x="0px" y="0px"
	 width="120px" height="120px" viewBox="0 0 120 120" enable-background="new 0 0 120 120" xml:space="preserve">
<g>
	<path fill="#3A3F2C" d="M32.158,23.297c-3.74,0-6.771,2.827-6.771,6.315c0,0.25,0.02,0.496,0.05,0.739
		c-1.458-0.847-3.152-1.342-4.967-1.342c-5.408,0-9.792,4.314-9.792,9.635s4.384,9.635,9.792,9.635s9.792-4.314,9.792-9.635
		c0-1.104-0.198-2.16-0.545-3.147c0.758,0.274,1.579,0.43,2.441,0.43c3.74,0,6.771-2.827,6.771-6.315S35.898,23.297,32.158,23.297z"
		/>
	<path fill="#3A3F2C" d="M33.36,67.651c-2.778-1.834-6.418-1.221-8.129,1.37c-0.649,0.982-0.926,2.108-0.87,3.227
		c-3.898-0.66-8.045,0.981-10.454,4.532c-3.267,4.815-2.101,11.306,2.604,14.497c4.704,3.191,11.166,1.875,14.433-2.94
		c2.174-3.205,2.375-7.149,0.885-10.371c1.391-0.285,2.647-1.065,3.463-2.301C37.004,73.073,36.139,69.485,33.36,67.651z"/>
	<path fill="#3A3F2C" d="M65.496,87.058c-3.228-0.139-6.075,1.831-7.336,4.737c-0.659-2.143-2.004-4.076-3.986-5.42
		c-4.704-3.191-11.166-1.875-14.433,2.94c-3.266,4.815-2.101,11.306,2.604,14.497c4.704,3.191,11.166,1.875,14.433-2.94
		c0.567-0.836,0.992-1.725,1.297-2.636c1.115,2.766,3.667,4.76,6.727,4.892c4.238,0.183,7.829-3.266,8.021-7.703
		C73.014,90.987,69.734,87.241,65.496,87.058z"/>
	<path fill="#3A3F2C" d="M61.158,49.613c0.042-0.292,0.072-0.588,0.085-0.888c0.221-5.12-3.886-9.456-9.173-9.685
		s-9.753,3.737-9.974,8.858c-0.221,5.12,3.886,9.456,9.173,9.685c0.739,0.032,1.459-0.026,2.157-0.15
		c0.612,1.221,1.649,2.237,3.016,2.792c2.983,1.214,6.383-0.214,7.592-3.188C65.196,54.179,63.908,50.939,61.158,49.613z"/>
	<path fill="#3A3F2C" d="M102.093,53.889c-5.973-2.429-12.821,0.535-15.297,6.621c-0.555,1.365-0.829,2.77-0.875,4.158
		c-3.625-1.189-7.582,0.559-9.016,4.084c-1.499,3.687,0.328,7.912,4.081,9.439c0.433,0.176,0.873,0.304,1.314,0.395
		c-1.618,4.811,0.26,9.894,4.405,11.579c4.335,1.763,9.497-0.859,11.53-5.857c1.056-2.596,1.052-5.318,0.204-7.586
		c4.279-0.369,8.231-3.101,9.986-7.415C110.901,63.222,108.066,56.319,102.093,53.889z"/>
	<path fill="#3A3F2C" d="M90.11,29.095c-1.6-0.651-3.273-0.812-4.866-0.571c0.524-0.647,0.965-1.38,1.295-2.191
		c1.798-4.421-0.319-9.458-4.728-11.251c-3.951-1.607-8.395-0.057-10.571,3.462c-0.625-0.408-1.3-0.764-2.02-1.057
		c-5.773-2.348-12.267,0.209-14.505,5.712c-2.238,5.502,0.627,11.866,6.4,14.214c5.019,2.041,10.58,0.372,13.418-3.714
		c0.076,0.034,0.149,0.074,0.227,0.106c1.057,0.43,2.159,0.571,3.222,0.469c-1.898,4.749,0.38,10.143,5.113,12.068
		c4.75,1.932,10.171-0.362,12.108-5.125S94.861,31.027,90.11,29.095z"/>
	<ellipse fill="#4F6026" cx="19.346" cy="37.468" rx="5" ry="5.25"/>
	<ellipse fill="#4F6026" cx="20.846" cy="82.593" rx="5" ry="6"/>
	<ellipse fill="#4F6026" cx="50.096" cy="96.218" rx="5.375" ry="6"/>
	<ellipse fill="#4F6026" cx="45.596" cy="91.302" rx="3.396" ry="3.791"/>
	
		<ellipse transform="matrix(0.8724 0.4889 -0.4889 0.8724 54.9898 -20.4188)" fill="#4F6026" cx="66.596" cy="95.093" rx="3.71" ry="4.141"/>
	
		<ellipse transform="matrix(0.9999 0.0119 -0.0119 0.9999 0.9722 -1.0768)" fill="#4F6026" cx="91.028" cy="81.213" rx="4.976" ry="5.501"/>
	
		<ellipse transform="matrix(0.9999 0.0119 -0.0119 0.9999 0.8092 -1.1637)" fill="#4F6026" cx="98.252" cy="67.458" rx="6.288" ry="6.134"/>
	
		<ellipse transform="matrix(0.9999 0.0119 -0.0119 0.9999 0.757 -1.1265)" fill="#4F6026" cx="95.103" cy="63.093" rx="3.149" ry="3.433"/>
	
		<ellipse transform="matrix(0.9999 0.0119 -0.0119 0.9999 0.2458 -0.908)" fill="#4F6026" cx="76.471" cy="20.218" rx="4.077" ry="4.444"/>
	
		<ellipse transform="matrix(0.9999 0.0119 -0.0119 0.9999 0.4517 -1.0273)" fill="#4F6026" cx="86.603" cy="37.468" rx="3.85" ry="4.197"/>
	
		<ellipse transform="matrix(0.9434 0.3317 -0.3317 0.9434 10.6797 -21.1287)" fill="#4F6026" cx="67.228" cy="20.718" rx="3.85" ry="2.375"/>
	<ellipse fill="#56860C" cx="18.346" cy="37.718" rx="2.5" ry="2.875"/>
	<ellipse fill="#56860C" cx="19.971" cy="82.843" rx="2.875" ry="3"/>
	<ellipse fill="#56860C" cx="50.471" cy="97.093" rx="3.125" ry="3.25"/>
	<ellipse fill="#56860C" cx="98.471" cy="68.343" rx="3.875" ry="4"/>
	<ellipse fill="#56860C" cx="77.346" cy="20.218" rx="2.25" ry="2.375"/>
	<ellipse fill="#4F6026" cx="53.033" cy="48.28" rx="3.562" ry="3.312"/>
</g>
</svg>
