<?xml version="1.0" encoding="utf-8"?>
<!-- Generator: Adobe Illustrator 17.0.2, SVG Export Plug-In . SVG Version: 6.00 Build 0)  -->
<!DOCTYPE svg PUBLIC "-//W3C//DTD SVG 1.1//EN" "http://www.w3.org/Graphics/SVG/1.1/DTD/svg11.dtd">
<svg version="1.1" id="Calque_1" xmlns="http://www.w3.org/2000/svg" xmlns:xlink="http://www.w3.org/1999/xlink" x="0px" y="0px"
	 width="110px" height="120px" viewBox="0 0 110 120" enable-background="new 0 0 110 120" xml:space="preserve">
<path fill="#7E827A" d="M56.543,115.592c-26.555,0-48.159-21.604-48.159-48.159c0-12.637,4.877-24.583,13.734-33.639
	c8.201-8.384,18.954-13.42,30.523-14.349V6.12c0-1.135,0.689-2.157,1.741-2.583c1.053-0.426,2.258-0.172,3.047,0.644l23.687,24.452
	c1.047,1.081,1.047,2.797,0,3.878L57.429,56.962c-0.789,0.815-1.995,1.07-3.047,0.644c-1.052-0.426-1.741-1.448-1.741-2.583V41.866
	c-12.526,1.876-21.963,12.597-21.963,25.567c0,14.262,11.603,25.865,25.865,25.865s25.865-11.603,25.865-25.865
	c0-1.539,1.248-2.787,2.787-2.787h16.721c1.539,0,2.787,1.248,2.787,2.787C104.702,93.988,83.098,115.592,56.543,115.592z"/>
</svg>
