<?xml version="1.0" encoding="utf-8"?>
<!-- Generator: Adobe Illustrator 17.0.2, SVG Export Plug-In . SVG Version: 6.00 Build 0)  -->
<!DOCTYPE svg PUBLIC "-//W3C//DTD SVG 1.1//EN" "http://www.w3.org/Graphics/SVG/1.1/DTD/svg11.dtd">
<svg version="1.1" id="Calque_1" xmlns="http://www.w3.org/2000/svg" xmlns:xlink="http://www.w3.org/1999/xlink" x="0px" y="0px"
	 width="120px" height="120px" viewBox="0 0 120 120" enable-background="new 0 0 120 120" xml:space="preserve">
<g>
	<path fill="#3A3F2C" d="M29.859,26.482c-2.401-0.092-4.428,1.952-4.55,4.572c-1.567-1.344-3.689-2.004-5.869-1.623
		c-3.889,0.681-6.485,4.419-5.796,8.348c0.688,3.93,4.399,6.563,8.288,5.882c3.802-0.666,6.358-4.253,5.829-8.084
		c0.526,0.276,1.109,0.445,1.73,0.469c2.414,0.093,4.454-1.973,4.555-4.615S32.273,26.574,29.859,26.482z"/>
	<ellipse fill="#3A3F2C" cx="51.05" cy="45.397" rx="4.75" ry="4.09"/>
	<path fill="#3A3F2C" d="M75.05,16.575c-2.384,0-4.455,1.362-5.509,3.364c-0.796-0.854-1.838-1.389-2.991-1.389
		c-2.485,0-4.5,2.412-4.5,5.387s2.015,5.387,4.5,5.387c1.528,0,2.873-0.916,3.686-2.31c1.146,1.411,2.877,2.31,4.814,2.31
		c3.452,0,6.25-2.854,6.25-6.374S78.502,16.575,75.05,16.575z"/>
	<ellipse fill="#3A3F2C" cx="21.07" cy="83.359" rx="6.77" ry="6.441"/>
	<path fill="#3A3F2C" d="M64.8,91.302c-1.755,0-3.292,0.821-4.184,2.057c-0.003,0.002-0.006,0.004-0.009,0.006
		c-1.943,1.575-2.807,1.685-4.807-0.628l0,0.001c-1.031-1.488-2.607-2.442-4.375-2.442c-3.107,0-5.625,2.939-5.625,6.564
		c0,3.625,2.518,6.564,5.625,6.564c1.768,0,3.343-0.953,4.374-2.441l0.001,0.001c0.005-0.012,0.014-0.02,0.019-0.032
		c0.138-0.201,0.263-0.413,0.38-0.632c1.161-1.566,3.394-1.788,6.388-0.449c0.042,0.019,0.076,0.026,0.116,0.042
		c0.123,0.052,0.25,0.095,0.378,0.138c0.059,0.018,0.117,0.035,0.174,0.049c0.489,0.145,1.002,0.243,1.545,0.243
		c2.761,0,5-2.024,5-4.52C69.8,93.326,67.562,91.302,64.8,91.302z"/>
	<path fill="#3A3F2C" d="M106.467,65.8c0-4.464-2.948-8.083-6.583-8.083c-3.636,0-6.583,3.619-6.583,8.083
		c0,0.498,0.042,0.983,0.112,1.456c-0.061,0.259-0.106,0.522-0.112,0.794c-0.083,3.469-1,2.167-3.583,2.667
		c-2.347,0-4.25,1.716-4.25,3.833c0,2.117,1.903,3.833,4.25,3.833c1.324,0,2.492-0.558,3.272-1.414
		c0.062-0.058,0.124-0.126,0.186-0.204c0.033-0.042,0.067-0.082,0.098-0.125c0.009-0.013,0.018-0.022,0.027-0.035
		c1.62-2.326,2.855-3.174,4.602-3.096c0.625,0.242,1.291,0.374,1.981,0.374c0.24,0.07,0.426,0.049,0.573-0.036
		C103.823,73.491,106.467,70.027,106.467,65.8z"/>
</g>
</svg>
