<?xml version="1.0" encoding="utf-8"?>
<!-- Generator: Adobe Illustrator 17.0.2, SVG Export Plug-In . SVG Version: 6.00 Build 0)  -->
<!DOCTYPE svg PUBLIC "-//W3C//DTD SVG 1.1//EN" "http://www.w3.org/Graphics/SVG/1.1/DTD/svg11.dtd">
<svg version="1.1" id="Calque_1" xmlns="http://www.w3.org/2000/svg" xmlns:xlink="http://www.w3.org/1999/xlink" x="0px" y="0px"
	 width="120px" height="120px" viewBox="0 0 120 120" enable-background="new 0 0 120 120" xml:space="preserve">
<g>
	<path fill="#DBFF78" d="M66.5,22.167c0,0-0.333,28-4.667,32s-37,1.333-37,1.333s30,3.667,33.667,7.667s-6.667,17-6.667,17
		s9.333-12,14.667-11c5.333,1,28.667,28.667,28.667,28.667s-23-28.333-21.333-33s8.667-9,8.667-9s-6.333,1.333-10-1.667
		C68.833,51.167,66.5,22.167,66.5,22.167z"/>
	<path fill="#91E900" d="M66.958,51.875c0,0,0,3.667-2,5.333c-2,1.667-8.333,2.333-8.333,2.333s2.333-0.667,5.167,1.667
		c2.833,2.333,1.5,5.897,1.5,5.897s0.333-2.897,3.667-2.563c3.333,0.333,5,2.563,5,2.563s-2.857-3.173-1.932-4.711
		c0.76-1.264,3.598-3.852,3.598-3.852s-2.208,1.75-4.333-0.125C67.173,56.547,66.958,51.875,66.958,51.875z"/>
</g>
</svg>
