<?xml version="1.0" encoding="utf-8"?>
<!-- Generator: Adobe Illustrator 17.0.2, SVG Export Plug-In . SVG Version: 6.00 Build 0)  -->
<!DOCTYPE svg PUBLIC "-//W3C//DTD SVG 1.1//EN" "http://www.w3.org/Graphics/SVG/1.1/DTD/svg11.dtd">
<svg version="1.1" id="Calque_1" xmlns="http://www.w3.org/2000/svg" xmlns:xlink="http://www.w3.org/1999/xlink" x="0px" y="0px"
	 width="120px" height="120px" viewBox="0 0 120 120" enable-background="new 0 0 120 120" xml:space="preserve">
<g>
	<path fill="#56860C" d="M10.113,94.661c-1.758,3.627-4.051,7.793-0.821,9.46s4.563-1.293,4.896-4.73
		c0.333-3.437,2.577-6.123,0.705-7.863S10.113,94.661,10.113,94.661z"/>
	<path fill="#56860C" d="M15.522,32.45c0.625-0.954-0.5-4.454-3.25-4.954s-6.875-1.055-7.375,2.848s3.057,3.879,5.216,3.328
		S14.897,33.404,15.522,32.45z"/>
	
		<ellipse transform="matrix(0.8758 -0.4827 0.4827 0.8758 -0.9347 25.0846)" fill="#56860C" cx="48.271" cy="14.358" rx="2.79" ry="3.625"/>
	<path fill="#56860C" d="M106.417,22.957c3.631,0.613,4.605,3.516,4.12,6.39s-2.886,4.825-6.517,4.212
		c-3.631-0.613-6.691-4.704-6.632-6.431C97.945,25.63,102.786,22.344,106.417,22.957z"/>
	<path fill="#56860C" d="M106.696,72.134c-1.026-2.228-3.25-3.557-5.706-3.695c0.367-0.225,0.726-0.467,1.076-0.732
		c5.866-4.463,6.859-13.027,2.217-19.129c-3.085-4.055-7.881-5.987-12.473-5.526c3.792-4.682,4.037-11.55,0.187-16.611
		c-2.949-3.876-7.562-5.713-12.042-5.287c-0.354-0.807-0.797-1.589-1.354-2.321c-3.766-4.949-10.785-5.943-15.679-2.22
		c-2.223,1.691-3.615,4.067-4.13,6.618c-1.9-0.841-3.978-1.311-6.16-1.311c-8.388,0-15.287,6.854-16.136,15.643
		c-2.743-3.796-6.842-6.213-11.427-6.213c-8.259,0-14.954,7.821-14.954,17.469c0,7.711,4.282,14.242,10.216,16.559
		c-0.109,0.158-0.22,0.313-0.324,0.475c-2.846,3.12-4.601,7.295-4.601,11.897c0,9.648,7.651,17.469,17.09,17.469
		c5.97,0,11.218-3.133,14.274-7.874c2.31-2.532,3.885-5.761,4.399-9.351c2.055-1.361,3.8-3.159,5.12-5.268
		c0.388,2.615,1.323,5.046,2.714,7.145c-2.147,0.089-4.379,0.798-6.377,2.183c-2.677,1.856-4.374,4.527-4.916,7.26
		c-0.699,0.303-1.383,0.676-2.037,1.13c-4.961,3.439-6.411,9.935-3.239,14.511c3.172,4.575,9.764,5.496,14.725,2.057
		c0.083-0.057,0.156-0.122,0.236-0.181c3.856,2.101,8.897,2.066,13.164-0.512c3.906-2.36,6.223-6.287,6.536-10.303
		c3.913,6.03,11.663,8.479,18.284,5.431c7.28-3.351,10.422-12.064,7.017-19.46c-0.075-0.163-0.167-0.314-0.247-0.473
		c0.231-0.082,0.46-0.174,0.688-0.279C106.503,79.544,108.232,75.47,106.696,72.134z M95.506,70.267
		c-1.195,0.993-2.026,2.288-2.41,3.677c-1.027-0.301-2.083-0.493-3.156-0.561c0.199-1.067,0.313-2.166,0.313-3.292
		c0-0.116-0.015-0.229-0.017-0.345C91.952,70.263,93.741,70.443,95.506,70.267z M74.67,87.995c-0.135-0.17-0.277-0.331-0.42-0.491
		c0.141-0.009,0.285-0.009,0.426-0.022C74.671,87.652,74.669,87.823,74.67,87.995z M67.724,45.764
		c0.721-1.977,1.131-4.123,1.131-6.376c0-0.08-0.01-0.158-0.011-0.238c0.455,1.207,1.086,2.372,1.908,3.453
		c0.401,0.527,0.842,1.002,1.299,1.453C70.54,44.301,69.066,44.87,67.724,45.764z M82.695,48.227
		c-0.082-0.104-0.17-0.202-0.255-0.302c0.177-0.012,0.353-0.034,0.53-0.053C82.877,47.989,82.784,48.107,82.695,48.227z"/>
	<path fill="#79C606" d="M74.026,92.78c0-5.05-3.569-9.144-7.971-9.144c-0.801,0-1.573,0.139-2.303,0.391
		c-0.746-0.862-1.707-1.561-2.844-2c-3.71-1.433-7.879,0.414-9.312,4.124c-0.629,1.63-0.625,3.348-0.109,4.885
		c-3.354,0.36-5.966,3.198-5.966,6.647c0,3.693,2.994,6.688,6.688,6.688c1.443,0,2.776-0.462,3.868-1.239
		c0.646,0.481,1.373,0.889,2.172,1.197c3.744,1.446,7.772,0.252,9.619-2.652C71.395,100.735,74.026,97.114,74.026,92.78z"/>
	<path fill="#79C606" d="M98.982,71.101c0.755-3.282,0.042-6.534-1.685-8.993c0.075-0.251,0.153-0.5,0.213-0.759
		c1.356-5.895-2.011-11.701-7.52-12.967c-3.891-0.895-7.801,0.721-10.245,3.82c-4.161-1.885-9.65-1.142-13.969,2.316
		c-5.804,4.647-7.294,12.428-3.33,17.38c1.063,1.327,2.415,2.305,3.93,2.953c0.195,1.952,0.9,3.81,2.159,5.383
		c2.509,3.134,6.602,4.377,10.74,3.694c-0.017,4.511,2.514,8.419,6.395,9.311c4.644,1.068,9.448-2.583,10.729-8.155
		c0.668-2.905,0.239-5.752-0.975-7.969C97.128,75.612,98.42,73.545,98.982,71.101z"/>
	<path fill="#79C606" d="M39.355,49.288c0-2.827-1.735-5.183-4.038-5.718c-1.72-4.005-5.407-6.782-9.693-6.782
		c-5.926,0-10.731,5.298-10.731,11.833c0,6.535,4.804,11.833,10.731,11.833c3.754,0,7.053-2.13,8.971-5.349
		C37.247,54.94,39.355,52.403,39.355,49.288z"/>
	<path fill="#79C606" d="M52.187,63.597c-3.078-3.482-8.135-4.041-11.294-1.247c-0.737,0.651-1.298,1.43-1.697,2.281
		c-2.751-0.451-5.767-0.175-8.696,0.966c-7.64,2.976-11.779,10.66-9.246,17.163c2.533,6.503,10.78,9.363,18.419,6.387
		c5.976-2.328,9.793-7.537,9.967-12.808c0.867-0.294,1.684-0.746,2.401-1.38C55.2,72.165,55.265,67.079,52.187,63.597z"/>
	<path fill="#79C606" d="M79.383,26.194c-6.162-4.875-14.032-5.192-17.58-0.707c-0.371,0.469-0.667,0.979-0.916,1.51
		c-1.065,0.459-2.094,1.094-3.031,1.921c-0.116,0.103-0.22,0.213-0.331,0.319c-2.786-0.415-5.92,0.476-8.412,2.68
		c-2.049,1.811-3.275,4.163-3.608,6.507c-0.188,0.14-0.375,0.283-0.554,0.441c-3.474,3.072-3.752,8.435-0.625,11.989
		c0.059,1.947,0.776,3.898,2.18,5.486c3.142,3.554,8.51,3.941,11.99,0.865c1.097-0.97,1.874-2.169,2.327-3.467
		c2.695,0.292,5.673-0.615,8.061-2.726c1.747-1.544,2.89-3.482,3.397-5.471c4.684,1.525,9.333,0.76,11.833-2.401
		C87.663,38.655,85.544,31.068,79.383,26.194z"/>
	<path fill="#91E900" d="M65.071,34.404c-0.643,0-1.252,0.12-1.818,0.318c-0.999-2.12-3.374-3.612-6.148-3.612
		c-3.674,0-6.652,2.617-6.652,5.844c0,0.096,0.011,0.19,0.016,0.286c-2.656,1.429-4.447,4.083-4.447,7.131
		c0,4.556,3.992,8.25,8.917,8.25c4.924,0,8.917-3.694,8.917-8.25c0-0.309-0.022-0.614-0.058-0.914
		c0.409,0.097,0.831,0.164,1.273,0.164c2.803,0,5.076-2.063,5.076-4.608C70.147,36.468,67.874,34.404,65.071,34.404z"/>
	
		<ellipse transform="matrix(0.7901 0.613 -0.613 0.7901 33.988 -36.1202)" fill="#91E900" cx="69.738" cy="31.571" rx="3.543" ry="3.216"/>
	
		<ellipse transform="matrix(0.1253 0.9921 -0.9921 0.1253 107.9474 -43.6597)" fill="#91E900" cx="78.733" cy="39.388" rx="5.194" ry="4.762"/>
	<path fill="#91E900" d="M94.613,82.218c-0.488-3.864-3.74-6.636-7.263-6.191c-0.661,0.083-1.285,0.275-1.859,0.555
		c0.007-0.043,0.022-0.082,0.028-0.125c0.289-2.257-1.146-4.3-3.204-4.563s-3.961,1.353-4.249,3.61
		c-0.289,2.257,1.146,4.3,3.204,4.563c0.372,0.048,0.733,0.015,1.086-0.053c-0.475,1.15-0.673,2.458-0.502,3.815
		c0.488,3.864,3.74,6.636,7.263,6.191C92.64,89.575,95.101,86.082,94.613,82.218z"/>
	
		<ellipse transform="matrix(-0.1269 0.9919 -0.9919 -0.1269 148.5408 -73.0407)" fill="#91E900" cx="106.417" cy="28.855" rx="2.687" ry="2.45"/>
	
		<ellipse transform="matrix(-0.996 0.0891 -0.0891 -0.996 145.8288 131.1058)" fill="#91E900" cx="69.988" cy="68.808" rx="6.449" ry="5.464"/>
	<path fill="#91E900" d="M69.384,87.439c-2.227-1.999-5.581-2.051-8.225-0.356c0.082-1.18-0.302-2.333-1.189-3.129
		c-1.631-1.464-4.283-1.168-5.925,0.661c-1.641,1.829-1.651,4.497-0.02,5.961c1.037,0.931,2.487,1.144,3.828,0.709
		c-0.884,2.579-0.345,5.403,1.633,7.179c2.734,2.454,7.165,1.976,9.898-1.069S72.117,89.893,69.384,87.439z"/>
	
		<ellipse transform="matrix(-0.668 0.7441 -0.7441 -0.668 158.5252 118.6016)" fill="#91E900" cx="52.808" cy="94.661" rx="1.907" ry="1.712"/>
	
		<ellipse transform="matrix(-0.2891 0.9573 -0.9573 -0.2891 109.9698 118.3957)" fill="#91E900" cx="11.022" cy="100.032" rx="1.907" ry="1.712"/>
	
		<ellipse transform="matrix(-0.9971 0.0764 -0.0764 -0.9971 18.9146 59.9637)" fill="#91E900" cx="8.31" cy="30.344" rx="2.715" ry="2.102"/>
	
		<ellipse transform="matrix(-0.4767 -0.8791 0.8791 -0.4767 58.2467 61.681)" fill="#91E900" cx="47.482" cy="13.504" rx="1.652" ry="1.279"/>
	<path fill="#91E900" d="M93.969,65.878c1.692-2.049,2.489-4.817,1.942-7.639c-0.969-4.996-5.78-8.265-10.747-7.303
		c-3.351,0.65-5.91,3.062-6.927,6.095c-0.82-0.756-1.955-1.136-3.117-0.911c-1.965,0.381-3.242,2.319-2.852,4.328
		s2.298,3.33,4.263,2.949c0.619-0.12,1.159-0.408,1.611-0.79c1.203,4.059,5.018,6.753,9.186,6.57c0.559,1.804,2.391,2.943,4.3,2.573
		c2.046-0.397,3.385-2.366,2.991-4.399C94.511,66.799,94.279,66.306,93.969,65.878z"/>
	<path fill="#91E900" d="M47.434,73.818c-0.382-3.024-2.927-5.193-5.685-4.845c-1.442,0.182-2.646,1.025-3.422,2.212
		c-1.833-1.86-4.377-2.872-7.04-2.536c-4.736,0.598-8.051,5.236-7.404,10.359s5.011,8.791,9.747,8.193
		c3.836-0.484,6.739-3.62,7.36-7.516c0.674,0.239,1.399,0.333,2.141,0.239C45.889,79.575,47.816,76.842,47.434,73.818z"/>
	<path fill="#91E900" d="M31.022,46.038c-0.05,0-0.096,0.012-0.145,0.015c-0.882-2.856-3.543-4.931-6.688-4.931
		c-3.866,0-7,3.134-7,7c0,3.866,3.134,7,7,7c2.603,0,4.869-1.424,6.075-3.532c0.243,0.068,0.494,0.116,0.758,0.116
		c1.565,0,2.833-1.268,2.833-2.833S32.587,46.038,31.022,46.038z"/>
	<path fill="#56860C" d="M19.605,27.144"/>
	<path fill="#56860C" d="M108.855,96.483c1,1.138,1.333,2.638,1.167,4.638c-0.167,2,2.333,3.272,4,0.803
		c1.667-2.469,1.333-3.578,0-5.44c-1.333-1.862-4.667-4.089-6-3.059C106.689,94.454,108.855,96.483,108.855,96.483z"/>
</g>
</svg>
