<?xml version="1.0" encoding="utf-8"?>
<!-- Generator: Adobe Illustrator 17.0.2, SVG Export Plug-In . SVG Version: 6.00 Build 0)  -->
<!DOCTYPE svg PUBLIC "-//W3C//DTD SVG 1.1//EN" "http://www.w3.org/Graphics/SVG/1.1/DTD/svg11.dtd">
<svg version="1.1" id="Calque_1" xmlns="http://www.w3.org/2000/svg" xmlns:xlink="http://www.w3.org/1999/xlink" x="0px" y="0px"
	 width="120px" height="120px" viewBox="0 0 120 120" enable-background="new 0 0 120 120" xml:space="preserve">
<g>
	<path fill="#3A3F2C" d="M47.534,33.898c0-5.776-4.683-10.459-10.459-10.459s-10.459,4.683-10.459,10.459
		c0,0.02,0.003,0.039,0.003,0.059c-3.053,0.819-5.647,2.796-7.314,5.46c-5.957,0.824-10.522,5.419-10.522,10.981
		c0,6.145,5.566,11.126,12.433,11.126c2.899,0,5.559-0.895,7.673-2.383c0.286,0.02,0.571,0.045,0.862,0.045
		c6.866,0,12.433-5.743,12.433-12.827c0-1.083-0.145-2.13-0.39-3.135C45.196,41.498,47.534,37.975,47.534,33.898z"/>
	<ellipse fill="#3A3F2C" cx="52.833" cy="56.212" rx="12.433" ry="14.382"/>
	<path fill="#3A3F2C" d="M75.421,89.264c-3.211-0.989-6.613,0.19-8.89,2.733c-0.92-4.451-3.768-8.092-7.9-9.365
		c-6.484-1.997-13.651,2.587-16.008,10.239c-2.357,7.652,0.989,15.474,7.473,17.471c5.57,1.716,11.635-1.433,14.73-7.204
		c0.991,2.073,2.72,3.698,4.968,4.39c4.558,1.404,9.512-1.547,11.065-6.591S79.979,90.667,75.421,89.264z"/>
	<path fill="#3A3F2C" d="M91.437,67.364c1.574,0,3.047-0.459,4.32-1.25c1.732,4.194,5.476,7.105,9.83,7.105
		c5.998,0,10.86-5.514,10.86-12.317s-4.862-12.317-10.86-12.317c-2.896,0-5.52,1.293-7.467,3.388
		c-1.594-2.07-3.996-3.388-6.683-3.388c-3.73,0-6.901,2.542-8.135,6.106c-1.314-0.654-2.766-1.026-4.298-1.026
		c-3.866,0-7.237,2.324-9.075,5.779c-0.483-0.088-0.974-0.149-1.477-0.149c-5.394,0-9.766,5.263-9.766,11.755
		c0,5.769,3.456,10.558,8.01,11.555c2.14,2.227,5.096,3.605,8.361,3.605c2.788,0,5.345-1.011,7.367-2.691
		c-1.593,6.293,2.007,12.8,8.294,14.736c6.49,1.999,13.369-1.631,15.363-8.107c1.995-6.477-1.649-13.347-8.14-15.346
		c-4.119-1.269-8.39-0.264-11.475,2.291c0.264-1.022,0.417-2.091,0.417-3.2c0-0.215-0.021-0.425-0.031-0.638
		c1.356-1.685,2.278-3.804,2.581-6.152C90.08,67.268,90.747,67.364,91.437,67.364z"/>
	<path fill="#3A3F2C" d="M43.565,73.102c0.787-4.056-1.861-8.229-6.232-9.575c-4.655-1.434-9.499,0.882-10.821,5.172
		c-1.043,3.386,0.427,6.983,3.379,9.057c-0.077,0.205-0.157,0.408-0.223,0.62c-1.574,5.11,0.924,10.415,5.578,11.848
		c4.655,1.434,9.704-1.547,11.278-6.657C47.769,79.529,46.463,75.377,43.565,73.102z"/>
	<path fill="#3A3F2C" d="M96.084,33.857c-1.139-0.351-2.278-0.442-3.329-0.317c-0.601-3.118-2.657-5.724-5.652-6.646
		c-2.507-0.772-5.136-0.201-7.247,1.318c-0.587-0.324-1.208-0.599-1.87-0.803c-3.885-1.196-7.997,0.132-10.88,3.086
		c0.073-0.192,0.15-0.382,0.211-0.581c1.463-4.749-1.125-9.761-5.78-11.194c-4.655-1.434-9.614,1.254-11.077,6.003
		c-1.463,4.749,1.125,9.761,5.78,11.194c3.026,0.932,6.175,0.114,8.414-1.871c-0.273,0.578-0.521,1.177-0.715,1.809
		c-1.984,6.443,1.087,13.107,6.861,14.886c4.739,1.46,9.821-0.831,12.589-5.261c2.587,0.124,5.128-1.05,6.945-3.11
		c0.755,0.604,1.664,1.097,2.693,1.414c3.51,1.081,7.04-0.265,7.885-3.006C101.756,38.037,99.595,34.938,96.084,33.857z"/>
	<path fill="#4F6026" d="M46.172,49.602c-0.487,0.513,0.375,3.25-0.25,4.883c-0.625,1.633-2.25,0.742-2.344,3.318
		s2.844,2.673,4.719,3.93c1.875,1.256,2.125,2.869,3.125,3.516s2.875-1.148,4.102-1.773c1.227-0.625,2.023,0.625,3.673,0
		c1.65-0.625,0.225-2.375,0.725-4.45s1.75-1.925,2.125-3.925s-1.75-2-3.234-3.5c-1.484-1.5,0.109-3.375-1.641-4.375
		s-3.623,2.334-8.215,2.125C47.13,49.269,46.963,48.769,46.172,49.602z"/>
	<path fill="#4F6026" d="M114.553,61.504c-1.073-5.997-6.843-9.982-12.889-8.901c-1.349,0.241-2.591,0.725-3.705,1.382
		c-1.678-0.661-3.592-0.881-5.547-0.531c-2.525,0.452-4.651,1.773-6.089,3.555c-1.175-0.504-2.49-0.794-3.886-0.794
		c-3.78,0-7,2.078-8.28,5C73.427,61,72.65,60.88,71.841,60.88c-4.116,0-7.453,3.01-7.453,6.722c0,2.035,1.007,3.855,2.591,5.088
		c-0.429,0.87-0.67,1.828-0.67,2.836c0,3.947,3.645,7.146,8.141,7.146c1.872,0,3.591-0.56,4.966-1.492
		c0.725,0.186,1.49,0.291,2.284,0.291c0.301,0,0.598-0.017,0.891-0.045c1.655,0.078,1.918,1.319,2.506,3.73
		c0.074,0.071,0.144,0.128,0.215,0.188c0.024,0.434,0.066,0.87,0.145,1.309c1.023,5.718,6.354,9.548,11.907,8.555
		c5.554-0.993,9.227-6.434,8.204-12.151c-0.169-0.944-0.465-1.83-0.85-2.658c1.223-1.83,1.895-4.017,1.849-6.311
		C112.038,72.576,115.564,67.157,114.553,61.504z"/>
	<path fill="#4F6026" d="M71.843,92.198c-2.018,0-3.869,0.63-5.337,1.679c-2.098-3.905-6.521-6.605-11.655-6.605
		c-7.157,0-12.958,5.233-12.958,11.688c0,6.455,5.802,11.688,12.958,11.688c4.526,0,8.505-2.096,10.822-5.267
		c1.565,1.451,3.749,2.355,6.17,2.355c4.757,0,8.613-3.478,8.613-7.768C80.456,95.676,76.6,92.198,71.843,92.198z"/>
	<path fill="#4F6026" d="M43.578,82.236c0-3.45-2.109-6.377-5.045-7.459c0.008-0.151,0.021-0.3,0.021-0.453
		c0-4.37-3.26-7.912-7.282-7.912c-1.512,0-2.916,0.501-4.08,1.358c-2.345-0.697-4.832-0.756-7.243-0.008
		c-7.251,2.249-11.04,10.809-8.462,19.118c2.578,8.309,10.545,13.222,17.797,10.972c3.814-1.183,6.656-4.12,8.132-7.841
		C40.921,89.33,43.578,86.111,43.578,82.236z"/>
	<path fill="#4F6026" d="M98.582,32.892c-0.996-0.39-2.033-0.461-3.004-0.279c0.215-0.352,0.408-0.722,0.564-1.118
		c1.476-3.769-0.472-8.055-4.351-9.575c-1.505-0.589-3.078-0.67-4.528-0.335c-1.141-3.587-4.354-6.942-8.842-8.7
		c-4.316-1.691-8.779-1.505-12.026,0.164v0c-0.001,0-0.002,0.001-0.002,0.001c-0.002,0.001-0.003,0.002-0.005,0.003
		c-3.007,1.473-3.094,2.992-6.424,4.189c-3.333,1.198-7.779,3.009-6.556,4.02c1.223,1.011,3.449-0.84,2.503,3.044
		c0.001,0.001,0.002,0.001,0.002,0.002c-0.533,1.816-0.375,3.67,0.619,5.17c1.454,2.193,4.294,3.045,7.235,2.461l-0.001,0.002
		c0.005-0.002,0.01-0.003,0.014-0.005c0.499-0.1,1-0.238,1.499-0.421c1.828-0.346,3.006,0.31,2.347,4.091
		c0.006,0.008,0.012,0.012,0.018,0.02c-0.668,4.023,1.098,7.893,4.499,9.225c3.212,1.258,6.895-0.135,9.182-3.164l0,0.005
		c0.006-0.009,0.011-0.017,0.017-0.026c0.205-0.273,0.402-0.556,0.583-0.855c0.804-1.052,1.693-1.486,3.629-1.156
		c0.072,0.01,0.142,0.023,0.214,0.031c0.003,0.001,0.006,0.001,0.009,0.001c0,0,0,0,0.001-0.001
		c0.425,0.044,0.861,0.052,1.304,0.017c0.424-0.034,0.833-0.107,1.229-0.21l-0.001,0.002c0.018-0.006,0.039-0.008,0.058-0.014
		c0.017-0.005,0.034-0.008,0.051-0.013c1.115-0.336,2.755,0.058,3.873,1.215l0,0c0.594,0.841,1.439,1.529,2.479,1.936
		c2.765,1.083,5.859-0.217,6.911-2.903C102.735,37.031,101.347,33.975,98.582,32.892z"/>
	<path fill="#4F6026" d="M38.451,23.961c-4.236-1.527-9.093,1.183-10.848,6.052c-0.118,0.328-0.216,0.658-0.301,0.988
		c-0.67-0.451-1.395-0.825-2.176-1.106c-6.337-2.284-13.792,2.293-16.651,10.224c-2.859,7.931-0.039,16.212,6.299,18.496
		c3.424,1.234,7.17,0.452,10.345-1.767c0.003,0.002,0.005,0.005,0.009,0.007c0.025-0.022,0.046-0.039,0.071-0.061
		c0.567-0.401,1.113-0.848,1.637-1.339c4.309-3.141,5.706-0.797,5.706-0.797s2.588,1.367,2.731-2.245
		c0.14-3.546,1.642-8.699,5.732-13.549c0.075-0.087,0.148-0.176,0.22-0.266v0l0,0c0.711-0.882,1.303-1.906,1.718-3.055
		C44.698,30.673,42.687,25.487,38.451,23.961z"/>
	<path fill="#56860C" d="M92.211,28.152c-0.7-2.685-2.691-4.648-5.017-5.276c-0.166-0.075-0.376-0.122-0.637-0.137
		c-0.471-0.076-0.952-0.093-1.435-0.054c-3.478-0.1-6.393-0.136-8.22-3.941c0-0.001-0.001-0.002-0.002-0.003
		c-0.012-0.024-0.025-0.044-0.036-0.069c0,0-0.001,0-0.001,0c-0.081-0.167-0.167-0.333-0.267-0.494
		c-1.824-2.952-6.078-3.631-9.501-1.516c-3.423,2.115-4.719,6.223-2.895,9.175c1.569,2.539,4.934,3.391,8.023,2.236l0.001,0.001
		c0.001-0.001,0.003-0.002,0.005-0.003c0.405-0.152,0.803-0.34,1.193-0.562c2.341-0.868,5.159-0.49,6.175,3.93
		c1,3.836,4.634,6.209,8.116,5.302S93.211,31.987,92.211,28.152z"/>
	<ellipse fill="#56860C" cx="23.99" cy="82.371" rx="10.307" ry="11.777"/>
	<path fill="#56860C" d="M34.558,33.861c-2.31-2.921-6.812-3.208-10.057-0.642c-0.597,0.472-1.109,1.009-1.534,1.588
		c-3.792-1.816-8.689-0.246-11.354,3.815c-2.876,4.383-2.061,10.001,1.82,12.547c3.881,2.546,9.359,1.057,12.234-3.326
		c0.502-0.765,0.884-1.568,1.165-2.385c2.001,0.315,4.214-0.225,6.032-1.663C36.11,41.229,36.868,36.782,34.558,33.861z"/>
	
		<ellipse transform="matrix(0.6203 0.7844 -0.7844 0.6203 64.3715 -20.5462)" fill="#56860C" cx="53.407" cy="56.214" rx="5.523" ry="5.949"/>
	
		<ellipse transform="matrix(-0.1114 0.9938 -0.9938 -0.1114 161.4704 56.5933)" fill="#56860C" cx="55.433" cy="100.487" rx="7.285" ry="7.948"/>
	
		<ellipse transform="matrix(-0.1114 0.9938 -0.9938 -0.1114 179.1876 39.709)" fill="#56860C" cx="71.841" cy="99.966" rx="4.919" ry="5.538"/>
	<path fill="#56860C" d="M104.511,56.649c-4.466-1.942-9.795,0.412-11.901,5.257c-0.512,1.179-0.783,2.396-0.84,3.591
		c-1.538-1.693-3.74-2.879-6.285-3.164c-5.25-0.589-9.946,2.858-10.489,7.698s3.274,9.241,8.524,9.829
		c1.644,0.184,3.233-0.027,4.657-0.553c-0.929,1.919-0.962,4.097,0.13,5.863c1.824,2.952,6.078,3.631,9.501,1.516
		c3.423-2.115,4.719-6.223,2.895-9.175c-1.504-2.434-4.658-3.318-7.637-2.37c0.489-0.907,0.823-1.906,0.944-2.979
		c0.002-0.018,0.001-0.037,0.003-0.055c0.779,0.877,1.743,1.597,2.872,2.087c4.466,1.942,9.795-0.412,11.901-5.257
		C110.891,64.092,108.977,58.59,104.511,56.649z"/>
	<path fill="#79C606" d="M33.548,38.55c-0.294-2.764-2.735-4.771-5.452-4.483c-2.58,0.274-4.457,2.523-4.391,5.115
		c-1.252-1.761-3.26-2.909-5.533-2.909c-3.797,0-6.875,3.19-6.875,7.125c0,3.935,3.078,7.125,6.875,7.125s6.875-3.19,6.875-7.125
		c0-0.328-0.029-0.647-0.07-0.963c1.027,1.15,2.551,1.816,4.183,1.643C31.877,43.789,33.842,41.314,33.548,38.55z"/>
	<path fill="#79C606" d="M30.452,86.427c-0.233-2.196-1.567-4-3.381-4.916c0.581-1.14,0.797-2.507,0.482-3.895
		c-0.679-2.993-3.488-4.908-6.273-4.276s-4.493,3.571-3.813,6.564c0.315,1.388,1.091,2.539,2.107,3.317
		c-0.95,1.227-1.448,2.818-1.27,4.496c0.363,3.413,3.376,5.891,6.731,5.534C28.389,92.895,30.815,89.84,30.452,86.427z"/>
	
		<ellipse transform="matrix(0.9752 -0.2213 0.2213 0.9752 -10.7688 13.1969)" fill="#79C606" cx="53.51" cy="54.657" rx="3.065" ry="3.294"/>
	
		<ellipse transform="matrix(0.1055 -0.9944 0.9944 0.1055 -52.2316 143.2464)" fill="#79C606" cx="53.51" cy="100.657" rx="4.24" ry="4.556"/>
	
		<ellipse transform="matrix(0.1055 -0.9944 0.9944 0.1055 -34.7547 160.5076)" fill="#79C606" cx="71.843" cy="99.573" rx="3.156" ry="3.392"/>
	
		<ellipse transform="matrix(0.9804 -0.1971 0.1971 0.9804 -14.043 20.6452)" fill="#79C606" cx="96.677" cy="80.859" rx="4.007" ry="4.307"/>
	<path fill="#79C606" d="M89.036,69.67c-0.585,0.015-1.13,0.162-1.62,0.395c-0.09-1.614-0.888-3.119-2.311-3.973
		c-2.364-1.419-5.517-0.51-7.043,2.03c-1.525,2.541-0.845,5.751,1.519,7.17c1.915,1.15,4.335,0.751,6.001-0.785
		c0.564,1.357,1.985,2.306,3.64,2.263c2.107-0.055,3.773-1.689,3.722-3.65C92.892,71.159,91.143,69.615,89.036,69.67z"/>
	
		<ellipse transform="matrix(-0.4844 0.8748 -0.8748 -0.4844 155.5668 -32.1554)" fill="#79C606" cx="87.258" cy="29.762" rx="3.701" ry="3.977"/>
	
		<ellipse transform="matrix(-0.7457 -0.6663 0.6663 -0.7457 110.8417 84.8296)" fill="#79C606" cx="71.609" cy="21.262" rx="3.505" ry="3.767"/>
	
		<ellipse transform="matrix(-0.9706 -0.2406 0.2406 -0.9706 181.5803 153.0082)" fill="#79C606" cx="100.129" cy="65.421" rx="6.954" ry="7.474"/>
	<circle fill="#4F6026" cx="3.241" cy="33.746" r="2.278"/>
	<circle fill="#4F6026" cx="43.09" cy="11.607" r="2.417"/>
	<circle fill="#4F6026" cx="111.431" cy="27.972" r="1.79"/>
	<circle fill="#4F6026" cx="114.02" cy="33.746" r="2.407"/>
	<circle fill="#4F6026" cx="116.428" cy="99.966" r="2.609"/>
</g>
</svg>
