<?xml version="1.0" encoding="utf-8"?>
<!-- Generator: Adobe Illustrator 17.0.2, SVG Export Plug-In . SVG Version: 6.00 Build 0)  -->
<!DOCTYPE svg PUBLIC "-//W3C//DTD SVG 1.1//EN" "http://www.w3.org/Graphics/SVG/1.1/DTD/svg11.dtd">
<svg version="1.1" xmlns="http://www.w3.org/2000/svg" xmlns:xlink="http://www.w3.org/1999/xlink" x="0px" y="0px" width="1600px"
	 height="200px" viewBox="0 0 1600 200" enable-background="new 0 0 1600 200" xml:space="preserve">
<g id="boxes" display="none">
	<rect x="200" display="inline" fill="none" stroke="#3A3F2C" stroke-miterlimit="10" width="200" height="200"/>
	<rect x="400" display="inline" fill="none" stroke="#3A3F2C" stroke-miterlimit="10" width="200" height="200"/>
	<rect x="600" y="-0.151" display="inline" fill="none" stroke="#3A3F2C" stroke-miterlimit="10" width="200" height="200"/>
	<rect x="800" y="-0.133" display="inline" fill="none" stroke="#3A3F2C" stroke-miterlimit="10" width="200" height="200"/>
	<rect x="999.862" y="-0.133" display="inline" fill="none" stroke="#3A3F2C" stroke-miterlimit="10" width="200" height="200"/>
	<rect x="1200" y="-0.133" display="inline" fill="none" stroke="#3A3F2C" stroke-miterlimit="10" width="200" height="200"/>
	<rect x="1400" y="-0.133" display="inline" fill="none" stroke="#3A3F2C" stroke-miterlimit="10" width="200" height="200"/>
</g>
<g id="sprite">
	<path fill="#56860C" d="M818.694,156.357c-2.865,5.911-6.602,12.702-1.338,15.418c5.264,2.716,7.437-2.108,7.98-7.709
		c0.543-5.601,4.2-9.979,1.149-12.815S818.694,156.357,818.694,156.357z"/>
	<path fill="#56860C" d="M827.51,54.966c1.019-1.555-0.815-7.259-5.297-8.074s-11.205-1.719-12.02,4.641s4.983,6.322,8.501,5.424
		C822.213,56.06,826.491,56.521,827.51,54.966z"/>
	
		<ellipse transform="matrix(0.8758 -0.4827 0.4827 0.8758 97.123 428.3759)" fill="#56860C" cx="880.885" cy="25.481" rx="4.547" ry="5.908"/>
	<path fill="#56860C" d="M975.651,39.494c5.918,0.999,7.505,5.731,6.715,10.415c-0.791,4.684-4.704,7.864-10.622,6.865
		c-5.918-0.999-10.905-7.666-10.809-10.482C961.843,43.851,969.733,38.495,975.651,39.494z"/>
	<path fill="#56860C" d="M976.106,119.643c-1.672-3.631-5.296-5.797-9.299-6.023c0.597-0.366,1.184-0.761,1.753-1.194
		c9.561-7.274,11.178-21.232,3.613-31.176c-5.028-6.608-12.844-9.757-20.329-9.007c6.18-7.631,6.579-18.824,0.304-27.072
		c-4.806-6.317-12.325-9.311-19.627-8.617c-0.578-1.315-1.299-2.589-2.208-3.783c-6.137-8.066-17.578-9.686-25.553-3.619
		c-3.623,2.757-5.892,6.629-6.731,10.787c-3.097-1.37-6.484-2.137-10.039-2.137c-13.67,0-24.916,11.17-26.298,25.495
		c-4.471-6.187-11.15-10.125-18.624-10.125c-13.461,0-24.373,12.747-24.373,28.471c0,12.567,6.979,23.212,16.65,26.988
		c-0.178,0.257-0.358,0.511-0.527,0.774c-4.639,5.085-7.498,11.889-7.498,19.39c0,15.724,12.47,28.471,27.853,28.471
		c9.729,0,18.282-5.107,23.263-12.833c3.765-4.127,6.331-9.39,7.17-15.24c3.349-2.219,6.193-5.149,8.344-8.586
		c0.633,4.262,2.157,8.224,4.422,11.645c-3.5,0.145-7.137,1.301-10.394,3.558c-4.363,3.025-7.129,7.377-8.012,11.832
		c-1.14,0.495-2.254,1.102-3.32,1.841c-8.085,5.605-10.448,16.193-5.279,23.649c5.169,7.456,15.914,8.957,23.998,3.353
		c0.134-0.093,0.254-0.199,0.385-0.294c6.284,3.424,14.501,3.367,21.454-0.835c6.366-3.847,10.142-10.247,10.653-16.792
		c6.377,9.827,19.009,13.818,29.799,8.851c11.865-5.462,16.985-19.662,11.436-31.716c-0.123-0.266-0.272-0.511-0.402-0.771
		c0.376-0.133,0.75-0.284,1.121-0.455C975.79,131.72,978.609,125.081,976.106,119.643z M957.867,116.6
		c-1.948,1.619-3.301,3.729-3.928,5.992c-1.673-0.49-3.396-0.803-5.144-0.914c0.325-1.739,0.51-3.53,0.51-5.366
		c0-0.19-0.024-0.373-0.028-0.562C952.075,116.594,954.992,116.886,957.867,116.6z M923.91,145.493
		c-0.219-0.277-0.451-0.539-0.684-0.801c0.231-0.015,0.465-0.015,0.694-0.036C923.912,144.935,923.908,145.213,923.91,145.493z
		 M912.589,76.665c1.176-3.223,1.843-6.72,1.843-10.392c0-0.131-0.016-0.258-0.018-0.388c0.741,1.968,1.77,3.866,3.11,5.628
		c0.653,0.858,1.372,1.633,2.118,2.369C917.177,74.281,914.776,75.209,912.589,76.665z M936.989,80.679
		c-0.134-0.17-0.277-0.329-0.415-0.492c0.288-0.02,0.575-0.055,0.863-0.086C937.285,80.292,937.133,80.483,936.989,80.679z"/>
	<path fill="#79C606" d="M922.86,153.292c0-8.23-5.816-14.902-12.991-14.902c-1.306,0-2.564,0.226-3.753,0.637
		c-1.216-1.405-2.781-2.543-4.636-3.26c-6.047-2.335-12.841,0.674-15.176,6.721c-1.026,2.657-1.019,5.457-0.177,7.961
		c-5.466,0.587-9.724,5.212-9.724,10.834c0,6.019,4.88,10.899,10.899,10.899c2.352,0,4.524-0.752,6.304-2.019
		c1.052,0.784,2.237,1.448,3.539,1.951c6.101,2.356,12.667,0.41,15.677-4.323C918.572,166.256,922.86,160.355,922.86,153.292z"/>
	<path fill="#79C606" d="M963.533,117.96c1.23-5.349,0.069-10.649-2.747-14.656c0.123-0.408,0.249-0.815,0.347-1.237
		c2.209-9.608-3.278-19.07-12.256-21.134c-6.341-1.458-12.715,1.176-16.698,6.226c-6.781-3.073-15.727-1.862-22.767,3.775
		c-9.459,7.574-11.888,20.256-5.427,28.326c1.732,2.163,3.937,3.757,6.405,4.812c0.318,3.181,1.467,6.21,3.518,8.773
		c4.089,5.107,10.759,7.133,17.503,6.021c-0.028,7.352,4.098,13.721,10.423,15.176c7.569,1.74,15.398-4.21,17.486-13.292
		c1.089-4.734,0.39-9.374-1.589-12.988C960.51,125.312,962.617,121.944,963.533,117.96z"/>
	<path fill="#79C606" d="M866.353,82.408c0-4.607-2.828-8.448-6.581-9.32c-2.803-6.527-8.813-11.053-15.797-11.053
		c-9.659,0-17.489,8.635-17.489,19.286c0,10.651,7.83,19.286,17.489,19.286c6.118,0,11.495-3.471,14.621-8.718
		C862.918,91.621,866.353,87.485,866.353,82.408z"/>
	<path fill="#79C606" d="M887.266,105.729c-5.017-5.675-13.259-6.585-18.407-2.033c-1.201,1.061-2.115,2.331-2.766,3.718
		c-4.484-0.735-9.399-0.285-14.173,1.575c-12.451,4.85-19.198,17.374-15.069,27.973c4.128,10.599,17.569,15.259,30.02,10.409
		c9.74-3.794,15.961-12.284,16.245-20.875c1.413-0.479,2.745-1.216,3.914-2.249C892.177,119.694,892.283,111.404,887.266,105.729z"
		/>
	<path fill="#79C606" d="M931.59,44.77c-10.042-7.945-22.87-8.461-28.652-1.153c-0.605,0.765-1.086,1.596-1.492,2.461
		c-1.736,0.749-3.413,1.782-4.939,3.131c-0.189,0.167-0.359,0.347-0.539,0.52c-4.54-0.677-9.648,0.776-13.71,4.367
		c-3.339,2.952-5.338,6.785-5.881,10.604c-0.307,0.228-0.611,0.461-0.902,0.719c-5.663,5.007-6.115,13.748-1.018,19.54
		c0.096,3.174,1.265,6.353,3.553,8.941c5.121,5.793,13.87,6.424,19.542,1.409c1.788-1.581,3.054-3.535,3.793-5.65
		c4.393,0.476,9.245-1.002,13.137-4.443c2.847-2.517,4.71-5.674,5.537-8.917c7.634,2.485,15.21,1.239,19.286-3.912
		C945.086,65.08,941.632,52.715,931.59,44.77z"/>
	<path fill="#91E900" d="M908.265,58.151c-1.048,0-2.04,0.195-2.963,0.518c-1.627-3.455-5.499-5.887-10.019-5.887
		c-5.988,0-10.842,4.264-10.842,9.525c0,0.157,0.018,0.31,0.027,0.466c-4.33,2.328-7.248,6.655-7.248,11.622
		c0,7.426,6.506,13.446,14.533,13.446c8.026,0,14.532-6.02,14.532-13.446c0-0.504-0.035-1-0.094-1.49
		c0.667,0.157,1.354,0.267,2.075,0.267c4.569,0,8.273-3.363,8.273-7.511C916.538,61.514,912.834,58.151,908.265,58.151z"/>
	
		<ellipse transform="matrix(0.7901 0.613 -0.613 0.7901 225.0365 -550.1503)" fill="#91E900" cx="915.872" cy="53.533" rx="5.774" ry="5.242"/>
	
		<ellipse transform="matrix(0.1253 0.9921 -0.9921 0.1253 879.7094 -865.2301)" fill="#91E900" cx="930.532" cy="66.273" rx="8.465" ry="7.761"/>
	<path fill="#91E900" d="M956.413,136.078c-0.795-6.297-6.095-10.815-11.838-10.089c-1.078,0.136-2.095,0.447-3.031,0.905
		c0.011-0.07,0.037-0.134,0.046-0.204c0.471-3.678-1.867-7.008-5.221-7.437s-6.455,2.205-6.925,5.883
		c-0.47,3.678,1.867,7.008,5.222,7.437c0.606,0.077,1.195,0.024,1.771-0.087c-0.773,1.874-1.098,4.006-0.818,6.218
		c0.795,6.297,6.095,10.815,11.838,10.089C953.197,148.068,957.208,142.375,956.413,136.078z"/>
	
		<ellipse transform="matrix(-0.1269 0.9919 -0.9919 -0.1269 1148.1458 -912.428)" fill="#91E900" cx="975.651" cy="49.108" rx="4.379" ry="3.993"/>
	
		<ellipse transform="matrix(-0.996 0.0891 -0.0891 -0.996 1839.0906 146.3523)" fill="#91E900" cx="916.279" cy="114.222" rx="10.511" ry="8.905"/>
	<path fill="#91E900" d="M915.293,144.587c-3.63-3.258-9.095-3.343-13.405-0.581c0.134-1.923-0.493-3.802-1.938-5.099
		c-2.658-2.386-6.981-1.904-9.656,1.077c-2.675,2.98-2.69,7.33-0.033,9.716c1.691,1.518,4.053,1.865,6.24,1.156
		c-1.441,4.204-0.563,8.806,2.662,11.7c4.455,4,11.678,3.22,16.132-1.742C919.75,155.852,919.749,148.587,915.293,144.587z"/>
	
		<ellipse transform="matrix(-0.668 0.7441 -0.7441 -0.668 1598.0288 -400.1853)" fill="#91E900" cx="888.278" cy="156.357" rx="3.108" ry="2.791"/>
	
		<ellipse transform="matrix(-0.2891 0.9573 -0.9573 -0.2891 1215.3185 -572.3251)" fill="#91E900" cx="820.176" cy="165.111" rx="3.108" ry="2.791"/>
	
		<ellipse transform="matrix(-0.9971 0.0764 -0.0764 -0.9971 1633.0657 40.5978)" fill="#91E900" cx="815.756" cy="51.533" rx="4.424" ry="3.426"/>
	
		<ellipse transform="matrix(-0.4767 -0.8791 0.8791 -0.4767 1277.7461 808.7863)" fill="#91E900" cx="879.598" cy="24.088" rx="2.692" ry="2.085"/>
	<path fill="#91E900" d="M955.362,109.448c2.757-3.34,4.056-7.851,3.165-12.45c-1.578-8.142-9.421-13.471-17.516-11.902
		c-5.461,1.059-9.632,4.99-11.29,9.933c-1.337-1.232-3.186-1.852-5.08-1.485c-3.202,0.621-5.284,3.779-4.649,7.054
		c0.635,3.275,3.745,5.427,6.948,4.806c1.009-0.196,1.888-0.664,2.625-1.288c1.961,6.615,8.178,11.006,14.972,10.707
		c0.911,2.941,3.898,4.797,7.009,4.194c3.334-0.646,5.516-3.856,4.874-7.169C956.245,110.948,955.868,110.145,955.362,109.448z"/>
	<path fill="#91E900" d="M879.519,122.387c-0.622-4.928-4.77-8.463-9.266-7.896c-2.351,0.297-4.312,1.671-5.577,3.606
		c-2.987-3.032-7.134-4.681-11.473-4.133c-7.719,0.975-13.122,8.533-12.068,16.882s8.167,14.327,15.886,13.353
		c6.253-0.79,10.983-5.9,11.995-12.25c1.098,0.389,2.28,0.542,3.49,0.389C877.002,131.771,880.142,127.316,879.519,122.387z"/>
	<path fill="#91E900" d="M852.772,77.111c-0.081,0-0.156,0.02-0.236,0.024c-1.438-4.655-5.774-8.037-10.901-8.037
		c-6.301,0-11.409,5.108-11.409,11.409c0,6.301,5.108,11.409,11.409,11.409c4.242,0,7.936-2.321,9.902-5.757
		c0.396,0.11,0.804,0.188,1.235,0.188c2.55,0,4.618-2.067,4.618-4.618C857.389,79.179,855.322,77.111,852.772,77.111z"/>
	<path fill="#56860C" d="M834.165,46.319"/>
	<path fill="#56860C" d="M979.625,159.328c1.63,1.854,2.173,4.299,1.901,7.558c-0.272,3.26,3.803,5.333,6.519,1.308
		c2.716-4.025,2.173-5.831,0-8.867c-2.173-3.035-7.606-6.664-9.779-4.985C976.093,156.021,979.625,159.328,979.625,159.328z"/>
	<g>
		<path fill="#3A3F2C" d="M1079.544,57.326c0-9.414-7.632-17.046-17.046-17.046c-9.414,0-17.046,7.632-17.046,17.046
			c0,0.033,0.005,0.064,0.005,0.097c-4.976,1.335-9.204,4.557-11.92,8.898c-9.709,1.343-17.15,8.832-17.15,17.897
			c0,10.014,9.072,18.133,20.263,18.133c4.724,0,9.06-1.459,12.506-3.884c0.466,0.033,0.931,0.073,1.405,0.073
			c11.191,0,20.263-9.36,20.263-20.906c0-1.766-0.236-3.471-0.635-5.109C1075.735,69.712,1079.544,63.97,1079.544,57.326z"/>
		<ellipse fill="#3A3F2C" cx="1088.181" cy="93.694" rx="20.263" ry="23.44"/>
		<path fill="#3A3F2C" d="M1124.995,147.561c-5.233-1.612-10.778,0.31-14.489,4.455c-1.499-7.255-6.142-13.189-12.875-15.263
			c-10.567-3.255-22.248,4.217-26.089,16.688c-3.841,12.471,1.611,25.22,12.179,28.475c9.078,2.796,18.962-2.336,24.007-11.741
			c1.615,3.378,4.433,6.027,8.097,7.156c7.428,2.288,15.502-2.522,18.034-10.743
			C1136.392,158.367,1132.424,149.849,1124.995,147.561z"/>
		<path fill="#3A3F2C" d="M1151.098,111.869c2.566,0,4.965-0.748,7.041-2.036c2.823,6.835,8.926,11.58,16.02,11.58
			c9.776,0,17.7-8.987,17.7-20.074s-7.925-20.074-17.7-20.074c-4.719,0-8.996,2.108-12.169,5.522
			c-2.598-3.373-6.512-5.522-10.892-5.522c-6.078,0-11.248,4.144-13.258,9.952c-2.141-1.066-4.507-1.672-7.004-1.672
			c-6.301,0-11.795,3.787-14.79,9.418c-0.787-0.144-1.587-0.242-2.407-0.242c-8.79,0-15.916,8.577-15.916,19.158
			c0,9.403,5.632,17.207,13.055,18.832c3.488,3.63,8.305,5.875,13.626,5.875c4.543,0,8.711-1.647,12.006-4.385
			c-2.596,10.256,3.272,20.861,13.518,24.017c10.578,3.258,21.788-2.658,25.039-13.213c3.251-10.555-2.688-21.754-13.266-25.011
			c-6.714-2.068-13.675-0.43-18.701,3.734c0.43-1.666,0.68-3.408,0.68-5.215c0-0.351-0.033-0.693-0.051-1.04
			c2.21-2.746,3.713-6.2,4.207-10.027C1148.886,111.713,1149.974,111.869,1151.098,111.869z"/>
		<path fill="#3A3F2C" d="M1073.076,121.221c1.282-6.61-3.034-13.411-10.157-15.605c-7.586-2.337-15.482,1.437-17.636,8.429
			c-1.699,5.518,0.696,11.381,5.507,14.76c-0.126,0.334-0.256,0.665-0.363,1.011c-2.565,8.328,1.505,16.974,9.092,19.31
			c7.586,2.337,15.815-2.521,18.381-10.849C1079.927,131.695,1077.799,124.928,1073.076,121.221z"/>
		<path fill="#3A3F2C" d="M1158.672,57.259c-1.856-0.572-3.713-0.721-5.425-0.517c-0.979-5.082-4.331-9.328-9.212-10.832
			c-4.086-1.258-8.371-0.327-11.812,2.149c-0.957-0.529-1.969-0.977-3.047-1.309c-6.331-1.95-13.033,0.215-17.732,5.03
			c0.12-0.312,0.244-0.622,0.344-0.946c2.384-7.74-1.834-15.908-9.42-18.245c-7.586-2.337-15.669,2.043-18.053,9.783
			c-2.384,7.74,1.834,15.908,9.42,18.245c4.932,1.519,10.064,0.186,13.713-3.05c-0.445,0.943-0.848,1.918-1.166,2.949
			c-3.234,10.501,1.772,21.363,11.182,24.261c7.724,2.379,16.006-1.354,20.517-8.574c4.216,0.202,8.358-1.711,11.319-5.069
			c1.231,0.984,2.712,1.788,4.389,2.305c5.721,1.762,11.474-0.431,12.851-4.899C1167.916,64.071,1164.394,59.021,1158.672,57.259z"
			/>
		<path fill="#4F6026" d="M1077.324,82.921c-0.794,0.836,0.611,5.297-0.407,7.959c-1.019,2.662-3.667,1.209-3.82,5.408
			c-0.153,4.2,4.635,4.357,7.691,6.405s3.463,4.675,5.093,5.731c1.63,1.056,4.686-1.871,6.685-2.889c2-1.019,3.297,1.019,5.986,0
			c2.689-1.019,0.367-3.871,1.182-7.253c0.815-3.382,2.852-3.137,3.463-6.397c0.611-3.26-2.852-3.26-5.27-5.704
			c-2.418-2.445,0.177-5.501-2.675-7.13s-5.905,3.805-13.388,3.463C1078.886,82.377,1078.615,81.563,1077.324,82.921z"/>
		<path fill="#4F6026" d="M1188.772,102.318c-1.748-9.774-11.153-16.269-21.007-14.507c-2.199,0.393-4.222,1.182-6.038,2.252
			c-2.734-1.078-5.854-1.436-9.041-0.866c-4.116,0.736-7.581,2.89-9.923,5.794c-1.915-0.821-4.059-1.295-6.333-1.295
			c-6.161,0-11.408,3.386-13.495,8.15c-1.189-0.35-2.455-0.546-3.774-0.546c-6.708,0-12.147,4.905-12.147,10.956
			c0,3.317,1.641,6.283,4.223,8.292c-0.699,1.418-1.091,2.979-1.091,4.622c0,6.432,5.94,11.647,13.268,11.647
			c3.05,0,5.852-0.913,8.093-2.432c1.182,0.303,2.429,0.473,3.723,0.473c0.491,0,0.975-0.027,1.452-0.073
			c2.697,0.127,3.126,2.149,4.084,6.079c0.121,0.115,0.234,0.208,0.35,0.306c0.04,0.707,0.108,1.418,0.236,2.133
			c1.667,9.319,10.355,15.561,19.407,13.942c9.051-1.619,15.038-10.486,13.371-19.804c-0.275-1.539-0.758-2.983-1.386-4.333
			c1.992-2.983,3.089-6.548,3.014-10.285C1184.673,120.363,1190.419,111.531,1188.772,102.318z"/>
		<path fill="#4F6026" d="M1119.164,152.343c-3.288,0-6.306,1.028-8.699,2.736c-3.419-6.365-10.628-10.765-18.996-10.765
			c-11.664,0-21.119,8.528-21.119,19.048c0,10.52,9.455,19.048,21.119,19.048c7.376,0,13.861-3.416,17.638-8.585
			c2.55,2.364,6.11,3.838,10.056,3.838c7.753,0,14.037-5.668,14.037-12.66C1133.201,158.012,1126.917,152.343,1119.164,152.343z"/>
		<path fill="#4F6026" d="M1073.097,136.108c0-5.623-3.437-10.393-8.222-12.157c0.013-0.246,0.034-0.489,0.034-0.739
			c0-7.122-5.313-12.896-11.868-12.896c-2.464,0-4.752,0.817-6.649,2.213c-3.822-1.137-7.875-1.233-11.805-0.014
			c-11.818,3.666-17.993,17.616-13.792,31.158c4.201,13.542,17.187,21.548,29.005,17.882c6.217-1.928,10.848-6.716,13.253-12.779
			C1068.766,147.669,1073.097,142.423,1073.097,136.108z"/>
		<path fill="#4F6026" d="M1162.742,55.687c-1.624-0.636-3.314-0.752-4.896-0.455c0.35-0.573,0.666-1.176,0.919-1.822
			c2.406-6.142-0.769-13.129-7.091-15.605c-2.453-0.961-5.016-1.092-7.379-0.546c-1.86-5.846-7.096-11.314-14.411-14.179
			c-7.035-2.755-14.307-2.453-19.6,0.267v0c-0.001,0.001-0.003,0.001-0.004,0.002c-0.003,0.001-0.005,0.003-0.008,0.004
			c-4.901,2.4-5.042,4.876-10.47,6.827c-5.433,1.952-12.678,4.904-10.685,6.552c1.993,1.648,5.622-1.368,4.079,4.961
			c0.001,0.001,0.003,0.002,0.004,0.003c-0.869,2.96-0.611,5.981,1.01,8.426c2.369,3.574,6.998,4.962,11.791,4.012l-0.002,0.003
			c0.008-0.003,0.016-0.005,0.023-0.008c0.813-0.162,1.63-0.388,2.443-0.687c2.979-0.565,4.899,0.505,3.825,6.667
			c0.009,0.013,0.02,0.02,0.029,0.033c-1.089,6.556,1.79,12.865,7.332,15.035c5.235,2.05,11.237-0.22,14.966-5.156l0.001,0.008
			c0.009-0.015,0.018-0.027,0.028-0.043c0.334-0.445,0.655-0.906,0.95-1.393c1.31-1.715,2.76-2.421,5.914-1.885
			c0.117,0.016,0.231,0.038,0.349,0.05c0.006,0.001,0.01,0.001,0.015,0.002c0.001,0,0.001-0.001,0.002-0.001
			c0.693,0.072,1.403,0.086,2.126,0.028c0.69-0.055,1.358-0.174,2.004-0.342l-0.002,0.003c0.029-0.01,0.064-0.014,0.094-0.023
			c0.028-0.007,0.056-0.013,0.084-0.021c1.816-0.547,4.49,0.095,6.313,1.981l0,0c0.968,1.371,2.345,2.491,4.041,3.155
			c4.506,1.765,9.549-0.354,11.264-4.732C1169.511,62.432,1167.249,57.452,1162.742,55.687z"/>
		<path fill="#4F6026" d="M1064.741,41.13c-6.904-2.488-14.82,1.927-17.68,9.863c-0.193,0.535-0.353,1.072-0.49,1.61
			c-1.091-0.735-2.274-1.345-3.546-1.803c-10.329-3.723-22.479,3.738-27.138,16.664c-4.659,12.926-0.063,26.422,10.266,30.145
			c5.581,2.012,11.685,0.736,16.86-2.88c0.005,0.003,0.009,0.008,0.014,0.012c0.04-0.037,0.075-0.063,0.115-0.099
			c0.923-0.654,1.814-1.382,2.668-2.181c7.023-5.12,9.299-1.3,9.299-1.3s4.219,2.227,4.452-3.658
			c0.229-5.78,2.675-14.178,9.342-22.082c0.123-0.142,0.241-0.287,0.359-0.434v0l0,0c1.159-1.437,2.124-3.106,2.799-4.979
			C1074.923,52.069,1071.645,43.619,1064.741,41.13z"/>
		<path fill="#56860C" d="M1152.36,47.961c-1.14-4.375-4.386-7.575-8.176-8.599c-0.27-0.122-0.613-0.199-1.038-0.223
			c-0.768-0.123-1.551-0.152-2.339-0.088c-5.669-0.163-10.42-0.222-13.397-6.423c-0.001-0.002-0.002-0.003-0.003-0.005
			c-0.019-0.04-0.04-0.072-0.059-0.113c-0.001,0-0.001,0-0.002,0c-0.132-0.273-0.273-0.543-0.435-0.806
			c-2.974-4.812-9.906-5.918-15.485-2.471c-5.579,3.447-7.691,10.142-4.717,14.954c2.557,4.138,8.042,5.527,13.076,3.644
			l0.002,0.001c0.002-0.001,0.005-0.003,0.008-0.004c0.659-0.247,1.309-0.554,1.945-0.915c3.815-1.414,8.408-0.798,10.064,6.405
			c1.629,6.251,7.552,10.12,13.228,8.64C1150.709,60.479,1153.989,54.212,1152.36,47.961z"/>
		<ellipse fill="#56860C" cx="1041.172" cy="136.328" rx="16.798" ry="19.194"/>
		<path fill="#56860C" d="M1058.397,57.266c-3.764-4.76-11.102-5.229-16.39-1.047c-0.973,0.77-1.807,1.645-2.5,2.588
			c-6.181-2.96-14.161-0.402-18.504,6.218c-4.687,7.144-3.359,16.299,2.967,20.449c6.326,4.15,15.253,1.723,19.94-5.42
			c0.818-1.246,1.441-2.555,1.898-3.887c3.261,0.514,6.868-0.367,9.831-2.71C1060.926,69.275,1062.161,62.026,1058.397,57.266z"/>
		
			<ellipse transform="matrix(0.6203 0.7844 -0.7844 0.6203 487.0337 -818.6902)" fill="#56860C" cx="1089.117" cy="93.697" rx="9.001" ry="9.696"/>
		
			<ellipse transform="matrix(-0.1114 0.9938 -0.9938 -0.1114 1378.9374 -901.2899)" fill="#56860C" cx="1092.419" cy="165.853" rx="11.873" ry="12.954"/>
		
			<ellipse transform="matrix(-0.1114 0.9938 -0.9938 -0.1114 1407.8127 -928.808)" fill="#56860C" cx="1119.16" cy="165.004" rx="8.017" ry="9.026"/>
		<path fill="#56860C" d="M1172.405,94.405c-7.279-3.164-15.963,0.672-19.396,8.568c-0.835,1.921-1.276,3.904-1.37,5.853
			c-2.507-2.759-6.096-4.692-10.244-5.157c-8.557-0.959-16.21,4.658-17.095,12.546c-0.884,7.888,5.336,15.06,13.892,16.019
			c2.679,0.3,5.269-0.044,7.59-0.901c-1.515,3.128-1.568,6.677,0.211,9.556c2.973,4.812,9.906,5.918,15.484,2.471
			c5.579-3.447,7.691-10.142,4.718-14.954c-2.451-3.966-7.591-5.407-12.447-3.863c0.797-1.478,1.342-3.106,1.538-4.854
			c0.004-0.03,0.002-0.06,0.005-0.09c1.27,1.43,2.841,2.602,4.681,3.402c7.279,3.164,15.963-0.672,19.396-8.568
			C1182.803,106.536,1179.685,97.569,1172.405,94.405z"/>
		<path fill="#79C606" d="M1056.75,64.907c-0.479-4.506-4.457-7.776-8.886-7.306c-4.205,0.447-7.263,4.112-7.157,8.337
			c-2.04-2.87-5.314-4.741-9.018-4.741c-6.188,0-11.205,5.199-11.205,11.612c0,6.413,5.017,11.612,11.205,11.612
			c6.188,0,11.205-5.199,11.205-11.612c0-0.534-0.047-1.055-0.114-1.57c1.674,1.875,4.157,2.96,6.818,2.677
			C1054.027,73.447,1057.229,69.413,1056.75,64.907z"/>
		<path fill="#79C606" d="M1051.705,142.938c-0.38-3.579-2.555-6.519-5.51-8.011c0.947-1.858,1.299-4.086,0.785-6.349
			c-1.107-4.879-5.685-7.998-10.224-6.968c-4.54,1.03-7.322,5.82-6.215,10.699c0.513,2.262,1.778,4.138,3.434,5.405
			c-1.548,2-2.36,4.592-2.07,7.328c0.591,5.562,5.503,9.6,10.97,9.019C1048.342,153.48,1052.296,148.5,1051.705,142.938z"/>
		
			<ellipse transform="matrix(0.9752 -0.2213 0.2213 0.9752 6.8344 243.3187)" fill="#79C606" cx="1089.284" cy="91.159" rx="4.995" ry="5.368"/>
		
			<ellipse transform="matrix(0.1055 -0.9944 0.9944 0.1055 809.136 1231.8016)" fill="#79C606" cx="1089.284" cy="166.13" rx="6.91" ry="7.425"/>
		
			<ellipse transform="matrix(0.1055 -0.9944 0.9944 0.1055 837.6198 1259.934)" fill="#79C606" cx="1119.164" cy="164.363" rx="5.144" ry="5.528"/>
		
			<ellipse transform="matrix(0.9804 -0.1971 0.1971 0.9804 -3.6326 231.233)" fill="#79C606" cx="1159.637" cy="133.863" rx="6.531" ry="7.019"/>
		<path fill="#79C606" d="M1147.185,115.627c-0.954,0.025-1.842,0.265-2.641,0.643c-0.146-2.631-1.448-5.083-3.766-6.475
			c-3.853-2.313-8.992-0.832-11.478,3.309c-2.486,4.141-1.378,9.373,2.475,11.686c3.122,1.874,7.065,1.224,9.78-1.28
			c0.92,2.211,3.235,3.758,5.932,3.688c3.434-0.09,6.15-2.753,6.066-5.948C1153.47,118.055,1150.619,115.537,1147.185,115.627z"/>
		
			<ellipse transform="matrix(-0.4844 0.8748 -0.8748 -0.4844 1742.8795 -925.9597)" fill="#79C606" cx="1144.288" cy="50.586" rx="6.032" ry="6.482"/>
		
			<ellipse transform="matrix(-0.7457 -0.6663 0.6663 -0.7457 1928.5867 809.5464)" fill="#79C606" cx="1118.783" cy="36.733" rx="5.713" ry="6.139"/>
		
			<ellipse transform="matrix(-0.9706 -0.2406 0.2406 -0.9706 2270.1621 494.5228)" fill="#79C606" cx="1165.264" cy="108.703" rx="11.334" ry="12.18"/>
		<circle fill="#4F6026" cx="1007.356" cy="57.078" r="3.712"/>
		<circle fill="#4F6026" cx="1072.302" cy="20.996" r="3.939"/>
		<circle fill="#4F6026" cx="1183.683" cy="47.668" r="2.917"/>
		<circle fill="#4F6026" cx="1187.904" cy="57.078" r="3.923"/>
		<circle fill="#4F6026" cx="1191.828" cy="165.004" r="4.252"/>
	</g>
	<g>
		<path fill="#3A3F2C" d="M1254.623,40.049c-6.095,0-11.035,4.608-11.035,10.293c0,0.408,0.032,0.809,0.082,1.205
			c-2.375-1.381-5.136-2.187-8.095-2.187c-8.814,0-15.959,7.031-15.959,15.704c0,8.673,7.145,15.704,15.959,15.704
			c8.813,0,15.958-7.031,15.958-15.704c0-1.799-0.323-3.52-0.888-5.129c1.236,0.446,2.574,0.701,3.978,0.701
			c6.095,0,11.035-4.608,11.035-10.293S1260.718,40.049,1254.623,40.049z"/>
		<path fill="#3A3F2C" d="M1256.583,112.336c-4.528-2.99-10.459-1.99-13.248,2.234c-1.057,1.601-1.508,3.435-1.418,5.259
			c-6.353-1.075-13.111,1.598-17.038,7.386c-5.324,7.848-3.424,18.427,4.243,23.628c7.667,5.201,18.199,3.056,23.523-4.792
			c3.544-5.224,3.87-11.651,1.442-16.903c2.267-0.465,4.314-1.736,5.644-3.75C1262.521,121.173,1261.111,115.326,1256.583,112.336z"
			/>
		<path fill="#3A3F2C" d="M1308.958,143.966c-5.26-0.227-9.901,2.983-11.956,7.72c-1.074-3.493-3.266-6.643-6.496-8.834
			c-7.667-5.201-18.199-3.056-23.523,4.792c-5.324,7.848-3.424,18.427,4.244,23.628c7.667,5.201,18.199,3.056,23.523-4.792
			c0.924-1.363,1.617-2.811,2.113-4.296c1.817,4.508,5.977,7.758,10.964,7.973c6.907,0.298,12.759-5.323,13.072-12.555
			C1321.211,150.369,1315.865,144.264,1308.958,143.966z"/>
		<path fill="#3A3F2C" d="M1301.888,82.938c0.068-0.476,0.117-0.958,0.138-1.447c0.36-8.345-6.333-15.412-14.951-15.785
			s-15.896,6.091-16.256,14.436c-0.36,8.345,6.333,15.412,14.951,15.784c1.204,0.052,2.378-0.042,3.515-0.244
			c0.998,1.99,2.688,3.645,4.915,4.551c4.862,1.978,10.402-0.348,12.374-5.195C1308.468,90.381,1306.37,85.099,1301.888,82.938z"/>
		<path fill="#3A3F2C" d="M1368.604,89.908c-9.734-3.959-20.896,0.872-24.93,10.791c-0.905,2.225-1.352,4.515-1.426,6.777
			c-5.909-1.937-12.357,0.91-14.694,6.656c-2.444,6.008,0.534,12.896,6.651,15.384c0.705,0.287,1.422,0.495,2.141,0.643
			c-2.637,7.841,0.425,16.125,7.179,18.872c7.065,2.874,15.478-1.4,18.792-9.546c1.721-4.231,1.714-8.667,0.333-12.363
			c6.974-0.601,13.416-5.055,16.275-12.084C1382.959,105.118,1378.338,93.867,1368.604,89.908z"/>
		<path fill="#3A3F2C" d="M1349.074,49.497c-2.607-1.06-5.334-1.323-7.931-0.931c0.854-1.055,1.573-2.249,2.111-3.571
			c2.93-7.205-0.52-15.414-7.706-18.337c-6.44-2.619-13.682-0.093-17.229,5.643c-1.019-0.665-2.118-1.245-3.292-1.722
			c-9.409-3.827-19.993,0.341-23.64,9.309c-3.647,8.968,1.023,19.34,10.431,23.167c8.18,3.327,17.243,0.606,21.869-6.053
			c0.124,0.056,0.242,0.121,0.369,0.172c1.723,0.701,3.519,0.931,5.252,0.764c-3.094,7.741,0.62,16.531,8.332,19.668
			c7.742,3.149,16.577-0.591,19.734-8.353S1356.816,52.646,1349.074,49.497z"/>
		<ellipse fill="#4F6026" cx="1233.742" cy="63.144" rx="8.149" ry="8.556"/>
		<ellipse fill="#4F6026" cx="1236.186" cy="136.689" rx="8.149" ry="9.779"/>
		<ellipse fill="#4F6026" cx="1283.858" cy="158.895" rx="8.76" ry="9.779"/>
		<ellipse fill="#4F6026" cx="1276.524" cy="150.883" rx="5.535" ry="6.178"/>
		
			<ellipse transform="matrix(0.8724 0.4889 -0.4889 0.8724 244.0999 -620.7506)" fill="#4F6026" cx="1310.75" cy="157.061" rx="6.046" ry="6.749"/>
		
			<ellipse transform="matrix(0.9999 0.0119 -0.0119 0.9999 1.6943 -16.0518)" fill="#4F6026" cx="1350.569" cy="134.44" rx="8.11" ry="8.966"/>
		
			<ellipse transform="matrix(0.9999 0.0119 -0.0119 0.9999 1.4285 -16.1933)" fill="#4F6026" cx="1362.344" cy="112.023" rx="10.249" ry="9.997"/>
		
			<ellipse transform="matrix(0.9999 0.0119 -0.0119 0.9999 1.3436 -16.1329)" fill="#4F6026" cx="1357.211" cy="104.908" rx="5.132" ry="5.595"/>
		
			<ellipse transform="matrix(0.9999 0.0119 -0.0119 0.9999 0.5104 -15.7767)" fill="#4F6026" cx="1326.844" cy="35.03" rx="6.645" ry="7.244"/>
		
			<ellipse transform="matrix(0.9999 0.0119 -0.0119 0.9999 0.8459 -15.9711)" fill="#4F6026" cx="1343.358" cy="63.144" rx="6.274" ry="6.84"/>
		
			<ellipse transform="matrix(0.9434 0.3317 -0.3317 0.9434 86.1737 -433.1335)" fill="#4F6026" cx="1311.78" cy="35.845" rx="6.274" ry="3.871"/>
		<ellipse fill="#56860C" cx="1232.112" cy="63.551" rx="4.074" ry="4.686"/>
		<ellipse fill="#56860C" cx="1234.76" cy="137.096" rx="4.686" ry="4.889"/>
		<ellipse fill="#56860C" cx="1284.469" cy="160.321" rx="5.093" ry="5.297"/>
		<ellipse fill="#56860C" cx="1362.699" cy="113.464" rx="6.315" ry="6.519"/>
		<ellipse fill="#56860C" cx="1328.27" cy="35.03" rx="3.667" ry="3.871"/>
		<ellipse fill="#4F6026" cx="1288.646" cy="80.766" rx="5.806" ry="5.399"/>
	</g>
	<g>
		<path fill="#3A3F2C" d="M1450.875,45.239c-3.913-0.15-7.216,3.181-7.415,7.452c-2.554-2.191-6.013-3.266-9.565-2.644
			c-6.339,1.11-10.569,7.202-9.447,13.606c1.121,6.404,7.17,10.696,13.508,9.586c6.196-1.085,10.363-6.931,9.5-13.175
			c0.856,0.45,1.807,0.725,2.82,0.764c3.935,0.151,7.259-3.216,7.424-7.521C1457.867,49.002,1454.81,45.39,1450.875,45.239z"/>
		<ellipse fill="#3A3F2C" cx="1485.413" cy="76.068" rx="7.742" ry="6.666"/>
		<path fill="#3A3F2C" d="M1524.529,29.093c-3.885,0-7.261,2.22-8.978,5.483c-1.298-1.393-2.995-2.264-4.875-2.264
			c-4.051,0-7.334,3.931-7.334,8.78s3.283,8.78,7.334,8.78c2.49,0,4.682-1.493,6.008-3.764c1.868,2.299,4.689,3.764,7.845,3.764
			c5.626,0,10.186-4.651,10.186-10.389S1530.154,29.093,1524.529,29.093z"/>
		<ellipse fill="#3A3F2C" cx="1436.551" cy="137.938" rx="11.033" ry="10.497"/>
		<path fill="#3A3F2C" d="M1507.823,150.884c-2.86,0-5.366,1.337-6.82,3.352c-0.005,0.004-0.01,0.006-0.014,0.01
			c-3.167,2.568-4.575,2.745-7.834-1.023l-0.001,0.001c-1.681-2.426-4.248-3.98-7.13-3.98c-5.063,0-9.168,4.79-9.168,10.698
			c0,5.909,4.104,10.698,9.168,10.698c2.881,0,5.448-1.554,7.129-3.979l0.001,0.001c0.009-0.019,0.022-0.033,0.031-0.052
			c0.224-0.327,0.429-0.673,0.619-1.03c1.892-2.553,5.531-2.914,10.412-0.731c0.068,0.03,0.124,0.042,0.19,0.069
			c0.201,0.084,0.407,0.155,0.616,0.224c0.096,0.029,0.191,0.057,0.283,0.079c0.797,0.236,1.633,0.395,2.518,0.395
			c4.501,0,8.149-3.298,8.149-7.367C1515.972,154.182,1512.324,150.884,1507.823,150.884z"/>
		<path fill="#3A3F2C" d="M1575.732,109.32c0-7.276-4.804-13.174-10.73-13.174c-5.926,0-10.729,5.898-10.729,13.174
			c0,0.812,0.068,1.603,0.183,2.374c-0.099,0.422-0.172,0.851-0.183,1.293c-0.135,5.654-1.63,3.531-5.84,4.346
			c-3.826,0-6.927,2.797-6.927,6.248c0,3.45,3.101,6.248,6.927,6.248c2.158,0,4.062-0.909,5.332-2.305
			c0.1-0.095,0.201-0.205,0.304-0.332c0.054-0.068,0.109-0.134,0.16-0.204c0.015-0.021,0.029-0.035,0.045-0.057
			c2.64-3.79,4.652-5.172,7.501-5.046c1.019,0.395,2.103,0.609,3.229,0.609c0.391,0.114,0.694,0.08,0.933-0.058
			C1571.423,121.854,1575.732,116.209,1575.732,109.32z"/>
	</g>
	<g>
		<path fill="#DBFF78" d="M310.594,38.339c0,0-0.543,45.634-7.606,52.154c-7.062,6.519-60.303,2.173-60.303,2.173
			s48.894,5.976,54.87,12.495c5.976,6.519-10.865,27.707-10.865,27.707s15.211-19.558,23.904-17.928
			c8.692,1.63,46.721,46.721,46.721,46.721s-37.485-46.178-34.769-53.783c2.716-7.606,14.125-14.668,14.125-14.668
			s-10.322,2.173-16.298-2.716C314.397,85.603,310.594,38.339,310.594,38.339z"/>
		<path fill="#91E900" d="M311.341,86.758c0,0,0,5.976-3.26,8.692c-3.26,2.716-13.582,3.803-13.582,3.803s3.803-1.087,8.421,2.716
			c4.618,3.803,2.445,9.61,2.445,9.61s0.543-4.721,5.976-4.178c5.433,0.543,8.149,4.178,8.149,4.178s-4.656-5.171-3.148-7.678
			c1.239-2.06,5.865-6.279,5.865-6.279s-3.599,2.852-7.062-0.204C311.69,94.373,311.341,86.758,311.341,86.758z"/>
	</g>
	<g>
		<path fill="#79C606" d="M553.376,112.974c0-6.676-5.181-12.129-11.74-12.59c-1.319-2.625-3.519-4.728-6.22-5.912
			c0.261-0.82,0.44-1.676,0.44-2.582c0-4.728-3.833-8.56-8.56-8.56c-1.872,0-3.59,0.618-4.999,1.637
			c-0.526-1.485-1.443-2.767-2.637-3.748c0.842-1.582,1.324-3.387,1.324-5.305c0-6.246-5.063-11.309-11.309-11.309
			c-5.011,0-9.253,3.262-10.738,7.776c-0.224-0.013-0.447-0.034-0.674-0.034c-6.246,0-11.309,5.063-11.309,11.309
			c0,0.936,0.126,1.84,0.34,2.71c-3.591,1.895-6.041,5.661-6.041,10.003c0,1.799,0.431,3.494,1.179,5.004
			c-0.389-0.054-0.775-0.119-1.179-0.119c-4.728,0-8.56,3.833-8.56,8.56c0,4.688,3.771,8.485,8.444,8.548
			c0.437,5.935,5.379,10.617,11.425,10.617c2.958,0,5.646-1.13,7.68-2.969c1.36,1.493,3.07,2.654,5.004,3.36
			c-0.098,0.635-0.165,1.28-0.165,1.943c0,6.978,5.657,12.635,12.635,12.635c2.387,0,4.611-0.674,6.516-1.825
			c0.903,2.52,3.288,4.334,6.119,4.334c1.672,0,3.181-0.647,4.335-1.682c0.957,2.414,3.3,4.127,6.055,4.127
			c3.603,0,6.523-2.92,6.523-6.523c0-3.221-2.339-5.88-5.408-6.411c0.335-0.785,0.522-1.649,0.522-2.557
			c0-3.305-2.466-6.006-5.653-6.435c0.094-0.441,0.149-0.897,0.149-1.367c0-0.216-0.043-0.421-0.064-0.631
			c1.238,0.405,2.557,0.631,3.931,0.631C547.719,125.609,553.376,119.952,553.376,112.974z M522.053,115.648
			c-0.005-0.036-0.011-0.071-0.016-0.106c0.02,0.018,0.039,0.036,0.059,0.054C522.083,115.613,522.067,115.629,522.053,115.648z"/>
		<path fill="#DBFF78" d="M517.996,18.306c0,0-10.662,64.377-17.724,70.896c-7.062,6.519-75.854,4.278-75.854,4.278
			s66.414,6.519,73.341,18.539c6.738,11.693-14.261,42.375-14.261,42.375s25.654-24.854,34.497-24.854
			c11.952,0,57.586,52.154,57.586,52.154s-45.227-57.45-41.967-68.044c3.41-11.083,33.003-24.854,33.003-24.854
			s-32.664,9.575-38.64,4.686C522.002,88.591,517.996,18.306,517.996,18.306z"/>
		<path fill="#91E900" d="M514.125,84.721c0,0-5.365,10.73-8.624,13.446c-3.26,2.716-15.076,3.345-15.076,3.345
			s10.05,3.446,14.668,7.249c4.618,3.803-1.63,17.928-1.63,17.928s5.976-10.322,11.409-9.779c5.433,0.543,13.106,7.742,13.106,7.742
			s-7.373-11.519-5.865-14.026c1.239-2.06,9.871-8.384,9.871-8.384s-6.315,0.815-9.779-2.241
			C518.753,96.953,514.125,84.721,514.125,84.721z"/>
	</g>
	<g>
		<path fill="#79C606" d="M771.482,148.382c-7.431,1.524-9.385-3.625-9.893-6.841c2.837-1.806,5.011-4.37,6.092-7.557
			c1.488-4.388,0.634-9.103-1.944-13.172c0.279-0.278,0.561-0.551,0.818-0.857c4.472-5.306,4.323-13.211,0.281-19.917
			c4.11-7.106,1.592-17.359-6.316-24.024c-4.097-3.453-8.898-5.302-13.455-5.572c0.847-2.034,1.267-4.208,1.13-6.454
			c-0.088-1.433-0.412-2.803-0.901-4.111c0.437-1.851,1.409-4.283,3.549-6.684c4.344-4.871,7.604-7.437,7.604-7.437
			s-2.176-2.496-5.435,0c-3.647,5.316-7.423,7.085-10.534,7.385c-3.149-2.689-7.383-4.53-12.128-5.172
			c-6.423-7.635-18.402-12.362-31.805-11.541c-0.784,0.048-1.557,0.121-2.325,0.205c-2.496-2.756-3.43-6.877-5.972-6.682
			c-2.669,0.204-3.116,4.965-3.611,8.738c-12.859,4.242-21.766,13.723-21.72,24.319c-7.243-2.561-16.011-1.392-23.431,3.515
			c-1.309-0.432-2.516-1.372-2.832-3.349c-0.767-4.805-5.432-5.789-8.149-3.888c-2.716,1.901-4.346,3.531,0,6.061
			c2.34,1.363,4.01,4.064,5.059,6.272c-8.712,9.657-9.982,23.39-2.412,32.203c0.254,0.295,0.535,0.553,0.803,0.831
			c-5.653,5.194-9.063,13.41-8.509,22.452c0.75,12.251,8.528,22.112,18.451,24.657c2.837,10.051,11.343,17.119,20.953,16.53
			c5.313-0.325,9.995-2.948,13.404-6.956c5.635,5.598,14.186,8.929,23.574,8.354c11.355-0.695,20.808-6.903,25.024-15.325
			c2.175,2.091,4.835,3.774,7.911,4.817c7.829,2.655,16.061,0.514,21.308-4.803c4.984-0.916,10.562-0.612,13.82,3.193
			c3.721,4.346,6.481-3.214,6.481-3.214S782.076,146.209,771.482,148.382z M719.973,82.451c2.253,0.453,4.638,0.64,7.104,0.489
			c1.328-0.081,2.615-0.27,3.868-0.524c-0.693,4.2,0.292,8.852,2.818,13.042c-2.974,5.142-2.486,11.927,1.019,17.816
			c-2.801,1.804-4.949,4.349-6.021,7.508c-0.476,1.402-0.688,2.837-0.706,4.274c-1.767,1.354-3.299,3.008-4.511,4.924
			c-1.5-1.701-3.267-3.207-5.228-4.51c5.474-1.374,9.878-4.861,11.582-9.883c2.963-8.735-3.348-18.772-14.095-22.417
			c-10.747-3.645-21.862,0.481-24.825,9.216c-2.16,6.367,0.623,13.415,6.444,18.185c-7.599,0.777-14.266,4.008-18.948,8.705
			c-1.933-2.41-4.289-4.356-6.919-5.702c-0.553-6.581-3.13-12.427-6.97-16.777c1.354-0.835,2.675-1.774,3.93-2.852
			c6.686-5.743,10.186-13.632,10.175-21.123c6.343,3.355,14.362,5.126,22.977,4.599C708.474,87.004,714.738,85.209,719.973,82.451z"
			/>
		<circle fill="#56860C" cx="681.974" cy="73.084" r="9.91"/>
		<circle fill="#56860C" cx="650.008" cy="99.076" r="9.91"/>
		<circle fill="#56860C" cx="646.814" cy="115.781" r="9.91"/>
		<circle fill="#56860C" cx="686.049" cy="117.473" r="9.91"/>
		<circle fill="#56860C" cx="683.958" cy="125.691" r="9.91"/>
		<circle fill="#56860C" cx="693.868" cy="119.602" r="9.91"/>
		<circle fill="#56860C" cx="720.348" cy="89.166" r="9.91"/>
		<circle fill="#56860C" cx="725.305" cy="89.166" r="9.91"/>
		<circle fill="#56860C" cx="720.348" cy="96.802" r="9.91"/>
		<circle fill="#56860C" cx="744.51" cy="132.32" r="9.91"/>
		<path fill="#91E900" d="M758.132,84.061c-7.656-6.212-18.935-4.997-25.192,2.714c-3.256,4.012-4.493,8.99-3.869,13.719
			c-4.372-0.368-8.942,0.928-12.67,3.978c-3.63,2.97-5.779,7.053-6.357,11.289c-5.007-2.306-12.454-0.827-18.574,4.179
			c-5.305,4.34-8.219,10.185-8.076,15.159c-0.6-0.35-1.226-0.635-1.872-0.857c1.206-2.572,1.892-5.415,1.892-8.415
			c0-5.811-2.525-11.053-6.575-14.806c7.083,3.859,16.422,3.875,24.503-0.743c10.642-6.082,15.458-18.117,11.938-28.284
			c4.864,3.695,11.654,4.663,17.763,1.938c8.814-3.932,12.867-14.05,9.053-22.6c-3.814-8.55-14.051-12.294-22.865-8.362
			c-0.261,0.116-0.503,0.255-0.755,0.382c-0.684-1.741-1.664-3.392-2.981-4.861c-6.063-6.755-16.592-7.194-23.515-0.98
			c-6.109,5.483-7.363,14.31-3.41,20.953c-2.54,0.575-5.061,1.521-7.47,2.897c-1.444,0.825-2.776,1.764-4,2.789
			c-3.714-3.325-8.564-5.355-13.887-5.355c-11.661,0-21.115,9.668-21.115,21.595c0,7.648,3.898,14.351,9.761,18.188
			c-5.877,3.694-9.761,10.036-9.761,17.25c0,11.407,9.696,20.654,21.658,20.654c0.847,0,1.678-0.058,2.499-0.148
			c-0.447,4.039,0.966,8.004,4.146,10.45c5.123,3.941,12.882,2.449,17.331-3.334c2.327-3.024,3.274-6.618,2.929-9.927
			c0.241,0.116,0.49,0.218,0.742,0.316c-1.373,5.085-0.697,10.165,2.377,13.923c5.874,7.18,18.206,6.809,27.544-0.831
			c6.639-5.43,9.955-13.065,9.221-19.609c0.246,0.144,0.488,0.296,0.74,0.426c-0.796,3.479-0.064,7.236,2.335,10.169
			c4.179,5.109,11.809,5.779,17.043,1.498c5.077-4.153,6.019-11.432,2.258-16.528c4.186-5.226,5.04-12.323,2.198-18.147
			c2.854-1.096,5.477-2.919,7.546-5.468C766.922,101.56,765.788,90.273,758.132,84.061z"/>
		<path fill="#DBFF78" d="M687.819,76.128c-4.296,0-8.094,2.087-10.47,5.291c-2.525-3.839-6.865-6.378-11.804-6.378
			c-7.801,0-14.125,6.324-14.125,14.125c0,7.801,6.324,14.125,14.125,14.125c4.939,0,9.279-2.539,11.804-6.378
			c2.375,3.205,6.174,5.291,10.47,5.291c7.201,0,13.038-5.837,13.038-13.038S695.02,76.128,687.819,76.128z"/>
		<path fill="#DBFF78" d="M731.137,60.645c-3.692-2.051-8.424-0.834-11.558,2.645c-0.746-1.095-1.774-2.079-3.074-2.801
			c-1.553-0.863-3.214-1.206-4.76-1.124c1.646-4.981,0.095-10.253-4.006-12.532c-4.746-2.637-11.099-0.264-14.191,5.301
			c-3.092,5.565-1.751,12.213,2.995,14.85c2.954,1.642,6.531,1.34,9.557-0.463c0.507,2.027,1.96,3.978,4.163,5.202
			c2.052,1.14,4.293,1.39,6.199,0.906c0.327,2.865,1.8,5.392,4.26,6.759c4.414,2.453,10.324,0.245,13.199-4.931
			C736.798,69.281,735.551,63.097,731.137,60.645z"/>
		
			<ellipse transform="matrix(0.7177 0.6963 -0.6963 0.7177 271.4526 -424.4578)" fill="#DBFF78" cx="659.251" cy="122.58" rx="12.465" ry="12.406"/>
		
			<ellipse transform="matrix(0.7177 0.6963 -0.6963 0.7177 290.0258 -430.6211)" fill="#DBFF78" cx="676.139" cy="142.406" rx="7.848" ry="7.787"/>
		
			<ellipse transform="matrix(0.9565 0.2917 -0.2917 0.9565 66.0231 -207.9013)" fill="#DBFF78" cx="730.258" cy="117.473" rx="13.153" ry="14.99"/>
		
			<ellipse transform="matrix(0.9633 -0.2686 0.2686 0.9633 1.7921 204.8924)" fill="#DBFF78" cx="749.756" cy="95.896" rx="8.662" ry="9.028"/>
		
			<ellipse transform="matrix(0.9633 -0.2686 0.2686 0.9633 -10.2211 203.5787)" fill="#DBFF78" cx="738.948" cy="139.146" rx="5.543" ry="5.777"/>
		<path fill="#DBFF78" d="M715.024,140.127c-0.859-0.833-1.917-1.334-3.046-1.58c3.209-5.282,2.872-11.815-1.231-15.796
			c-4.872-4.727-13.189-4.057-18.577,1.496c-5.388,5.553-5.805,13.887-0.933,18.614c2.9,2.814,7.02,3.701,11.018,2.798
			c-0.311,2.141,0.255,4.281,1.797,5.777c2.74,2.658,7.417,2.282,10.447-0.841C717.529,147.472,717.764,142.785,715.024,140.127z"/>
		
			<ellipse transform="matrix(0.7884 -0.6152 0.6152 0.7884 97.3483 399.7668)" fill="#91E900" cx="629.776" cy="58.378" rx="6.674" ry="7.819"/>
		
			<ellipse transform="matrix(0.7992 0.6011 -0.6011 0.7992 217.1178 -343.4983)" fill="#91E900" cx="622.667" cy="153.207" rx="6.674" ry="7.819"/>
		
			<ellipse transform="matrix(0.6757 0.7372 -0.7372 0.6757 279.7178 -544.2891)" fill="#91E900" cx="758.447" cy="45.757" rx="5.741" ry="6.726"/>
		
			<ellipse transform="matrix(-0.3247 0.9458 -0.9458 -0.3247 1173.7151 -528.3871)" fill="#91E900" cx="775.498" cy="154.837" rx="7.241" ry="9.121"/>
		
			<ellipse transform="matrix(0.7884 -0.6152 0.6152 0.7884 98.6851 399.307)" fill="#DBFF78" cx="629.776" cy="56.205" rx="3.091" ry="3.622"/>
		
			<ellipse transform="matrix(0.4474 -0.8943 0.8943 0.4474 289.2864 781.605)" fill="#DBFF78" cx="777.128" cy="156.708" rx="4.131" ry="4.839"/>
	</g>
	<path fill="#3A3F2C" d="M1488.478,361.005c-6.885,3.254-14.626,3.63-21.792,1.063c-7.168-2.567-12.907-7.772-16.161-14.657
		c-6.716-14.21-0.619-31.235,13.592-37.952c8.668-4.097,18.752-3.575,26.971,1.399c2.227,1.347,4.228,2.992,5.986,4.866
		l-11.845,8.816l36.912,5.412l5.412-36.912l-14.384,10.705c-3.337-3.912-7.268-7.3-11.727-9.998
		c-13.973-8.453-31.118-9.34-45.871-2.37c-24.182,11.429-34.557,40.399-23.128,64.58c5.536,11.715,15.303,20.572,27.5,24.94
		c5.345,1.914,10.874,2.866,16.387,2.866c7.069,0,14.112-1.566,20.693-4.677c14.983-7.081,25.218-21.128,27.377-37.575l-19.83-2.604
		C1503.299,348.583,1497.283,356.843,1488.478,361.005z"/>
</g>
</svg>
