<?xml version="1.0" encoding="utf-8"?>
<!-- Generator: Adobe Illustrator 17.0.2, SVG Export Plug-In . SVG Version: 6.00 Build 0)  -->
<!DOCTYPE svg PUBLIC "-//W3C//DTD SVG 1.1//EN" "http://www.w3.org/Graphics/SVG/1.1/DTD/svg11.dtd">
<svg version="1.1" id="Calque_1" xmlns="http://www.w3.org/2000/svg" xmlns:xlink="http://www.w3.org/1999/xlink" x="0px" y="0px"
	 width="130.323px" height="86.873px" viewBox="0 0 130.323 86.873" enable-background="new 0 0 130.323 86.873"
	 xml:space="preserve">
<g>
	<path fill="#68C156" d="M127.653,70.013C140.76,31.161,103.381,0,64.209,0C24.557,0-10.53,31.305,2.928,69.772
		C11.82,91.217,118.761,93.804,127.653,70.013z"/>
	<path fill="#5CA348" d="M9.96,66.975C0.284,39.319,15.7,15.366,39.865,4.086C11.843,13.761-7.543,39.555,3.029,69.773
		c7.632,18.407,87.494,22.919,115.595,8.785C86.182,89.161,17.035,84.038,9.96,66.975z"/>
	
		<ellipse transform="matrix(-0.6267 -0.7792 0.7792 -0.6267 153.756 132.6711)" fill="#A05799" cx="108.654" cy="29.509" rx="10.494" ry="7.405"/>
	
		<ellipse transform="matrix(-0.076 -0.9971 0.9971 -0.076 69.063 181.4907)" fill="#A05799" cx="118.623" cy="58.746" rx="4.848" ry="3.96"/>
	<path fill="#7F4A7A" d="M119.864,62.983c-2.181,0.166-4.114-1.863-4.317-4.533c-0.128-1.684,0.464-3.218,1.465-4.164
		c-1.508,0.766-2.5,2.637-2.338,4.763c0.203,2.67,2.136,4.7,4.317,4.533c0.805-0.061,1.529-0.417,2.115-0.971
		C120.721,62.807,120.309,62.949,119.864,62.983z"/>
	<path fill="#7F4A7A" d="M104.958,32.721c-3.37-4.19-3.919-9.43-1.435-12.212c-0.516,0.199-1.003,0.466-1.442,0.819
		c-3.187,2.563-2.826,8.302,0.806,12.818s9.16,6.099,12.347,3.536c0.23-0.185,0.436-0.39,0.629-0.606
		C112.629,38.321,108.09,36.615,104.958,32.721z"/>
	
		<ellipse transform="matrix(0.1115 -0.9938 0.9938 0.1115 -27.5365 67.8281)" fill="#A05799" cx="24.164" cy="49.313" rx="12.667" ry="10.079"/>
	<path fill="#7F4A7A" d="M24.416,60.641c-5.532-0.621-9.383-6.76-8.603-13.712c0.413-3.682,2.049-6.842,4.313-8.919
		c-3.111,1.894-5.471,5.643-5.98,10.178c-0.78,6.952,3.072,13.091,8.603,13.712c2.602,0.292,5.105-0.7,7.116-2.545
		C28.207,60.365,26.339,60.857,24.416,60.641z"/>
	
		<ellipse transform="matrix(0.8761 -0.4821 0.4821 0.8761 -2.7841 25.2697)" fill="#A05799" cx="47.776" cy="18.052" rx="10.022" ry="8.619"/>
	<path fill="#7F4A7A" d="M40.691,21.939c-2.146-3.9-0.473-9,3.718-11.827c-0.265,0.121-0.528,0.247-0.788,0.39
		c-4.849,2.668-6.92,8.212-4.625,12.383c2.295,4.17,8.086,5.388,12.936,2.72c0.315-0.173,0.616-0.359,0.907-0.556
		C48.166,27.182,42.863,25.886,40.691,21.939z"/>
	
		<ellipse transform="matrix(0.9726 -0.2323 0.2323 0.9726 -12.4433 21.5219)" fill="#A05799" cx="85.163" cy="63.597" rx="10.471" ry="11.095"/>
	
		<ellipse transform="matrix(0.7461 -0.6658 0.6658 0.7461 -15.9849 74.5975)" fill="#B76AB7" cx="89.825" cy="58.259" rx="2.202" ry="2.695"/>
	
		<ellipse transform="matrix(0.9339 -0.3575 0.3575 0.9339 -12.3599 46.7998)" fill="#B76AB7" cx="120.401" cy="56.83" rx="0.883" ry="1.081"/>
	
		<ellipse transform="matrix(0.9793 -0.2022 0.2022 0.9793 -8.4132 6.7908)" fill="#B76AB7" cx="29.03" cy="44.572" rx="2.202" ry="3.203"/>
	
		<ellipse transform="matrix(0.8037 -0.595 0.595 0.8037 6.6605 72.3324)" fill="#B76AB7" cx="112.964" cy="26.071" rx="1.017" ry="2.326"/>
	<path fill="#7F4A7A" d="M77.48,64.473c-1.026-4.299,0.468-8.567,3.487-11.121c-4.633,1.995-7.267,7.311-5.987,12.671
		c1.423,5.959,7.136,9.701,12.76,8.358c1.567-0.374,2.954-1.114,4.12-2.1c-0.518,0.223-1.054,0.416-1.62,0.551
		C84.615,74.175,78.903,70.432,77.48,64.473z"/>
	
		<ellipse transform="matrix(0.9323 -0.3618 0.3618 0.9323 -6.0831 30.0956)" fill="#A05799" cx="77.327" cy="31.292" rx="8.652" ry="9.144"/>
	
		<ellipse transform="matrix(0.9933 0.1157 -0.1157 0.9933 5.8666 -6.0193)" fill="#A05799" cx="54.784" cy="47.526" rx="5.308" ry="5.784"/>
	<path fill="#7F4A7A" d="M54.993,52.541c-2.912-0.339-4.973-3.186-4.603-6.359c0.157-1.346,0.729-2.532,1.554-3.428
		c-1.292,0.918-2.222,2.423-2.429,4.205c-0.369,3.173,1.692,6.02,4.603,6.359c1.676,0.195,3.266-0.487,4.387-1.703
		C57.497,52.332,56.269,52.69,54.993,52.541z"/>
	<path fill="#7F4A7A" d="M71.025,32.652c-1.206-3.108-0.679-6.432,1.094-8.834c-3.117,2.295-4.403,6.625-2.861,10.601
		c1.827,4.708,6.919,7.124,11.374,5.395c1.514-0.587,2.751-1.584,3.664-2.821c-0.574,0.423-1.204,0.785-1.897,1.054
		C77.944,39.775,72.852,37.36,71.025,32.652z"/>
	
		<ellipse transform="matrix(0.8209 -0.5711 0.5711 0.8209 -1.2679 51.0259)" fill="#B76AB7" cx="80.713" cy="27.534" rx="1.993" ry="2.236"/>
	
		<ellipse transform="matrix(0.9162 -0.4006 0.4006 0.9162 -1.765 22.462)" fill="#B76AB7" cx="52.838" cy="15.452" rx="1.993" ry="2.597"/>
	
		<ellipse transform="matrix(0.8209 -0.5711 0.5711 0.8209 -15.7882 40.6202)" fill="#B76AB7" cx="56.863" cy="45.48" rx="1.269" ry="1.424"/>
</g>
</svg>
