<?xml version="1.0" encoding="utf-8"?>
<!-- Generator: Adobe Illustrator 17.0.2, SVG Export Plug-In . SVG Version: 6.00 Build 0)  -->
<!DOCTYPE svg PUBLIC "-//W3C//DTD SVG 1.1//EN" "http://www.w3.org/Graphics/SVG/1.1/DTD/svg11.dtd">
<svg version="1.1" id="Calque_1" xmlns="http://www.w3.org/2000/svg" xmlns:xlink="http://www.w3.org/1999/xlink" x="0px" y="0px"
	 width="507.999px" height="116px" viewBox="0 0 507.999 116" enable-background="new 0 0 507.999 116" xml:space="preserve">
<g>
	<path fill="#502F2D" d="M0.5,115.5v-11h143v-11h52v-39h8.489l0.064-0.426c3.414-22.704,21.916-40.113,44.995-42.337l0.452-0.043
		V0.5h9v11.194l0.452,0.043c23.079,2.224,41.582,19.633,44.995,42.337l0.063,0.426h8.489v39h52v11h143v11H0.5z"/>
	<path fill="#C77966" d="M257.999,1v10.24v0.908l0.904,0.087c22.85,2.202,41.169,19.437,44.548,41.914L303.58,55h0.861h7.559v38v1h1
		h51v10v1h1h141.999v10H1v-10h141.999h1v-1V94h51h1v-1V55h7.559h0.861l0.128-0.851c3.38-22.476,21.699-39.712,44.548-41.914
		l0.904-0.087V11.24V1H257.999 M258.999,0h-10v11.24c-23.31,2.246-42.024,20.031-45.441,42.76h-8.559v39h-52v11H0v12h507.999v-12
		H364.999V93h-52V54h-8.559c-3.418-22.729-22.131-40.514-45.441-42.76V0L258.999,0z"/>
</g>
</svg>
