<?xml version="1.0" encoding="utf-8"?>
<!-- Generator: Adobe Illustrator 17.0.2, SVG Export Plug-In . SVG Version: 6.00 Build 0)  -->
<!DOCTYPE svg PUBLIC "-//W3C//DTD SVG 1.1//EN" "http://www.w3.org/Graphics/SVG/1.1/DTD/svg11.dtd">
<svg version="1.1" id="Calque_1" xmlns="http://www.w3.org/2000/svg" xmlns:xlink="http://www.w3.org/1999/xlink" x="0px" y="0px"
	 width="65px" height="65px" viewBox="0 0 65 65" enable-background="new 0 0 65 65" xml:space="preserve">
<g>
	<polygon fill="#DFC99B" stroke="#82663F" stroke-width="1.5" stroke-miterlimit="10" points="27.44,10.73 37.56,10.73 
		37.56,52.448 32.5,62.31 27.44,52.448 	"/>
	<path fill="#DFC99B" stroke="#82663F" stroke-width="1.5" stroke-miterlimit="10" d="M20.834,58.544V44.868
		c-2.615-2.833-4.226-6.606-4.226-10.765s1.611-7.932,4.226-10.765V9.662l-5.096,2.942l2.038,3.531
		c-1.185,0.973-2.271,2.059-3.243,3.244l-3.532-2.039l-3.767,6.526l3.547,2.048c-0.534,1.414-0.931,2.891-1.181,4.422H5.5v7.535h4.1
		c0.25,1.53,0.647,3.007,1.181,4.421L7.234,44.34l3.767,6.526l3.532-2.039c0.972,1.185,2.058,2.272,3.243,3.244l-2.038,3.531
		L20.834,58.544z"/>
	<path fill="#DFC99B" stroke="#82663F" stroke-width="1.5" stroke-miterlimit="10" d="M59.5,37.871v-7.535h-4.1
		c-0.25-1.531-0.647-3.008-1.18-4.422l3.547-2.048l-3.768-6.526l-3.531,2.039c-0.972-1.185-2.059-2.271-3.244-3.244l2.039-3.531
		l-5.096-2.942v13.676c2.615,2.833,4.225,6.606,4.225,10.765s-1.61,7.932-4.225,10.765v13.676l5.096-2.942l-2.039-3.531
		c1.185-0.972,2.272-2.059,3.244-3.244l3.531,2.039l3.768-6.526l-3.547-2.048c0.534-1.414,0.93-2.891,1.18-4.421H59.5z"/>
	
		<rect x="28.391" y="6.564" fill="#DFC99B" stroke="#82663F" stroke-width="1.5" stroke-miterlimit="10" width="8.219" height="4.167"/>
	
		<rect x="29.877" y="2.69" fill="#DFC99B" stroke="#82663F" stroke-width="1.5" stroke-miterlimit="10" width="5.246" height="3.874"/>
	<line fill="#DFC99B" stroke="#82663F" stroke-width="1.5" stroke-miterlimit="10" x1="37.56" y1="27.19" x2="27.44" y2="27.19"/>
</g>
</svg>
